<?xml version="1.0" encoding="UTF-8"?>
<svg id="Layer_1" data-name="Layer 1" xmlns="http://www.w3.org/2000/svg" viewBox="0 0 50 50">
  <defs>
    <style>
      .cls-1 {
        fill: #fff;
      }
    </style>
  </defs>
  <path class="cls-1" d="M.01,21.78c-.11,.87,.57,1.65,1.45,1.65H7.42c.72,0,1.33-.52,1.44-1.22,1.15-6.83,6.51-12.19,13.34-13.34,.71-.12,1.22-.73,1.22-1.44V1.47c0-.88-.77-1.56-1.65-1.45h0c-5.5,.68-10.69,3.22-14.62,7.15C3.24,11.1,.69,16.29,.01,21.78Zm34.32,16.37c-2.78,1.99-6.04,3.03-9.43,3.03-7.97,0-14.72-5.71-16.04-13.58-.12-.71-.73-1.22-1.44-1.22H1.47c-.88,0-1.56,.77-1.45,1.65H.01c1.56,12.53,12.26,21.97,24.89,21.97,5.63,0,10.95-1.83,15.39-5.28,.7-.54,.76-1.57,.14-2.19l-4.22-4.22c-.51-.51-1.3-.57-1.89-.16Zm-6.73-29.28c7.87,1.32,13.58,8.07,13.58,16.04,0,3.39-1.05,6.65-3.03,9.43-.42,.58-.35,1.38,.16,1.89l4.22,4.22c.62,.62,1.65,.56,2.19-.14h0c3.46-4.44,5.28-9.77,5.28-15.39C50,12.27,40.55,1.57,28.03,.01h0c-.87-.11-1.65,.57-1.65,1.45V7.42c0,.72,.52,1.33,1.22,1.44h0Z"/>
  <path class="cls-1" d="M25.88,14.84h-1.95c-.81,0-1.46,.66-1.46,1.46v17.09h4.88V16.31c0-.81-.66-1.46-1.46-1.46Zm4.39,18.55h3.42c.81,0,1.46-.66,1.46-1.46v-11.72c0-.81-.66-1.46-1.46-1.46h-3.42v14.65Zm-10.74-10.74h-3.42c-.81,0-1.46,.66-1.46,1.46v7.81c0,.81,.66,1.46,1.46,1.46h3.42v-10.74Z"/>
</svg>