<?xml version="1.0" encoding="UTF-8"?>
<svg id="Layer_1" data-name="Layer 1" xmlns="http://www.w3.org/2000/svg" viewBox="0 0 50 50">
  <defs>
    <style>
      .cls-1 {
        fill: #fff;
      }
    </style>
  </defs>
  <path class="cls-1" d="M48.5,30.48l-4.6-3.59c.06-.55,.11-1.2,.11-1.89s-.05-1.33-.11-1.89l4.6-3.6c.85-.68,1.09-1.87,.54-2.87l-4.78-8.27c-.51-.93-1.63-1.41-2.76-.99l-5.42,2.18c-1.04-.75-2.13-1.38-3.26-1.89l-.82-5.75c-.14-1.09-1.09-1.92-2.21-1.92h-9.58c-1.12,0-2.07,.82-2.2,1.9l-.83,5.77c-1.09,.49-2.16,1.12-3.25,1.89l-5.44-2.18c-1.02-.39-2.24,.05-2.74,.98L.96,16.64c-.56,.95-.33,2.19,.54,2.89l4.6,3.59c-.07,.7-.11,1.31-.11,1.89s.04,1.18,.11,1.89l-4.6,3.6c-.85,.68-1.09,1.88-.54,2.87l4.78,8.27c.51,.93,1.62,1.41,2.76,.99l5.42-2.18c1.04,.75,2.13,1.38,3.25,1.89l.82,5.75c.14,1.1,1.08,1.92,2.21,1.92h9.58c1.12,0,2.07-.82,2.21-1.9l.83-5.77c1.09-.49,2.16-1.12,3.25-1.89l5.44,2.18c.26,.1,.54,.15,.82,.15,.81,0,1.55-.44,1.93-1.13l4.8-8.31c.53-.98,.3-2.17-.56-2.85h0Zm-23.5,2.85c-4.6,0-8.33-3.74-8.33-8.33s3.74-8.33,8.33-8.33,8.33,3.74,8.33,8.33-3.74,8.33-8.33,8.33Z"/>
</svg>