<?xml version="1.0" encoding="UTF-8"?>
<svg id="Layer_1" data-name="Layer 1" xmlns="http://www.w3.org/2000/svg" viewBox="0 0 50 50">
  <defs>
    <style>
      .cls-1 {
        fill: #fff;
      }
    </style>
  </defs>
  <path class="cls-1" d="M46.03,4.89C43.45,1.74,39.89,0,36.03,0,33.15,0,30.5,1.03,28.18,3.05c-1.17,1.02-2.24,2.27-3.18,3.73-.94-1.46-2-2.71-3.18-3.73C19.5,1.03,16.85,0,13.97,0,10.11,0,6.55,1.74,3.97,4.89,1.41,8.01,0,12.27,0,16.89s1.58,9.1,4.96,13.69c3.03,4.1,7.38,8.27,12.41,13.1,1.72,1.65,3.67,3.52,5.69,5.51,.53,.53,1.22,.82,1.93,.82,.71,0,1.4-.29,1.93-.82,2.02-1.99,3.98-3.86,5.7-5.51,5.04-4.82,9.39-8.99,12.41-13.1,3.38-4.59,4.96-8.94,4.96-13.69s-1.41-8.88-3.97-12ZM12.4,6.73c-2.84,.44-5.29,2.54-6.38,5.46-.12,.32-.39,.52-.7,.54-.59,.03-1.03-.62-.8-1.24,1.31-3.5,4.23-6.01,7.64-6.54,.44-.06,.86,.27,.92,.76,.06,.49-.25,.95-.68,1.01Z"/>
</svg>