<?xml version="1.0" encoding="UTF-8"?>
<svg id="Layer_1" data-name="Layer 1" xmlns="http://www.w3.org/2000/svg" viewBox="0 0 50 50">
  <defs>
    <style>
      .cls-1 {
        fill: #fff;
      }
    </style>
  </defs>
  <path class="cls-1" d="M4.39,0h14.75c2.43,0,4.39,1.97,4.39,4.39v14.75c0,2.43-1.97,4.39-4.39,4.39H4.39C1.97,23.53,0,21.56,0,19.14V4.39C0,1.97,1.97,0,4.39,0Z"/>
  <path class="cls-1" d="M30.86,0h14.75c2.43,0,4.39,1.97,4.39,4.39v14.75c0,2.43-1.97,4.39-4.39,4.39h-14.75c-2.43,0-4.39-1.97-4.39-4.39V4.39c0-2.43,1.97-4.39,4.39-4.39Z"/>
  <rect class="cls-1" x="28.69" y="28.69" width="18.86" height="18.86" rx="3.52" ry="3.52" transform="translate(-15.79 38.12) rotate(-45)"/>
  <path class="cls-1" d="M4.39,26.46h14.75c2.43,0,4.39,1.97,4.39,4.39v14.75c0,2.43-1.97,4.39-4.39,4.39H4.39C1.97,50,0,48.03,0,45.6v-14.75C0,28.43,1.97,26.46,4.39,26.46Z"/>
</svg>