<?xml version="1.0" encoding="UTF-8"?>
<svg id="Layer_1" data-name="Layer 1" xmlns="http://www.w3.org/2000/svg" viewBox="0 0 50 50">
  <defs>
    <style>
      .cls-1 {
        fill: #fff;
      }
    </style>
  </defs>
  <path class="cls-1" d="M4.39,23.54h14.75c2.42,0,4.39-1.97,4.39-4.39V4.39c0-2.42-1.97-4.39-4.39-4.39H4.39C1.97,0,0,1.97,0,4.39v14.75c0,2.42,1.97,4.39,4.39,4.39Zm3.03-13.18h2.93v-2.93c0-.81,.66-1.46,1.46-1.46s1.46,.66,1.46,1.46v2.93h2.93c.81,0,1.46,.66,1.46,1.46s-.66,1.46-1.46,1.46h-2.93v2.93c0,.81-.66,1.46-1.46,1.46s-1.46-.66-1.46-1.46v-2.93h-2.93c-.81,0-1.46-.66-1.46-1.46s.66-1.46,1.46-1.46ZM45.61,0h-14.75c-2.42,0-4.39,1.97-4.39,4.39v14.75c0,2.42,1.97,4.39,4.39,4.39h14.75c2.42,0,4.39-1.97,4.39-4.39V4.39c0-2.42-1.97-4.39-4.39-4.39Zm-2.93,13.28h-8.89c-.81,0-1.46-.66-1.46-1.46s.66-1.46,1.46-1.46h8.89c.81,0,1.46,.66,1.46,1.46s-.66,1.46-1.46,1.46Zm2.93,13.18h-14.75c-2.42,0-4.39,1.97-4.39,4.39v14.75c0,2.42,1.97,4.39,4.39,4.39h14.75c2.42,0,4.39-1.97,4.39-4.39v-14.75c0-2.42-1.97-4.39-4.39-4.39Zm-2.93,16.11h-8.89c-.81,0-1.46-.66-1.46-1.46s.66-1.46,1.46-1.46h8.89c.81,0,1.46,.66,1.46,1.46s-.66,1.46-1.46,1.46Zm0-5.86h-8.89c-.81,0-1.46-.66-1.46-1.46s.66-1.46,1.46-1.46h8.89c.81,0,1.46,.66,1.46,1.46s-.66,1.46-1.46,1.46Zm-19.14,8.89v-14.75c0-2.42-1.97-4.39-4.39-4.39H4.39c-2.42,0-4.39,1.97-4.39,4.39v14.75c0,2.42,1.97,4.39,4.39,4.39h14.75c2.42,0,4.39-1.97,4.39-4.39Zm-7.58-5.35c.57,.57,.57,1.5,0,2.07s-1.5,.57-2.07,0l-2.07-2.07-2.07,2.07c-.57,.57-1.5,.57-2.07,0s-.57-1.5,0-2.07l2.07-2.07-2.07-2.07c-.57-.57-.57-1.5,0-2.07s1.5-.57,2.07,0l2.07,2.07,2.07-2.07c.57-.57,1.5-.57,2.07,0s.57,1.5,0,2.07l-2.07,2.07,2.07,2.07Z"/>
</svg>