<?xml version="1.0" encoding="UTF-8"?>
<svg id="Layer_1" data-name="Layer 1" xmlns="http://www.w3.org/2000/svg" viewBox="0 0 50 50">
  <defs>
    <style>
      .cls-1 {
        fill: #fff;
      }
    </style>
  </defs>
  <ellipse class="cls-1" cx="20.05" cy="12.49" rx="12.47" ry="12.49"/>
  <path class="cls-1" d="M23.8,47.79l1.11-6.49-4.71-4.59c-1.18-1.15-1.6-2.85-1.09-4.42,.51-1.57,1.84-2.7,3.48-2.93l6.51-.95,.05-.11c-2.73-.88-5.82-1.39-9.1-1.39C8.98,26.91,0,32.57,0,39.54v10.46H24.02c-.26-.7-.35-1.45-.22-2.21Z"/>
  <path class="cls-1" d="M49.55,34.68c.88-.86,.39-2.35-.82-2.52l-7.21-1.05c-.36-.05-.68-.24-.91-.51-.08-.09-.14-.19-.2-.3l-3.22-6.54c-.07-.14-.15-.26-.25-.36-.15-.16-.34-.27-.53-.35-.18-.07-.36-.12-.55-.12-.13,0-.26,.02-.39,.05-.26,.07-.49,.21-.69,.41-.1,.1-.18,.22-.25,.36l-2.74,5.56-.48,.98c-.22,.44-.63,.74-1.11,.81l-7.21,1.05c-.3,.04-.56,.17-.76,.35-.61,.53-.71,1.53-.06,2.17l5.22,5.09c.35,.34,.51,.83,.42,1.31l-1.23,7.19c-.02,.14-.02,.27-.01,.4,0,.04,.01,.08,.02,.12,.02,.09,.04,.17,.07,.25,.01,.04,.03,.08,.05,.11,.04,.08,.08,.15,.14,.22,.02,.03,.04,.06,.06,.08,.08,.09,.16,.18,.26,.25,.01,0,.03,.02,.04,.03,.09,.06,.18,.11,.27,.15,.04,.01,.07,.03,.11,.04,.08,.03,.16,.05,.24,.06,.04,0,.08,.01,.12,.01,.09,0,.17,0,.26-.01,.04,0,.08,0,.12-.02,.13-.03,.26-.07,.38-.14l6.45-3.39c.22-.11,.45-.17,.69-.17s.47,.06,.69,.17l3.55,1.87,2.9,1.53c.13,.07,.25,.11,.38,.14,.04,0,.08,0,.12,.02,.09,.01,.17,.02,.26,.01,.04,0,.08,0,.12-.01,.08-.01,.17-.03,.24-.06,.04-.01,.07-.02,.11-.04,.1-.04,.19-.09,.27-.15,.01,0,.03-.02,.04-.03,.1-.07,.18-.15,.26-.25,.02-.03,.04-.06,.06-.08,.05-.07,.1-.15,.14-.22,.02-.04,.03-.08,.05-.12,.03-.08,.05-.17,.07-.25,0-.04,.02-.08,.02-.12,.01-.13,.01-.26-.01-.4l-1.23-7.19c-.08-.48,.08-.97,.42-1.31l5.22-5.09Z"/>
</svg>