<?xml version="1.0" encoding="UTF-8"?>
<svg id="Layer_1" data-name="Layer 1" xmlns="http://www.w3.org/2000/svg" viewBox="0 0 50 50">
  <defs>
    <style>
      .cls-1 {
        fill: #fff;
      }
    </style>
  </defs>
  <path class="cls-1" d="M44.94,27.77c-1.58,1.46-2.45,3.53-2.4,5.68,.19,6.19-2.63,12.09-7.57,15.83-3.21,2.19-6.83-.93-6.51-4.68-.05-3.69-.26-9.97-3.49-13.75-.79,.79-1.38,1.76-1.72,2.83-1.3,3.55-1.89,7.33-1.75,11.11,.27,3.72-3.47,6.66-6.59,4.46-4.08-3.13-6.71-7.78-7.29-12.89-.39-3.23,.19-6.19-2.62-8.62C-1.15,21.82-1.7,12.17,3.75,5.6,8.52-.53,17.32-1.76,23.6,2.81c1.35,.95,1.72,.77,2.42,.25,16.24-11.34,32.48,11.55,18.92,24.71h0Z"/>
</svg>