<?xml version="1.0" encoding="UTF-8"?>
<svg id="Layer_1" data-name="Layer 1" xmlns="http://www.w3.org/2000/svg" viewBox="0 0 50 50">
  <defs>
    <style>
      .cls-1 {
        fill: #fff;
      }
    </style>
  </defs>
  <path class="cls-1" d="M11.25,0h0c1.38,0,2.5,1.07,2.5,2.38v2.38c0,1.31-1.12,2.38-2.5,2.38h0c-1.38,0-2.5-1.07-2.5-2.38V2.38c0-1.31,1.12-2.38,2.5-2.38Z"/>
  <path class="cls-1" d="M38.75,0h0c1.38,0,2.5,1.07,2.5,2.38v2.38c0,1.31-1.12,2.38-2.5,2.38h0c-1.38,0-2.5-1.07-2.5-2.38V2.38c0-1.31,1.12-2.38,2.5-2.38Z"/>
  <path class="cls-1" d="M0,17.86v27.38c0,2.63,2.24,4.76,5,4.76H45c2.76,0,5-2.13,5-4.76V17.86H0Zm15,23.81c0,1.31-1.12,2.38-2.5,2.38h-2.5c-1.38,0-2.5-1.07-2.5-2.38v-2.38c0-1.31,1.12-2.38,2.5-2.38h2.5c1.38,0,2.5,1.07,2.5,2.38v2.38Zm0-13.1c0,1.31-1.12,2.38-2.5,2.38h-2.5c-1.38,0-2.5-1.07-2.5-2.38v-2.38c0-1.31,1.12-2.38,2.5-2.38h2.5c1.38,0,2.5,1.07,2.5,2.38v2.38Zm13.75,13.1c0,1.31-1.12,2.38-2.5,2.38h-2.5c-1.38,0-2.5-1.07-2.5-2.38v-2.38c0-1.31,1.12-2.38,2.5-2.38h2.5c1.38,0,2.5,1.07,2.5,2.38v2.38Zm0-13.1c0,1.31-1.12,2.38-2.5,2.38h-2.5c-1.38,0-2.5-1.07-2.5-2.38v-2.38c0-1.31,1.12-2.38,2.5-2.38h2.5c1.38,0,2.5,1.07,2.5,2.38v2.38Zm13.75,13.1c0,1.31-1.12,2.38-2.5,2.38h-2.5c-1.38,0-2.5-1.07-2.5-2.38v-2.38c0-1.31,1.12-2.38,2.5-2.38h2.5c1.38,0,2.5,1.07,2.5,2.38v2.38Zm0-13.1c0,1.31-1.12,2.38-2.5,2.38h-2.5c-1.38,0-2.5-1.07-2.5-2.38v-2.38c0-1.31,1.12-2.38,2.5-2.38h2.5c1.38,0,2.5,1.07,2.5,2.38v2.38Zm7.5-13.1v-7.14c0-2.63-2.24-4.76-5-4.76h-1.25v1.19c0,2.63-2.24,4.76-5,4.76s-5-2.14-5-4.76v-1.19H16.25v1.19c0,2.63-2.24,4.76-5,4.76s-5-2.14-5-4.76v-1.19h-1.25C2.24,3.57,0,5.7,0,8.33v7.14H50Z"/>
</svg>