<?xml version="1.0" encoding="UTF-8"?>
<svg id="Layer_1" data-name="Layer 1" xmlns="http://www.w3.org/2000/svg" viewBox="0 0 50 50">
  <defs>
    <style>
      .cls-1 {
        fill: #fff;
      }
    </style>
  </defs>
  <path class="cls-1" d="M48.36,18.18l-3.77-3.8c-1.69-1.71-4.45-1.73-6.16-.03-.01,.01-.02,.02-.03,.03-.8,.73-2.02,.73-2.82,0-.76-.78-.76-2.03,0-2.82,1.71-1.69,1.73-4.46,.03-6.17-.01-.01-.02-.02-.03-.03l-3.79-3.77c-2.14-2.11-5.58-2.11-7.72,0L1.59,24.13c-2.12,2.14-2.12,5.59,0,7.73l3.77,3.75c1.69,1.71,4.45,1.73,6.16,.03,.01-.01,.02-.02,.03-.03,.8-.73,2.02-.73,2.82,0,.76,.78,.76,2.03,0,2.82-1.71,1.69-1.73,4.46-.03,6.17,.01,.01,.02,.02,.03,.03l3.79,3.77c2.13,2.13,5.58,2.13,7.72,0l22.52-22.55c2.12-2.14,2.12-5.59,0-7.73l-.05,.05Zm-29.51,10.2c-1.57,0-2.84-1.27-2.84-2.84s1.27-2.84,2.84-2.84,2.84,1.27,2.84,2.84c-.02,1.57-1.31,2.82-2.88,2.8-.02,0-.03,0-.05,0l.09,.05Zm8.83,4.27c0,1.26-1.02,2.27-2.27,2.27s-2.27-1.02-2.27-2.27v-13.64c0-1.26,1.02-2.27,2.27-2.27s2.27,1.02,2.27,2.27v13.64Zm4.11-3.84c-1.57,0-2.84-1.27-2.84-2.84s1.27-2.84,2.84-2.84,2.84,1.27,2.84,2.84-1.27,2.84-2.84,2.84Z"/>
</svg>