<?xml version="1.0" encoding="UTF-8"?>
<svg id="Layer_1" data-name="Layer 1" xmlns="http://www.w3.org/2000/svg" viewBox="0 0 50 50">
  <defs>
    <style>
      .cls-1 {
        fill: #fff;
      }
    </style>
  </defs>
  <path class="cls-1" d="M46.39,0H3.61C1.62,0,0,1.62,0,3.61V12.2H50V3.61c0-1.99-1.62-3.61-3.61-3.61ZM6.26,7.67c-.87,0-1.57-.7-1.57-1.57s.7-1.57,1.57-1.57,1.57,.7,1.57,1.57-.7,1.57-1.57,1.57Zm6.37,0c-.87,0-1.57-.7-1.57-1.57s.7-1.57,1.57-1.57,1.57,.7,1.57,1.57-.7,1.57-1.57,1.57Zm6.66,0c-.87,0-1.57-.7-1.57-1.57s.7-1.57,1.57-1.57,1.57,.7,1.57,1.57-.7,1.57-1.57,1.57Z"/>
  <path class="cls-1" d="M0,15.71v30.68c0,1.99,1.62,3.61,3.61,3.61H46.39c1.99,0,3.61-1.62,3.61-3.61V15.71H0Zm16.48,14.69l-2.04,5.93c-.28,.81-1.17,1.25-1.98,.97-.44-.15-.78-.49-.95-.92l-.74-1.92-.64,1.87c-.28,.81-1.17,1.25-1.98,.97-.44-.15-.78-.49-.95-.92l-2.27-5.93c-.31-.8,.09-1.7,.9-2.01,.8-.31,1.7,.09,2.01,.9l.74,1.92,.64-1.87c.32-1.13,2.26-1.61,2.93-.05l.74,1.92,.64-1.87c.28-.81,1.17-1.25,1.98-.97,.81,.28,1.25,1.17,.97,1.98Zm14.3,0l-2.04,5.93c-.28,.81-1.17,1.25-1.98,.97-.44-.15-.78-.49-.95-.92l-.74-1.92-.64,1.87c-.28,.81-1.17,1.25-1.98,.97-.44-.15-.78-.49-.95-.92l-2.27-5.93c-.31-.8,.09-1.7,.9-2.01,.8-.31,1.7,.09,2.01,.9l.74,1.92,.64-1.87c.36-1.21,2.35-1.5,2.93-.05l.74,1.92,.64-1.87c.28-.81,1.16-1.25,1.98-.97,.81,.28,1.25,1.17,.97,1.98Zm14.3,0l-2.04,5.93c-.28,.81-1.17,1.25-1.98,.97-.44-.15-.78-.49-.95-.92l-.74-1.92-.64,1.87c-.28,.81-1.17,1.25-1.98,.97-.44-.15-.78-.49-.95-.92l-2.27-5.93c-.31-.8,.09-1.7,.9-2.01,.8-.31,1.7,.09,2.01,.9l.74,1.92,.64-1.87c.35-1.16,2.28-1.59,2.93-.05l.74,1.92,.64-1.87c.28-.81,1.17-1.25,1.98-.97,.81,.28,1.25,1.17,.97,1.98Z"/>
</svg>