<?xml version="1.0" encoding="UTF-8"?>
<svg id="Layer_1" data-name="Layer 1" xmlns="http://www.w3.org/2000/svg" viewBox="0 0 50 50">
  <defs>
    <style>
      .cls-1 {
        fill: #fff;
      }
    </style>
  </defs>
  <circle class="cls-1" cx="25" cy="12.49" r="12.49" transform="translate(-.15 .31) rotate(-.7)"/>
  <path class="cls-1" d="M34.1,28.3s-.03-.01-.04-.01c-.63-.2-1.27-.38-1.93-.54-.11-.02-.22-.05-.33-.07-.57-.13-1.15-.25-1.74-.34-.08-.01-.15-.03-.23-.04h-1.66l-1.94,3.55h-2.47l-1.94-3.55h-1.66c-.08,.01-.16,.03-.23,.04-.59,.09-1.17,.21-1.74,.34-.11,.02-.23,.05-.34,.07-.65,.16-1.3,.34-1.92,.54-.02,0-.03,.01-.05,.01-3.25,1.04-5.99,2.63-7.92,4.57-1.92,1.93-3.04,4.23-3.04,6.68v10.45H45.08v-10.45c0-4.91-4.46-9.16-10.97-11.25Zm-9.11,19.98l-4.18-4.37,2.94-11.95h2.47l2.94,11.95-4.18,4.37Z"/>
</svg>