<?xml version="1.0" encoding="UTF-8"?>
<svg id="Layer_1" data-name="Layer 1" xmlns="http://www.w3.org/2000/svg" viewBox="0 0 50 50">
  <defs>
    <style>
      .cls-1 {
        fill: #fff;
      }
    </style>
  </defs>
  <path class="cls-1" d="M7.65,5.4h0c-.47,0-.92,.19-1.25,.53-.34,.34-.53,.81-.53,1.3v27.54c0,1.01,.8,1.83,1.79,1.84,4.16,.01,11.14,.9,15.96,6.07V13.86c0-.34-.09-.66-.25-.93-3.95-6.53-11.54-7.52-15.72-7.53h0Zm36.49,29.37V7.23c0-.49-.19-.96-.53-1.3-.33-.34-.78-.53-1.25-.53h0c-4.17,.01-11.77,1-15.72,7.53-.16,.27-.25,.59-.25,.93v28.82c4.81-5.17,11.79-6.06,15.96-6.07,.99,0,1.79-.83,1.79-1.84Z"/>
  <path class="cls-1" d="M48.21,11.75h-1.3v23.02c0,2.58-2.05,4.68-4.56,4.69-3.53,0-9.36,.72-13.48,4.72,7.13-1.79,14.66-.63,18.94,.38,.53,.13,1.09,0,1.52-.35,.43-.35,.67-.88,.67-1.43V13.58c0-1.01-.8-1.84-1.79-1.84h0ZM3.09,34.77V11.75H1.79c-.99,0-1.79,.82-1.79,1.84v29.18c0,.56,.25,1.08,.67,1.43,.43,.35,.99,.48,1.52,.35,4.29-1,11.81-2.17,18.94-.38-4.12-4.01-9.95-4.72-13.48-4.72-2.52,0-4.56-2.11-4.56-4.69h0Z"/>
</svg>