<?xml version="1.0" encoding="UTF-8"?>
<svg id="Layer_1" data-name="Layer 1" xmlns="http://www.w3.org/2000/svg" viewBox="0 0 50 50">
  <defs>
    <style>
      .cls-1 {
        fill: #fff;
      }
    </style>
  </defs>
  <path class="cls-1" d="M0,41.31c0,1.86,1.51,3.36,3.36,3.36H46.64c1.86,0,3.36-1.51,3.36-3.36V14.86H0v26.45ZM28.63,24.05h16.87v3.11H28.63v-3.11Zm0,7.44h16.87v3.11H28.63v-3.11ZM5.19,26.51l5.38-.78c.26-.04,.49-.2,.6-.44l2.4-4.87c.29-.6,1.15-.6,1.44,0l2.4,4.87c.12,.24,.34,.4,.6,.44l5.38,.78c.66,.1,.92,.91,.45,1.37l-3.89,3.79c-.19,.18-.28,.45-.23,.71l.92,5.36c.11,.66-.58,1.16-1.17,.85l-4.81-2.53c-.23-.12-.51-.12-.75,0l-4.81,2.53c-.59,.31-1.28-.19-1.17-.85l.92-5.36c.04-.26-.04-.53-.23-.71l-3.89-3.79c-.48-.46-.21-1.27,.45-1.37Z"/>
  <path class="cls-1" d="M46.64,5.33H3.36c-1.86,0-3.36,1.51-3.36,3.36v3.06H50v-3.06c0-1.86-1.51-3.36-3.36-3.36Z"/>
</svg>