<?xml version="1.0" encoding="UTF-8"?>
<svg id="Layer_1" data-name="Layer 1" xmlns="http://www.w3.org/2000/svg" viewBox="0 0 50 50">
  <path d="m0,21.3h3.6c.7,0,1.2-.2,1.6-.5.4-.3.7-.7.8-1,.2-.4.3-1,.3-1.5v-8.4c0-1,.2-1.9.5-2.7.4-.8.9-1.6,1.5-2.2.6-.6,1.4-1.1,2.2-1.4s1.7-.5,2.7-.5h6.9v6.8h-6.9v8.6c0,.6,0,1.1-.2,1.6s-.3.9-.5,1.3-.4.8-.6,1.1c-.2.3-.5.6-.7.9-.6.6-1.3,1.1-2,1.4.7.3,1.4.8,2,1.4.3.3.5.6.7.9.2.3.5.7.6,1.2.2.5.3,1,.5,1.5s.2,1.2.2,1.9v8.5h6.9v6.9h-6.9c-.9,0-1.8-.2-2.6-.5s-1.6-.8-2.2-1.4-1.1-1.3-1.5-2.2-.6-1.7-.6-2.7v-8.5c0-.9-.1-1.6-.4-2-.3-.5-.6-.8-.9-1.1-.4-.3-.9-.4-1.4-.5H0v-6.8Zm50,6.8h-3.6c-.5,0-1,.2-1.4.5-.2.1-.3.3-.5.4s-.3.4-.4.6c-.1.3-.2.5-.3.9s-.1.7,0,1.2v8.5c0,1-.2,1.9-.6,2.7s-.9,1.6-1.5,2.2-1.4,1.1-2.2,1.4c-.8.3-1.7.5-2.6.5h-6.8v-6.9h6.8v-8.5c0-.7,0-1.3.2-1.9s.3-1.1.5-1.5.4-.9.6-1.2c.2-.3.5-.7.7-.9.6-.6,1.3-1.1,2-1.4-.7-.3-1.4-.8-2-1.4-.3-.2-.5-.5-.7-.9s-.5-.7-.6-1.1-.3-.9-.5-1.3-.2-1-.2-1.6v-8.6h-6.8V3h6.8c.9,0,1.8.2,2.7.5s1.6.8,2.2,1.4c.6.6,1.1,1.3,1.5,2.2.4.8.5,1.7.5,2.7v8.4c0,.6.1,1.1.3,1.5.2.4.4.7.8,1,.4.3.9.5,1.6.5h3.6v6.8Z" style="fill: #fff; stroke-width: 0px;"/>
</svg>