<?xml version="1.0" encoding="UTF-8"?>
<svg id="Layer_1" data-name="Layer 1" xmlns="http://www.w3.org/2000/svg" viewBox="0 0 50 50">
  <defs>
    <style>
      .cls-1 {
        fill: #fff;
      }
    </style>
  </defs>
  <path class="cls-1" d="M46.39,0H3.61C1.62,0,0,1.62,0,3.61V12.2H50V3.61c0-1.99-1.62-3.61-3.61-3.61ZM6.26,7.67c-.87,0-1.57-.7-1.57-1.57s.7-1.57,1.57-1.57,1.57,.7,1.57,1.57-.7,1.57-1.57,1.57Zm6.37,0c-.87,0-1.57-.7-1.57-1.57s.7-1.57,1.57-1.57,1.57,.7,1.57,1.57-.7,1.57-1.57,1.57Zm6.66,0c-.87,0-1.57-.7-1.57-1.57s.7-1.57,1.57-1.57,1.57,.7,1.57,1.57-.7,1.57-1.57,1.57Z"/>
  <path class="cls-1" d="M0,15.71v30.68c0,1.99,1.62,3.61,3.61,3.61H46.39c1.99,0,3.61-1.62,3.61-3.61V15.71H0ZM35.94,31.97l-4.17,4.07c-.28,.27-.41,.66-.34,1.05l.98,5.74c.02,.11,.02,.22,0,.32,0,.03-.01,.06-.02,.09-.01,.07-.03,.14-.05,.2-.01,.03-.02,.06-.04,.09-.03,.06-.07,.12-.11,.18-.02,.02-.03,.05-.05,.07-.06,.07-.13,.14-.21,.2-.01,0-.02,.01-.04,.02-.07,.05-.14,.09-.22,.12-.03,.01-.06,.02-.09,.03-.06,.02-.13,.04-.2,.05-.03,0-.07,0-.1,.01-.07,0-.14,0-.21-.01-.03,0-.07,0-.1-.01-.1-.02-.21-.06-.31-.11l-2.32-1.22-2.84-1.49c-.17-.09-.36-.14-.55-.14s-.38,.05-.55,.14l-5.16,2.71c-.1,.05-.2,.09-.31,.11-.03,0-.07,0-.1,.01-.07,0-.14,.01-.21,.01-.03,0-.07,0-.1-.01-.07,0-.13-.03-.2-.05-.03,0-.06-.02-.09-.03-.08-.03-.15-.07-.22-.12-.01,0-.02-.01-.03-.02-.08-.06-.15-.12-.21-.2-.02-.02-.03-.04-.05-.07-.04-.06-.08-.12-.11-.18-.01-.03-.03-.06-.04-.09-.02-.06-.04-.13-.05-.2,0-.03-.01-.06-.02-.09,0-.1-.01-.21,0-.32l.98-5.74c.07-.38-.06-.77-.34-1.05l-4.17-4.07c-.53-.51-.44-1.31,.04-1.74,.16-.14,.37-.24,.61-.28l5.76-.84c.38-.06,.72-.3,.89-.65l.38-.78,2.19-4.44c.05-.11,.12-.21,.2-.29,.15-.16,.34-.27,.55-.33,.1-.03,.21-.04,.31-.04,.15,0,.3,.04,.44,.09,.16,.06,.3,.15,.43,.28,.08,.08,.14,.18,.2,.29l2.58,5.22c.04,.09,.1,.17,.16,.24,.18,.22,.44,.36,.73,.41l5.76,.84c.97,.14,1.36,1.33,.65,2.01Z"/>
</svg>