<?xml version="1.0" encoding="utf-8"?>
<!-- Generator: Adobe Illustrator 24.0.0, SVG Export Plug-In . SVG Version: 6.00 Build 0)  -->
<svg version="1.1" id="Layer_1" xmlns="http://www.w3.org/2000/svg" xmlns:xlink="http://www.w3.org/1999/xlink" x="0px" y="0px"
	 viewBox="0 0 177 150" style="enable-background:new 0 0 177 150;" xml:space="preserve">
<style type="text/css">
	.st0{fill:#95BF46;}
	.st1{fill:#5E8E3E;}
	.st2{fill:#FFFFFF;}
	.st3{fill:url(#Shape_2_);}
	.st4{fill:#003399;}
	.st5{fill:#E42320;}
	.st6{fill:#339900;}
	.st7{fill:#000066;}
	.st8{fill:url(#SVGID_1_);}
	.st9{fill:url(#SVGID_2_);}
	.st10{fill:url(#SVGID_3_);}
	.st11{fill:url(#SVGID_4_);}
	.st12{fill:url(#SVGID_5_);}
	.st13{fill:url(#SVGID_6_);}
	.st14{opacity:0.57;fill:#339900;enable-background:new    ;}
	.st15{fill:#FFFFFF;stroke:#FFFFFF;stroke-width:1.5952;stroke-miterlimit:10;}
	.st16{fill:#D51F30;}
	.st17{clip-path:url(#SVGID_8_);}
	.st18{fill:#00CCCC;}
	.st19{fill:#663399;}
	.st20{fill:#990099;}
	.st21{fill:#FF6600;}
	.st22{fill:url(#SVGID_9_);}
</style>
<g>
	<path class="st18" d="M40.9,75.2c0,6.7-2,12-6,15.9c-3.5,3.5-7.7,5.3-12.5,5.3c-4.4,0-8.2-1.6-11.4-4.7C7.8,88.5,5.8,84.5,5,79.5
		c-0.2-1.5-0.4-3-0.4-4.5c0.1-6.1,1.8-11.2,5.2-15.3c3.4-4.1,7.8-6.1,13.2-6.1c4.3,0,8.1,1.4,11.3,4.3c3.3,3.1,5.4,7.2,6.3,12.3
		C40.8,71.8,40.9,73.4,40.9,75.2z M29,75c0-0.5,0-1.1-0.1-1.6c-0.3-1.8-1-3.3-2.2-4.5c-1.2-1.2-2.5-1.8-4-1.8c-1.9,0-3.5,1-4.7,3
		c-1.3,2-1.7,4.2-1.3,6.6c0.3,1.8,1,3.2,2.1,4.3c1.1,1.1,2.4,1.7,3.9,1.7c1.7,0,3.2-0.7,4.4-2.2C28.4,79.1,29,77.2,29,75z"/>
	<path class="st19" d="M68.7,54.5l-3.1,13.1h-5.4L60,95.5H47.8L48,67.6h-5.9l0.1-13.1H68.7z"/>
	<path class="st20" d="M104.4,54.5l-0.3,41H91.9L92,81.3h-7.5l-0.1,14.2H72.3l0.3-41h12.1l-0.1,13.3h7.5l0.1-13.3H104.4z"/>
	<path class="st21" d="M136,54.5L133.5,66h-10.2l-0.1,3.4h9.2l-0.1,11h-9.2l0,3.5h12.7l-2.7,11.5h-22.2l0.3-41H136z"/>
	<path class="st21" d="M169.3,67.4c0,2.7-0.6,5.1-1.7,7.1c-1.1,2-2.6,3.4-4.4,4.1l9.2,16.9h-14.2L153.3,83l-0.1,12.5h-12.1l0.3-41
		h16.3c6.6,0,10.4,2.9,11.4,8.7C169.3,64.4,169.3,65.8,169.3,67.4z M158.2,69c0-0.4,0-0.7-0.1-1.1c-0.3-1.7-1.3-2.6-3.1-2.6h-1.6
		l-0.1,7.7h1.8C157.2,73,158.2,71.7,158.2,69z"/>
</g>
</svg>
