<?xml version="1.0" encoding="utf-8"?>
<!-- Generator: Adobe Illustrator 24.0.0, SVG Export Plug-In . SVG Version: 6.00 Build 0)  -->
<svg version="1.1" id="Layer_1" xmlns="http://www.w3.org/2000/svg" xmlns:xlink="http://www.w3.org/1999/xlink" x="0px" y="0px"
	 viewBox="0 0 177 150" style="enable-background:new 0 0 177 150;" xml:space="preserve">
<style type="text/css">
	.st0{fill:#95BF46;}
	.st1{fill:#5E8E3E;}
	.st2{fill:#FFFFFF;}
	.st3{fill:url(#Shape_2_);}
	.st4{fill:#003399;}
	.st5{fill:#E42320;}
	.st6{fill:#339900;}
	.st7{fill:#000066;}
	.st8{fill:url(#SVGID_1_);}
	.st9{fill:url(#SVGID_2_);}
	.st10{fill:url(#SVGID_3_);}
	.st11{fill:url(#SVGID_4_);}
	.st12{fill:url(#SVGID_5_);}
	.st13{fill:url(#SVGID_6_);}
	.st14{opacity:0.57;fill:#339900;enable-background:new    ;}
	.st15{fill:#FFFFFF;stroke:#FFFFFF;stroke-width:1.5952;stroke-miterlimit:10;}
	.st16{fill:#D51F30;}
	.st17{clip-path:url(#SVGID_8_);}
	.st18{fill:#00CCCC;}
	.st19{fill:#663399;}
	.st20{fill:#990099;}
	.st21{fill:#FF6600;}
	.st22{fill:url(#SVGID_9_);}
</style>
<g>
	<path class="st6" d="M8.5,67.7c6.5,0.8,15.8,1.4,26.7,0.3c9.8-1,15.9-2.9,32-8c37.2-11.8,41.1-13.5,50.3-14.8c8.6-1.3,19.5-2,33-1
		c6,17.5,12,34.9,18,52.2c-2.7-0.5-6.9-1.1-12.2-1.4c-12-0.8-25.1,0.6-64.2,12.9c-19.7,6.1-22.5,7.6-32.4,9.3
		c-14,2.3-26.1,2.2-34.2,1.7c-5.7-16.7-11.4-33.4-17-50.1C8.5,68.7,8.5,67.7,8.5,67.7z"/>
	<path class="st14" d="M66.5,55.1c-0.2-0.4,4.8-1.5,10.8-3.8c4.8-1.8,7.4-3.2,13.2-6c11.8-5.8,17.6-8.7,21.5-10.1
		c4.6-1.7,16.8-6.2,21.7-3.3c1.1,0.6,2.3,2.1,3.3,3.1c1.8,1.9,2.6,3.1,2.3,3.7c-0.7,1.5-6.7-1.2-14.5-1.1c-1.9,0-4.4,0.2-13,2.7
		c-9.6,2.8-16.8,5.5-19.2,6.4C86.5,49,77.7,52.1,66.5,55.1z"/>
	<g>
		<path class="st15" d="M89.9,101.1l0.2-4.8c-3.4,0.3-6.8-0.3-8.9-1.3l1.4-3.4c2,0.9,5.1,1.6,8.2,1.3c4-0.4,7-2.6,7-5.3
			c0-2.6-2.2-4-6.4-5.1c-5.9-1.4-9.5-3.3-9.3-7.4c0.2-4,3.6-7.3,8.9-8.5l0.2-4.8l3.6-0.3l-0.2,4.7c3.4-0.3,5.9,0.4,7.5,1l-1.6,3.3
			c-1.2-0.5-3.6-1.3-7.3-1c-4.5,0.4-6.2,2.7-6.2,4.7c0,2.5,2,3.5,7.1,4.8c5.9,1.4,8.9,3.8,8.9,7.9c0,3.8-3.3,7.6-9.3,9l-0.2,5
			L89.9,101.1z"/>
	</g>
</g>
</svg>
