<?xml version="1.0" encoding="utf-8"?>
<!-- Generator: Adobe Illustrator 24.0.0, SVG Export Plug-In . SVG Version: 6.00 Build 0)  -->
<svg version="1.1" id="Layer_1" xmlns="http://www.w3.org/2000/svg" xmlns:xlink="http://www.w3.org/1999/xlink" x="0px" y="0px"
	 viewBox="0 0 300 500" style="enable-background:new 0 0 300 500;" xml:space="preserve">
<style type="text/css">
	.st0{fill:none;stroke:#010202;stroke-width:0.9044;stroke-linecap:round;stroke-linejoin:round;stroke-miterlimit:10;}
	.st1{fill:#010202;}
	.st2{fill:none;stroke:#010202;stroke-width:0.9044;stroke-miterlimit:10;}
	.st3{fill:none;stroke:#000000;stroke-width:0.9011;stroke-linecap:round;stroke-linejoin:round;stroke-miterlimit:10;}
	.st4{fill:none;stroke:#000000;stroke-width:0.9011;stroke-miterlimit:10;}
</style>
<g>
	<path id="hinh-nguoi" class="st0" d="M36.8,223.3c-0.8,2-1.8,5.1-2.7,8.8c-0.9,4.2-1.2,7.4-1.4,12.1c-0.7,11.2-1,16.8-1,23.5
		c0,6.8,0.4,12.2,0.6,15.2c0.4,5.4,0.8,9.4,0.9,10.3c1.1,9.5,1.7,14.2,3.4,19.6c1.3,4,2.1,5.1,3,9.3c0.8,3.7,1,7.1,1.2,9.4
		c0.2,2.6,0.2,5,0.1,8c-0.2,6.4-0.7,8.9-1.4,17.3c-0.7,7.2-1,10.8-0.8,13.6c0.3,6,1.6,10.9,2.4,14.1c1.3,4.8,1.9,5.5,3.4,10.9
		c1.3,4.4,1.9,7.5,3,13.3c2.2,11.5,3.4,17.6,3.3,25.7c0,3.5-0.3,6.4-0.5,8.3c-0.5,3.3-1.5,5.8-2.3,7.4c-0.9,1.9-2.8,5-4.6,7.9
		c-1.3,2.2-2.1,3.4-1.7,4.9c0.5,1.6,2.2,2.5,2.6,2.7c1.1,0.6,2,0.6,5.2,0.5c3.1-0.1,4.8-0.2,7.2-0.3c3.5-0.2,3.6-0.1,4.9-0.2
		c0.3,0,4.3-0.5,5.7-1.2c3.4-1.7,3.4-10.6,0.5-21.2c0.2-3,0.2-6.7-1.5-10.1c-0.5-1-1.7-1.8-1.4-3.2c0.6-3.5,0-7.1,0.2-10.7
		c0.6-9,2.1-17.9,2.7-26.8c0.4-5.4,0.5-10.8,0.8-16.2c0.5-7.4-0.5-14.5-1.5-21.7c-0.6-4.3-1.9-8.7-0.8-12.9
		c2.4-8.8,1.2-17.7,0.9-26.5c-0.1-3.4-1-6.9-0.3-10.3c1.5-7.5,2.4-15,2.6-22.6c0-0.9-0.4-4,0.6-7.8c0.3-1.1,0.6-2,0.8-2.5
		c0.5-0.8,1.1-2.1,1.5-3.7c0.4-1.7,0.3-3.1,0.2-4.1c-0.4,0-1-0.1-1.6-0.4c-0.2-0.1-1-0.5-2-1.7c-0.2-0.3-1.3-1.7-2-3.9
		c-0.1-0.2-0.2-1-0.6-2.5c-0.2-0.9-0.4-1.5-0.4-1.6c-0.6-2.6-3.4-8.2-3.5-8.2c-0.1,0,2.1,3,3.5,8.2c0.9,3.3,1,5.7,3.1,8.2
		c1.1,1.3,2,1.7,2.7,1.9c1.7,0.4,3.5-0.4,4.5-1.5c0.3-0.4,0.5-0.6,1-1.8c1.2-2.8,1.7-4.3,1.7-4.3c0.3-0.9,0.6-1.8,0.9-2.4
		c0.9-2.2,1.2-2.8,1.3-3.1c0.3-0.4,0.3-0.5,1.5-2c1.4-1.8,2-2.8,2-2.8c0,0-3.3,4.1-4.1,6c0,0.1-0.3,0.7-0.6,1.6
		c-0.3,0.8-0.5,1.1-1.1,2.8c-0.5,1.4-1.2,2.8-1.7,4.2c-0.2,0.6-0.4,1.2-1,1.8c-0.2,0.2-0.8,0.9-2,1.3c-0.7,0.3-1.3,0.3-1.7,0.3
		c0.1,0.7,0.1,1.2,0.1,1.7c0,1-0.2,1.7-0.2,1.9c-0.1,0.3-0.1,0.3-0.1,0.4c0,0,0,0,0,0.1c0,0.1,0.5,0.9,1.2,2
		c0.1,0.1,0.2,0.3,0.3,0.5c0.9,1.3,1.5,2.2,1.6,2.3c1.3,1.8,0.8,10.2,1.2,16.8c0.1,1.8,0.2,3,0.4,4.3c0.3,1.6,0.7,2.9,1.5,6.8
		c1.5,7.3,0.3,14.5-0.3,21.7c-0.5,6.3-0.4,12.4,1,18.4c1,4.4,0.5,8.5-0.3,12.6c-2.2,11.3-1.9,22.6-1.3,34
		c0.7,12.9,3.5,25.5,3.1,38.5c-0.1,2.2,0.2,4.1-1,6.2c-2,3.8-1.7,8.1-2,12.2c-0.2,3.1-0.8,6.1-0.4,9.4c0.2,1.7-0.3,4.1,0,6.1
		c0.7,3.8,2.2,5.9,6.1,5.7c6-0.3,11.9,1.1,17.9,0.2c2.2-0.3,3.8-1.1,4.9-3.2c-0.5-1.7-1.9-3.1-3-4.6c-5.2-7-8-14.9-7.4-23.6
		c0.9-12.1,2.7-24.1,5.5-35.9c1.7-7,4.6-13.5,5.9-20.6c1-5.6,1-11,0.5-16.5c-0.7-7.9-2-31.8-1.4-35.9c0.6-4.3,2.5-8.4,3.7-12.6
		c1.5-5.3,2.3-10.7,3-16.2c1.4-11.4,2.2-22.8,1.9-34.3c-0.3-10.2-0.7-20.3-2.4-30.4c-0.3-2-1-6.5-4.2-10.7c-0.5-0.6-0.9-1.1-1.1-1.3
		c-0.9-1.4-1.8-2.8-2.7-4.2c-1.1-2.9-1.6-5.3-1.8-6.9c-0.7-4.4-0.2-8,0.5-13.8c0.1-1.1,0-0.2,1-6.5c0.9-6.6,1-7.3,1.3-9
		c0.4-2.2,1.1-5.3,2.4-9.1c0,0,1.5-22.6,0.4-25.2c0.9-4.2,1.6-8.6,2.2-13.2c0.1-1.1,0.3-2.2,0.4-3.3c-0.2,1.4-0.3,2.6-0.4,3.3
		c0,0-0.5,5.1-1.8,11.6c0,0.2-0.1,0.4-0.2,0.7c-0.4,0.6-0.9,0.6-1.4,1.3c-0.2,0.2-0.2,0.3-0.4,0.7c-0.5,0.8-1.1,1.3-1.6,1.6
		c-1.3,1-2.7,1.4-3.1,1.5c-3.6,1.1-6,1.3-6,1.3c-3.2,0.3-6.9,0.7-11.4,1.2c-1.9,0-3.8,0.1-5.8,0.1c-4.2,0-8.2,0-12.2-0.2
		c-1,0-2.3,0-3.8-0.1c-0.6,0-1.1,0-1.1,0c-5.2-0.3-10.4-0.6-15.6-1.3c-1.2-0.2-8.2-2.5-9.3-6.8c-0.1-0.3-0.2-0.8-0.4-1.9
		c-0.5-2.7-0.8-4.7-0.9-6c-0.2-1.6-0.6-4-1.1-6.9c0.9,5.5,1.7,11,2.6,16.5c-1.1,1.8-1.5,3.7-1.7,5.7c0,0.1-0.1,0.9-0.2,2.1
		c-0.1,0.7-0.1,1.1-0.1,1.3c0,0.4-0.1,1.3-0.3,2.5c-0.1,0.9-0.2,1.5-0.3,2c-0.2,1.4-0.3,2.8-0.5,4.2c0,0.4-0.1,0.9-0.2,1.6
		c0,0-0.1,0.3-0.1,0.6c0,3.2-1.2,6-2.7,8.8c-0.8,1.5-1.4,3.3-1.3,5.1c0.2,10.3-1.4,20.2-4.5,30.1c-2.2,7-6.3,13.3-7.2,20.7
		c-0.6,5-1.6,10.1,0.7,14.8c1.7,3.4,2,6.8,1.5,10.4c-0.5,3.3-0.9,6.4,0,9.7c0.3,1.1,0.7,2.9-0.9,3.5c-1.7,0.6-2.4-1-2.9-2.2
		c-0.5-1.1-1.8-1.7-1.7-3.2c0.2-2.9,0.2-5.8,0.4-8.7l-1,11c-1,2.3-3.1,8.2-3.8,7.1c-0.3-0.4,0.2-1.3,0.3-1.9l-3.2,1.9
		c-1.2-1.2-1.1-2.9-2-4.2c-3.7-5.6-3.4-11.6-2-17.8c2-8.2,2.8-16.6,2.1-24.9c-0.5-6.5-1.7-12.9-1.4-19.4c0.2-6.7,1.1-13.3,4.8-19.1
		c0,0-0.5-2.9-0.4-6.1c0.2-4.5,0-9,0.3-13.6c0.5-7.6,2.5-14.8,5.9-21.7c0,0,3-31.1,9.2-35.5c4.2-3,7.7-4.4,10.9-5
		c1-0.2,4.2,0.7,6.3-1c0.1-0.1,0.1-0.1,0.3-0.2c1.7-1.5,5-3.4,9.3-4.5c1.9-0.5,3.9-0.8,5.9-1.2c1.9-0.3,2.6-1.1,3-2.9
		c0.5-2.4,1.3-8.6,2-7.9c1.8,2,4,3.5,6.5,4.4c1.2,0.4,3.7,1.3,7,0.7c3.2-0.5,5.4-2.1,6.4-2.9c0.4-0.4,0.7-0.7,1.1-1.1
		c1.4-1.4,4.8-5.2,6.5-11c0.9-3,0.3-3,1.1-4.3c0.9-1.4,3.8-4,4.9-6.4c0.1-0.2,1.4-3.2-0.1-5.8c-0.8-1.3-1.9-2-2.6-2.3
		c0.3-1.3,0.7-3,0.9-5c0.3-2.4,0.2-4.3,0.2-4.7c-0.1-3.6-0.2-5.8-1.5-8c-1.4-2.4-3.3-3.6-4.4-4.3c-2.3-1.5-4.4-2-5.6-2.3
		c-2.1-0.5-3.8-0.5-6.8-0.6c-0.3,0-1.9-0.1-3.3,0c-6.1,0.3-13,0.6-15.9,4.4c-0.5,0.7-2,2.9-2.6,5.1c-0.1,0.3-0.3,1.2-0.5,2.2
		c-0.1,0.5-0.3,1.2-0.4,2.2c-0.1,0.7-0.3,1.8-0.3,2.8c0,0.2,0,0.3,0,0.5c0,1.3,0.2,2.4,0.3,2.8c0.7,3.6,1.2,4.1,0.8,4.8
		c-0.6,1-1.8,0.5-2.9,1.7c-1,1.1-1,2.7-1,3.3c0,2.3,1.3,3.9,2.1,5.1c1.8,2.3,3,2.3,3.8,4.4c0.3,0.8,0.1,0.8,0.5,2.7
		c0.2,1,0.6,3.2,1.7,5.5c0.5,1.2,1.4,2.7,2.6,4.4c1.8,2.3,3.7,3.7,5,4.4c4.2,2.5,8.4,2.3,10.1,2.2c0.7-0.1,2.4-0.4,4.2-1.4
		c2.8-1.6,3.8-3.6,4.5-3.3c1.1,0.5-1.5,5.9,0.7,8.1c0.4,0.4,1.3,1,2.3,1.5c0.9,0.5,1.7,0.8,1.9,0.8c5.6,1,11.1,1.9,15.7,5.9
		c3.7,3.2,4,0.2,7.1,1.1c6,1.9,11.6,8.4,11.6,8.4c1.4,1.7,4.1,5,5.8,9.9c0.1,0.3,2.4,7.2,2,12.2c-0.1,0.7-0.3,3.1,0.2,5.1
		c0.1,0.2,0.3,1.1,0.6,2.4c0.1,0.4,0.2,0.7,0.3,1.4c2.5,12.3,4.1,20.3,4,27.3c0,3.3,0.3,6.7,0.2,10c-0.1,1.3-0.2,3.2,0.4,5.7
		c0.5,2.1,1.3,3.6,1.7,4.4c1.5,3.2,1.8,6.2,2.3,11.2c0.2,2.7,0.2,4.6-0.5,14c-1,14.6-1.3,15.3-0.9,18.6c0.8,7.2,2,11.6,2,11.6
		c0.7,2.4,1.3,4.4,1.5,7.4c0,1,0.1,3.6-0.6,6.9c-1.1,4.9-2.5,4.4-3.6,8.8c-0.1,0.5-0.4,1.6-1,1.7c-0.9,0.2-1.8-2.1-2.3-1.9
		c-0.6,0.2,0.4,2.6-0.9,4.1c-0.6,0.8-1.8,1.4-2.5,1c-0.7-0.4-0.6-1.5-0.7-5.3c0,0-0.1-1.8-0.3-4.7c-0.1-0.9-0.4-5.9-0.6-5.9
		c-0.2,0-0.2,2.2-1.1,5.3c-0.4,1.4-0.8,2.4-1.8,2.9c-0.2,0.1-1.1,0.7-1.8,0.3c-1.1-0.6-0.3-3.1-0.4-7.3c-0.1-3.3-0.6-3.5-0.7-8.1
		c-0.1-2.3,0-3.5,0.4-4.8c0.6-1.9,1.3-2.7,1.9-4c1.1-2.2,1-4.1,0.8-8.1c-0.2-4-0.9-8-2.2-12.3c-0.7-2.4-1-2.6-2.8-7.3
		c-3.2-8.1-4.8-12.1-5.7-16.7c-0.5-2.5-1.3-6.3-1.4-11.2c0-4.1,0.4-6.7-0.6-10.9c-0.7-2.7-1.5-4.3-2.1-5.6
		c-2.3-5.2-2.6-9.7-3.1-17.8c0,0-0.6-10.1,1.2-21.9c0,0,0-0.1,0-0.2c0.3-1.9,0.4-3.4,0.4-3.4c0,0-0.1,1.4-0.4,3.6c0,0-0.1,1.1-0.3,2
		c-1,5.9-1.4,8.9-3.2,11.2c-3.5,4.6-10.5,5.2-11.8,5.3c-1,0.1-1.7,0-3.9,0.2c-3.2,0.3-4.3,0.6-6.9,0.7c-1.8,0.1-3.1,0.1-4.8,0.1
		c-12.2-0.2-13.8-0.1-20.8-0.4c-0.3,0,0.1,0-7.6-0.6c-3.4-0.2-4.7-0.3-6.6-0.9c-1.1-0.3-3.8-1.1-5.6-2.9c-0.5-0.5-1.2-1.1-1.7-2.2
		c-0.3-0.6-0.6-1.5-0.6-1.4c0,0,0.4,0.8,0.2,1.7c-0.1,0.4-0.3,0.7-0.5,0.9c-0.5,0.8-0.7,1.5-0.9,2.7c-0.3,1.5,0.1,2.7,0.2,3.8
		c0.3,2.9,0.9,4.6,1.2,6.1c0.8,3.5,0.5,5.7,0.6,8.2c0.1,3.3,0.8,8.3,3.6,14.9c0,0,0,0,0,0c0,0.2,4.5,20.3,1.7,30.1
		c-0.8,2.8-2.1,5.3-2.1,5.3C39.6,220.1,38,222,36.8,223.3z"/>
	<g id="boqua_2_">
		<path class="st1" d="M56.5,227.2c-0.4-2.9-2-5.4-4-7.4c-1-1-2.2-1.8-3.3-2.7c-1.1-0.9-2.3-1.7-3.5-2.6c0,0,0,0,0-0.1
			c0,0,0,0,0.1,0c1.4,0.4,2.7,1.1,4,1.9c1.2,0.8,2.3,1.9,3.3,3c1,1.1,1.8,2.3,2.5,3.7C56.2,224.2,56.5,225.7,56.5,227.2
			C56.6,227.2,56.6,227.2,56.5,227.2C56.6,227.2,56.5,227.2,56.5,227.2z"/>
	</g>
	<g id="boqua_1_">
		<path class="st1" d="M87.4,227.3c0.1-1.5,0.6-3,1.3-4.4c0.7-1.4,1.7-2.6,2.7-3.7c1.1-1.1,2.2-2.2,3.6-3c1.3-0.8,2.7-1.5,4.2-1.9
			c0,0,0,0,0.1,0c0,0,0,0,0,0.1c-1.3,0.9-2.5,1.7-3.8,2.6c-1.2,0.9-2.5,1.7-3.6,2.7c-1.1,1-2.1,2.2-2.9,3.4
			C88.3,224.4,87.7,225.8,87.4,227.3C87.5,227.3,87.4,227.3,87.4,227.3C87.4,227.3,87.4,227.3,87.4,227.3z"/>
	</g>
	<path id="body-nguc" data-id="1" class="st2" d="M34.1,106.1c-2.7,5.7,0.2,20.4,0.2,20.4c0.4,1.8,0.7,3.3,0.9,4.7c0.6,3.6,0.9,5.3,1.2,7.5
		c0.2,1.9,0.1,2.3,0.4,3.2c0.2,0.6,0.6,1.6,0.5,2.7c0,0.3-0.1,0.7-0.2,1c-0.2,0.5-0.4,0.9-0.5,1c-0.6,0.8-0.7,1.9-0.7,2.8
		c-0.1,0.8,0,1.6,0.2,3.1c0.5,3.9,1.1,3.7,1.2,6c0,1.3-0.1,2.2,0.5,2.6c0.3,0.2,0.6,0.2,1.8,0.2c0.7,0,1.5,0,2.2,0
		c3.4-0.1,6.9,0,10.3,0c0,0,6.3,0,8.1,0c2.1,0,4.2,0,6.4,0c5.1,0,10.1,0,15.2,0c2.2,0,4.4,0,6.6,0c1.6,0,3.1,0,4.7,0
		c6.7,0,10,0,10,0c1,0,2,0,3.1,0h1.6c0.8,0.1,1,0.1,1.3,0c0.5-0.3,0.3-1.3,0.3-2.2c-0.1-1.6,0.1-3.3,0-4.9c0-2.6,0-2.2,0-3.5
		c-0.1-2.9-0.4-3.5-0.3-5.1c0-1.9,0.4-2.9,0.9-4.9c0.3-1.3,0.4-2.1,1.2-8.4c0.6-4.9,3-24.5,0.8-26.6c-0.7-0.6-1.3-0.7-1.3-0.7
		c-0.6-0.1-0.7,0.2-1.9,0.4c-0.7,0.1-1.1,0.2-1.6,0.1c-0.5-0.1-0.8-0.2-1-0.4c-0.2-0.2-0.5-0.3-0.5-0.4c-0.3-0.2-0.3-0.3-0.6-0.6
		c-0.2-0.2-0.4-0.3-0.6-0.5c-0.6-0.4-0.7-0.6-1.1-0.8c-0.4-0.3-0.8-0.5-1.7-0.9c-1.6-0.8-2.4-1.2-3.2-1.5c-1.3-0.5-2.3-0.8-4.6-1.3
		c-2.5-0.6-4.6-1.1-5.7-1.3c-6-1.1-10.6,0.4-21.2,0.3c-4.4,0-6.1-0.3-10,0.1c-0.6,0.1-4.3,0.5-8.5,2c-1.5,0.5-4,1.4-5.2,2.5
		c-0.2,0.2-0.7,0.6-1.8,1.4c-0.2,0.2-0.6,0.5-1.2,0.7c-0.3,0.1-0.6,0.2-0.7,0.2c-0.5,0.1-0.9,0.2-1.4,0.2c-1.3,0-2.3-0.1-2.3-0.1
		c-0.2,0-0.4-0.1-0.7,0C34.9,105.2,34.4,105.4,34.1,106.1z"/>
	<path id="body-bung" data-id="2" class="st2" d="M56.3,216.2c6.4-0.1,7.8-0.1,7.8-0.1c0,0-7.3,0.2-12.3,0.1c-1.4,0-2.1,0-3.6,0
		c-0.3,0-2.5,0-3.8,0c-0.8,0-0.7,0-1,0c-0.8,0-1,0.1-1.2-0.1c-0.2-0.2,0.2-0.7,0.4-1.1c0.4-0.6,0.6-1.4,1-3.1c0.3-1.2,0.4-2,0.6-3.3
		c0.1-0.5,0.2-1.3,0.2-2.4c0.1-1.6,0-2.9,0-3.9c-0.2-3.2-0.3-4.9-0.5-6.9c-0.5-5.2-1.1-7-2-12.2c-0.1-0.4-0.2-1-0.5-1.8
		c-0.1-0.2-0.1-0.3-0.5-1.3c-0.3-0.7-0.4-1-0.5-1.3c-0.1-0.2-0.2-0.5-0.6-1.7c-0.3-1-0.5-1.4-0.6-1.9c-0.1-0.3-0.3-1-0.5-2.2
		c-0.3-1.5-0.5-2.5-0.6-3.6c-0.3-2.8-0.2-7.4-0.3-7.7c0,0,0-0.1,0-0.2c0-0.2,0-0.2,0-0.2c0.1-0.2,0.6-0.1,0.6-0.1
		c0.7,0.1,1.4,0,2.1,0c0.7,0,1.5,0,2.2,0c0,0,0.1,0,4.8,0c3.2,0,6.4,0,8.9-0.1c2.4,0,5.6,0,12,0c5.1,0,8.9,0,11.8,0
		c8.9,0,13.3,0,13.8,0c0,0,7.8,0,9.6,0c0.3,0,1.2,0,2.2,0c0.3,0,0.4,0,0.7,0c0.6,0,1.2,0,1.5,0c0.1,0,0.2,0,0.4,0c0.1,0,0.1,0,0.1,0
		c0.1,0,0.2,0,0.3,0c0,0,0,0,0.1,0c0,0,0,0.1,0,0.1c0,0.3,0,0.6-0.1,0.9c0,0.1,0,0,0,0.8c0,1-0.1,2.3-0.1,2.3
		c-0.1,2.3-0.2,3.4-0.2,3.8c-0.1,1-0.3,1.7-0.5,2.4c-0.6,2.2-1.1,4.4-1.7,6.5c-1.4,4.6-0.9,6.2-2.9,17.7c-0.1,0.7-0.4,2.1-0.6,4.1
		c-0.2,1.8-0.4,3.9-0.2,6.5c0.1,0.8,0.2,2.3,0.6,4.1c0.2,1,0.5,2.1,0.7,2.7c0.1,0.5,0.3,0.9,0.4,1.3c0.1,0.3,0.1,0.4,0.2,0.5
		c0.1,0.3,0.2,0.6,0.2,0.6c0,0.1,0.1,0.2,0.1,0.2c0,0.1,0,0.1,0.1,0.1c0,0.1,0.1,0.1,0,0.1c0,0,0,0,0,0c0,0-0.1,0-0.1,0
		c0,0-0.2,0-0.2,0c-0.3,0-0.5,0-0.9,0c-0.1,0-0.2,0-3.7,0c0,0-3.7,0.1-7.9,0c-0.3,0-5.8,0-16.9-0.1
		C70.7,216.1,64.3,216.1,56.3,216.2z"/>
	<path id="body-ben-phukhoa" data-id="3" class="st2" d="M115.4,270c-1.2,0-3.1,0-5.4,0c-2.3,0-3.5,0-7,0c-1.7,0-4.1,0-7,0c-2.3,0-4.1,0-7.7,0
		c-1.6,0-4.4,0-6,0c-1,0-1.9,0-2.6,0.1c-1.5,0-2.3,0-2.9,0c-0.7,0-1.7-0.1-2.5-0.1c-0.9,0-1.1,0.1-1.1,0.1c-0.2,0-0.2,0-0.3,0
		c-0.3-0.1-0.3-0.8-0.1-3.9c0-0.3,0.1-0.8,0.1-0.8c0,0-0.1,0.7-0.1,1c0,0.2,0,0.4,0,0.7c0,0.2-0.1,0.4-0.2,1
		c-0.3,1.3-0.3,0.8-0.4,1.3c-0.1,0.3-0.1,0.4-0.2,0.5c-0.2,0.1-0.4,0-0.9,0.1c-0.3,0-0.3,0.1-0.6,0.1c-0.2,0-0.3,0-0.6,0
		c-0.3,0-0.3,0-0.9,0c-0.3,0-0.5,0-0.7,0c-0.6,0-1,0-1.9,0c-0.1,0,0,0-2.5,0c-1.2,0-1.2,0-1.4,0c-1.1,0-1.8,0-2.2,0
		c-1,0-1.9,0-3.7,0c-2.5,0-3.1,0-4.8,0c-2.1,0-2.5,0-5.6,0c-3.1,0-5.4,0-9,0c-2.2,0-4,0-5.3,0c0-2,0-4.9,0.1-8.3
		c0.2-6.9,0.5-12.2,0.8-15.9c0.2-3,0.5-7,1-11.6c0.6-2.3,1.1-4.1,1.3-5.2c0.7-2.8,0.9-3.9,1.8-5.2c0.4-0.5,0.2-0.2,1.8-2.2
		c1.6-2,2.4-3,2.6-3.6c0.3-0.9,0.3-1.9,1-2.1c0.1,0,0.2,0,0.6,0c0.6,0,1.1,0,1.7,0c0.5,0,1.5,0,3.3,0c2.3,0,4.1-0.1,4.5-0.1
		c5.2-0.3,15.9,0.2,28.8,0.1c3.7,0,3.5-0.1,8.9-0.1c6.2-0.1,11.3,0,14.5,0c0.2,0.7,0.6,1.3,0.8,1.6c0.4,0.5,0.5,0.5,1,1.2
		c0.3,0.4,0.3,0.5,0.8,1.3c0.2,0.4,0.4,0.6,0.7,1c0.7,1,1.1,1.4,1.4,1.9c0.7,1,1.1,1.8,1.5,2.6c0.9,1.7,1.4,3.5,1.9,5.7
		c0.5,2.4,0.7,4.2,1,7.3c0.5,4.6,0.7,6.9,0.8,8c0.1,1.6,0.6,7.7,0.8,16C115.4,265.3,115.4,268,115.4,270z"/>
	<g id="bo-qua">
		<path class="st1" d="M74.5,206.1c-0.1-0.3-0.3-0.6-0.6-0.9c-0.3-0.2-0.6-0.3-0.8-0.2c-0.3,0.1-0.5,0.4-0.6,0.7
			c-0.2,0.3-0.3,0.6-0.4,0.9l-0.7-0.2c0.1-0.4,0.3-0.8,0.6-1.2c0.1-0.2,0.3-0.3,0.4-0.5c0.2-0.2,0.4-0.3,0.8-0.4
			c0.3,0,0.6,0.1,0.8,0.3c0.2,0.2,0.3,0.4,0.4,0.6c0.1,0.2,0.2,0.4,0.2,0.6l0.1,0.3l0,0.1l0,0c0,0,0,0,0,0
			C74.5,206.2,74.6,206.2,74.5,206.1C74.5,206.1,74.5,206.1,74.5,206.1z M74.6,206.1c0,0.1,0,0.1,0,0.2c0,0,0,0,0,0
			c-0.1-0.1,0,0,0-0.1l0,0L74.6,206.1c-0.1,0-0.2-0.1-0.3-0.2c-0.1-0.2-0.3-0.3-0.4-0.4c-0.3-0.2-0.6-0.3-0.7-0.3
			c-0.1,0-0.4,0.2-0.6,0.5c-0.2,0.2-0.4,0.5-0.6,0.9l-0.7-0.2c0.2-0.4,0.4-0.7,0.6-1c0.2-0.3,0.5-0.6,1-0.8c0.5-0.1,0.9,0.2,1.1,0.5
			C74.3,205.4,74.4,205.7,74.6,206.1z"/>
	</g>
	<path id="body-chan" data-id="4" class="st2" d="M31.8,270c0,0.9,0,2.2,0.1,3.8c0.1,2.1,0.1,4.3,0.2,6.1c0.2,4.3,0.6,7.8,1.1,11.8
		c0.4,2.8,0.4,3,0.7,5.5c0.5,3.8,0.3,3.9,0.7,6.5c0.5,3.2,0.9,5.1,1,5.6c0.4,1.5,0.8,2.8,1,3.6c0.6,2.1,1.4,4,1.5,4.3
		c0.6,1.5,0.7,1.9,1,2.9c0.3,0.9,0.4,1.7,0.7,2.7c0.1,0.4,0.4,1.6,0.6,2.8c0.4,2.2,0.5,4,0.6,5.8c0.2,3.1,0.2,5.6,0.2,7
		c0,2.5-0.1,4.5-0.2,5.9c0,0.9-0.1,1.5-0.1,1.9c-0.1,1.2-0.1,1.6-0.4,4c-0.2,1.7-0.2,1.6-0.3,3.3c-0.1,1.1-0.1,1.4-0.2,2.3
		c-0.1,0.6-0.1,1.3-0.2,2.4c-0.1,0.9-0.1,1-0.1,1.6c-0.1,0.9-0.2,1.5-0.2,2c-0.1,0.9-0.2,1.7-0.3,3.3c-0.2,3-0.4,4.4-0.3,6
		c0,0.5,0.1,1.7,0.2,4.2c0,0.6,0.1,1.2,0.2,1.8c0.2,1.4,0.3,2.3,0.4,2.6c0.1,0.6,0.2,0.9,0.5,2.2c0.5,2.3,0.5,2.4,0.8,3.7
		c0.2,0.7,0.2,0.8,0.5,2c0.3,1.1,0.3,1.3,0.5,1.8c0.3,0.9,0.5,1.5,0.7,2.1c0.3,0.7,0.6,1.6,1.2,3.5c1,3.1,1.7,5.9,2.1,7.3
		c0.3,1.2,0.6,2.6,1,4.4c0.3,1.2,0.4,1.9,0.8,4.2c0.2,1,0.2,0.9,0.8,4.4c0.7,3.6,0.9,4.2,1.2,6.1c0.2,1.1,0.3,2.2,0.6,4.4
		c0.2,1.7,0.3,2.6,0.4,3.9c0.2,1.8,0.1,1.9,0.3,4.6c0.3,3.2,0.3,3.1,0.3,4c0,2.2-0.1,3.3-0.2,4.1c-0.2,0.8-0.4,1.6,0,1.9
		c0.2,0.2,0.5,0.1,1.3,0c0,0,0.6,0,1.8,0c2.6,0,5.3-0.1,7.9,0c3.5,0,5.2,0.2,5.6-0.7c0.1-0.2,0.1-0.8,0-1.9c0-0.5,0-0.9-0.1-1.5
		c-0.1-1.5-0.4-2.6-0.5-2.9c-0.2-0.7-0.4-1.2-0.4-1.4c-0.2-0.6-0.4-1.1-0.6-1.5c-0.3-0.4-0.6-0.8-0.8-1.1c-0.6-0.9-0.6-1.1-0.6-1.3
		c0-0.2,0-0.5,0-1c0-0.4,0.1-0.7,0.1-0.9c0.1-0.6,0.1-1,0.1-1.9c0-1.1,0-1.9,0-2.1c-0.1-2.1-0.1-3.2-0.1-4.3c0-1.5,0.1-2.7,0.3-5.1
		c0-0.5,0.1-1.2,0.2-2c0.1-1.1,0.2-2,0.3-2.5c0.1-0.6,0.1-1.1,0.1-1.3c0-0.1,0.1-0.5,0.1-1.2c0.1-0.8,0.2-1.4,0.2-1.6
		c0.3-2.5,0.3-3,0.4-3.6c0.2-1.7,0.4-3.2,0.6-5.3c0.1-0.7,0.2-1.5,0.2-2.6c0-0.6,0.1-1.7,0.2-3.2c0.1-2,0.2-3,0.2-4.2
		c0-0.6,0-1.3,0.1-2.3c0-0.8,0.1-1.3,0.1-1.6c0.1-1.8,0.1-2.9,0.2-5.3c0.1-3.1,0.2-2.6,0.2-4.4c0.1-2.4,0-4.4,0-5.6
		c-0.1-1.6-0.2-2.8-0.2-3.7c-0.2-2-0.4-3.7-0.5-4.6c-0.1-0.7-0.2-1.5-0.2-1.8c-0.1-0.8-0.2-1.4-0.3-2.3c-0.1-1-0.2-1.5-0.3-2
		c-0.2-1-0.3-1.8-0.3-2c-0.1-0.8-0.1-0.8-0.3-1.7c-0.2-1.1-0.3-1.6-0.4-2.3c-0.1-0.7-0.2-1.2-0.2-2c-0.1-0.9-0.1-1.6,0-2.5
		c0.1-0.6,0.1-1.1,0.2-1.8c0-0.2,0.1-0.6,0.3-1.4c0.1-0.5,0.1-0.5,0.2-0.7c0.1-0.4,0.2-0.8,0.4-1.8c0.1-0.3,0.1-0.6,0.3-1.8
		c0-0.2,0.1-1.1,0.3-2.2c0.1-1.3,0.2-2.3,0.2-2.9c0-1.1,0.1-1.9,0.1-2.4c0-0.8,0-1.5,0-2c0-0.6,0-1.5-0.1-2.7
		c-0.1-1.5-0.1-1.5-0.1-2.1c0-0.8,0.1-1.1,0.1-1.8c0-0.7-0.2-1.2-0.2-1.6c-0.2-1.2-0.1-1.2-0.2-3.9c0-1-0.1-2.1-0.2-3.4
		c-0.1-1.1-0.2-1.5-0.2-2.3c0-0.2-0.1-0.7-0.1-1.3c0,0,0-0.4,0-0.7c0-1.1,0.1-2.1,0.1-2.3c0.1-1.2,0.4-2.1,0.5-2.6
		c0.4-1.7,0.6-3.4,1.1-6.9c0.1-0.6,0.2-1.8,0.4-3.2c0.1-0.5,0.3-3,0.6-6.4c0.1-1.9,0.2-2.8,0.2-3.6c0-1-0.1-1.7,0-3.2
		c0-1.2,0.1-1.9,0.1-2.1c0.1-0.8,0.1-1.6,0.4-2.6c0.2-0.7,0.2-0.5,0.6-2.1c0.1-0.3,0.2-0.6,0.4-1c0.1-0.1,0.2-0.3,0.3-0.6
		c0.1-0.2,0.2-0.3,0.3-0.5c0.1-0.1,0.1-0.3,0.2-0.4c0.1-0.1,0.1-0.2,0.1-0.3c0-0.1,0.1-0.1,0.1-0.1s0,0,0-0.1c0-0.1,0.2-0.6,0.5-1.4
		c0.1-0.2,0.1-0.3,0.1-0.3c0,0,0-0.1,0.1-0.2c0,0,2.2,3.4,2.7,4.2c0,0,0,0,0,0c0.3,0.4,0.7,1.1,1,2.3c0.1,0.5,0.2,1.1,0.3,2.2
		c0,0.6,0.1,1,0.1,1.6c0,0.8,0,1.5,0.1,1.9c0,1.3,0,2.3,0,3.5c0,2.6,0,2.8,0,3c0.1,1.3,0.1,1.5,0.2,2.8c0,1.3,0,1.4,0.1,2.3
		c0.1,1.1,0.2,1.8,0.3,2.5c0.2,1.2,0.3,1.7,0.8,3.6c0.4,1.6,0.6,2.4,0.7,3.4c0.3,1.9,0.5,3.4,0.5,4.1c0.1,1.9,0.1,3.2,0.1,4.6
		c0,1.8-0.1,3.1-0.3,4.9c0,0.5,0,0.4-0.4,4.4c-0.2,2.3-0.3,2.8-0.3,3.6c-0.1,0.9-0.1,2-0.2,3.5c-0.1,1.8-0.1,3.2,0,3.6
		c0,1.1,0,1.9,0.1,2.1c0.1,1.5,0.2,2.6,0.2,3c0.1,0.7,0.1,1.2,0.2,1.4c0.1,0.8,0.2,1.4,0.2,1.7c0.1,0.4,0.2,1.1,0.3,1.9
		c0.1,0.6,0.1,0.6,0.3,1.3c0.1,0.5,0.2,0.9,0.3,1.4c0,0.2,0.1,0.6,0.2,1.2c0,0.2,0.1,0.6,0.1,1.2c0,0.2,0,0.5,0,0.8
		c0,0.1,0,0.4,0,0.9c0,1.1-0.1,2.1-0.1,2.3c-0.1,0.8-0.2,1.4-0.2,1.9c-0.1,0.6-0.2,1.1-0.3,2.1c-0.3,1.5-0.4,2.2-0.5,2.8
		c-0.3,1.4-0.4,2.4-0.5,3.8c-0.1,0.8-0.5,3.9-0.7,8.2c-0.1,2.8-0.1,5-0.1,6.7c0,2.6,0.1,4.6,0.1,6.6c0.1,1.7,0.1,3.9,0.3,6.8
		c0,0.5,0.2,4,0.6,7.1c0.2,1.9,0.3,2.2,0.3,2.5c0,0.2,0,0.4,0,0.4c0,1.8,0.7,6.1,0.7,6.1c0.1,0.8,0.3,2.3,0.6,5.3
		c0.2,2.3,0.5,4.3,0.6,7c0.1,1.6,0.2,3.4,0.3,5.8c0.1,3.1-0.1,2.5,0,5.2c0,1.1,0.1,1.7-0.1,2.7c-0.2,1.1-0.6,2.1-1,3.1
		c-0.4,1.1-0.6,1.4-0.9,2.4c-0.2,0.7-0.3,1.4-0.3,1.5c-0.1,0.6-0.2,1-0.2,1.3c-0.1,0.8-0.1,1.3-0.2,1.9c-0.1,1.8,0,1.5-0.1,2.2
		c-0.1,0.6-0.2,0.9,0,1.1c0.2,0.2,0.5,0.1,1.4,0.1c0.4,0,0.8,0.1,1.3,0c0.7-0.1,1.4,0,2.1,0c3.6,0,7.2,0,10.9,0c0.3,0,0.7,0,1,0
		c1.2,0,1.6,0,1.8-0.2c0.1-0.2,0-0.3-0.2-1c-0.1-0.4-0.1-0.9-0.2-1.9c0-0.4-0.1-0.8-0.1-1.1c0-0.4-0.1-1.1-0.1-1.9
		c0-1.2,0.1-2.2,0.1-3.2c0-0.5,0.1-1.2,0.1-1.3c0-0.1,0-0.6,0.1-1.3c0.1-0.8,0.1-1.3,0.1-1.4c0.1-0.9,0.2-1,0.2-1.7
		c0.1-0.7,0.1-0.9,0.1-1.6c0-0.4,0-0.5,0.3-3c0.2-1.3,0.2-1.9,0.3-2.4c0.2-1.2,0.1-0.9,0.3-2.4c0.1-0.7,0.1-1,0.2-1.5
		c0.1-0.7,0.2-1.3,0.3-1.4c0.4-1.8,0.8-4.8,1.4-8.4c0.4-2.1,0.6-3.3,1-5.1c0.4-1.4,0.6-2.2,1.2-4.5c0.4-1.8,0.4-1.7,0.6-2.4
		c0.3-1.2,0.6-1.8,1.4-4.1c0.3-0.9,1.4-4.5,2.6-9c0.4-1.7,0.8-3.1,1.1-5c0.2-1.6,0.3-2.8,0.4-4.1c0.1-2.1,0.4-6.3-0.2-10.7
		c-0.1-0.5-0.2-1.4-0.3-2.7c-0.1-1.5-0.2-2.5-0.2-3.8c0-1.1-0.1-2.5-0.3-5.4c-0.2-3-0.2-3.3-0.3-5.8c-0.1-1.2-0.1-1.7-0.2-3.9
		c-0.3-6.6-0.3-5.9-0.3-7.2c-0.1-4.3-0.2-6.5,0.2-8.6c0.4-2.1,1-4.2,1.3-5.4c0.6-2,1.2-3.8,1.3-4.1c0.4-1.1,0.5-1.2,0.7-2
		c0.5-1.4,0.8-2.6,1.2-4.4c0.6-2.6,1-4.7,1.2-6c0.6-3.3,0.9-5.9,1.1-7.3c0.4-3.2,0.6-5.6,0.9-8.3c0.4-4.1,0.6-7.3,0.6-8.4
		c0,0,0.1-1.5,0.3-6.8c0,0,0-0.6,0-1.3c0-0.6,0-0.9,0-1.2c0-0.7-0.1-0.7,0-0.9c0-0.1,0-0.1,0-0.2c-0.1-0.1-0.3,0-0.6,0
		c0,0,0,0-0.8,0c-0.8,0-2,0-2.1,0c-2.8,0-6-0.3-11.1,0c-0.3,0-0.2,0-0.5,0c-0.7,0-1.7,0-7.8,0c-3.7-0.2-6.5-0.1-8.5,0.1
		c-0.7,0-1.2,0.1-1.8,0.1c-1,0-1.9,0-3.7-0.1c-0.4,0-2.3-0.1-2.7-0.1c-0.1,0-0.2,0-0.2,0c-0.1,0-0.2,0-0.2,0c-0.3,0-0.6,0.1-1,0.1
		c-0.2,0-0.3,0-0.4-0.1c-0.2-0.1-0.2-0.2-0.4-0.5c-0.2-0.3-0.4-0.7-0.6-1c0-0.1-0.1-0.1-0.1-0.2c0,0.1,0,0.1-0.1,0.2
		c0,0,0,0.1-0.1,0.2c0,0.1,0,0.1-0.1,0.2c0,0,0,0.1,0,0.1c0,0,0,0.1-0.1,0.2c0,0,0,0.1-0.1,0.2c0,0,0,0.1-0.1,0.2
		c-0.1,0.3-0.2,0.5-0.2,0.6c-1.3,0-1.8,0-1.9,0c0,0,0,0,0,0c0,0-0.1,0-0.4,0c-0.4,0-0.4,0-0.7,0c-0.6,0-0.7,0-1.1,0
		c-0.2,0-0.3,0-0.6,0c-0.3,0-0.6,0-0.7,0c-0.4,0-1,0-2.1,0c-1.8,0-3.1,0-4.4,0c-0.1,0-0.2,0-0.4,0c-0.7,0-1.4,0-7,0c-6,0-12,0-18,0
		C33.7,270,32.7,270,31.8,270z"/>
</g>
<g>
	<path id="boqua" class="st3" d="M222.5,216.2c-0.2-0.1-1.8-1.2-1.8-1.2l0,0C220.8,215,221.4,215.4,222.5,216.2c0,0,1.7,1.5,2.8,3.6
		c0.1,0.3,0.4,0.7,0.6,1.2c0.2,0.5,0.3,0.8,0.3,0.9c0,0.1,0,0.4,0.1,0.5c0,0,0,0,0,0c0.2,0.1,1.7-3,3.5-4.9c1.7-1.8,3.4-2.5,3.4-2.5
		c0,0-1.9,0.8-3.4,2.5c-0.4,0.5-1.1,1.4-1.7,2.2c-0.6,0.9-0.9,1.4-1,1.6c-0.1,0.1-0.2,0.3-0.3,0.5c0,0-0.2,0.3-0.5,0.6
		c0,0,0.1,0.2,0.1,0.2c0,0,0,0.1,0.1,0.1c0.1,0.2,0.2,0.6,0.2,0.6c0.2,2.5,0.1,3,0.1,3c-0.1,1.3-0.2,2.6-0.2,2.6l0,0l0,0
		c0,0,0.5-3.5-0.2-6.5C225.7,219.4,223.8,217.1,222.5,216.2z"/>
	<path id="hinhnguoi" class="st3" d="M296.8,253c-1-4.3-1.9-8.7-2.2-13.2c-0.6-7.4,0.2-14.7,0.8-22c0.8-9.4,0.7-18.8-3.1-27.8
		c-0.8-1.8-1.8-3.9-1-6.1l-0.3-4.2c0.7-6.6,0.2-13.2-1-19.7c-1-5.8-3.9-11-4.8-16.8l-0.6-3.6c-0.4-8.5-0.5-16.9-5.1-24.6
		c-3.8-6.4-9.3-9.2-16.3-9.9c-2.4-0.2-4.4-0.9-6.5-2.2c-3.9-2.4-8.4-3.7-12.9-4.2c-2.6-0.3-3.5-1.5-3.9-3.7c-0.8-5-0.7-10,1.7-14.5
		c1.1-2.1,0.9-2.1,1.2-3.3c0.1-0.5,0.2-0.9,0.3-1c3.6-12.6,2.1-7.7,2.3-8.2c0.1-0.3,0.4-1.3,0.6-2.6c0-0.2,0.1-0.5,0.1-0.8
		c0.1-0.8,0-1.4,0-2.4c0-0.3,0-0.9,0-0.9c0,0,0.6,0.3,1.7,1c0.3,0.2,0.6,0.4,1,0.9c0.6,0.8,0.7,1.5,0.8,1.9c0,0.3,0.1,0.8-0.2,2.4
		c-0.4,1.8-0.8,3-1.2,4c-0.4,1-0.6,1.3-0.8,1.6c-0.5,0.7-1,1.1-1.6,1.5c-1.2,0.9-2.5,1.6-2.6,1.4c0,0,0,0,0.1-0.3
		c0.1-0.2,0.1-0.4,0.2-0.6c0.1-0.3,0.6-1.9,0.9-2.9c0.5-1.6,0.8-2.9,1.2-4.4c0.5-2,0.6-2.6,0.7-3.4c0.1-1.2,0-2.1,0-2.4
		c-0.4-5.2,2.3-13.5-0.9-20.9c-0.9-2.1-1.9-3.2-2.5-3.7c-1.7-1.7-4-2.6-6.6-3c-6.4-1-12.7-1.2-19.1,0.3c-4.6,1.1-7.2,4.1-8.4,8.4
		c-0.9,3.2-1.3,6.5-1.3,9.7c0,3.6,0.7,7,1.3,9.3c0.2,0.7,0.5,1.7,0.8,2.7c0.6,1.9,1.2,3.3,1.5,5.5c0,0.2,0,0.3,0.1,0.4
		c0.2,1.7,0.3,2.6,0.2,3.6c0,0,0,0,0,0c0,0.5,0,1.1,0.1,1.7c0,0,0,0.1,0,0.1c-1.3-0.5-2.2-1.1-2.7-1.6c-1-0.9-1.5-1.8-2.5-3.5
		c-0.8-1.4-1.2-2.4-1.4-3c-0.6-1.6-0.9-2.4-0.7-3.4c0.1-0.3,0.3-1.5,1.4-2.3c1.1-0.8,2.7-1,3.3-0.3c0.1,0.1,0.1,0.2,0.2,0.5
		c0.1,0.8,0.5,1.5,0.6,2.3c0.3,1.6,0.6,1.7,1.1,3.7c0.2,0.7,0.5,2.1,0.6,3.8c0.1,1.4,0.1,1.8,0.1,1.8c0,0.9-0.1,1.3,0.1,2
		c0,0.1,0,0,0.4,1.2c0.2,0.6,0.6,1.7,0.9,2.8c0,0,0,0,0,0c0.1,0.2,0.1,0.3,0.2,0.5c0.1,0.3,0.2,0.7,0.3,1c0,0,0,0.1,0,0.1
		c0.2,0.7,0.2,0.8,0.3,1c0,0.2,0.1,0.5,0.2,0.8c0.5,1,1.4,1.4,1.7,1.6c0.7,0.3,1.2,0.3,2.7,0.3c2.5,0,0.7,0.1,4.1,0.1
		c1.5,0,1.9,0,3.1,0c2.4,0,3.9,0,4.6,0c5,0.1,10.2-1.2,10.2-1.2s-5.6,1.2-10.2,1.2c-0.4,0-2.1,0-4.6,0c-1,0-1.6,0-2.4,0
		c-2.6,0.1-3.7,0-5.8,0c-0.8,0-1.4,0-2.1-0.5c-0.9-0.6-1.2-1.5-1.3-1.5c-0.2,0.1,0.7,1.9,1.1,3.9c0,0,0.7,3-0.6,9
		c-0.1,0.3-0.2,0.8-0.6,1.2c-0.6,0.5-1.4,0.5-2,0.6c-5.3,1.1-10.6,1.7-14.9,5.6c-1,0.9-2.9,0.7-4.4,0.9c-8,0.7-14.3,3.7-17.9,11.6
		c-2.4,5.2-3.3,10.4-3.8,15.9c-0.6,7.2-1.5,14.5-4.1,21.3c-2.6,6.6-3.3,13.6-3,20.7c0.3,6.8-0.3,13.5-2.7,20.1
		c-2.9,8-2.4,16.5-1.4,24.8c0.7,5.7,0.9,11.4,0.8,17.1c-0.1,6.2-1.6,12.1-2.7,18.1c-0.8,4.2,0.6,10.5,4.2,18.1l0.6,0.3
		c1.6,1.2,3.1,2.5,4.6,3.6c2.7-1.3,2.4-3.5,2.1-5.6c-0.3-2.4-0.4-4.7,0.1-7.1l-1-4.6c1,4.5,2.8,6,3.9,8.8c0.1,0.1,0.2,0.5,0.6,0.8
		c0.6,0.4,1.4,0.1,2.1,0.2c0.9-3.7-0.7-7.3-0.1-11c0.3-1.9,1.1-3.8,0.7-5.8c-0.7-4.2-2-8.2-3.2-12.3l0.3-0.6
		c0.5-0.3,0.3-0.9,0.3-1.3c-0.4-7.6,1.6-14.5,4.8-21.4c5.5-11.8,6.9-24.6,7.2-37.4c0.2-0.8,0.4-1.4,0.5-2c0,0,0.8-2.9,1.8-5.4
		c0,0,0.1-0.1,0.1-0.3c0.2-0.4,0.5-0.6,0.8-0.7c-0.5-3.7-0.9-6.9-1.1-9.4c0,0-0.6-5.7-0.7-9.7c0-0.3-0.1-2.2-0.1-3.8
		c0-0.2,0-0.8,0-1.6c0-0.7,0-1,0-1.4c0-0.9,0-1.7,0.1-2.6c0-1,0.1-1.9,0.1-1.9c0,0-0.2,3.4-0.2,3.8c-0.2,3.5-0.2,12.4,1.1,21
		c2.3,15.2,7.7,21.2,7.2,29.7c-0.2,2.7,0,5.5-0.1,8.2c-0.1,3.5-0.4,6.5,0.6,6.8c0.2,0.1,0.4,0,2-1.1c1.6-1,2.7-1.9,2.7-1.9
		c0,0-1.1,0.8-2.7,1.9c-0.4,0.2-0.7,0.4-0.9,0.6c-0.2,0.2-0.5,0.5-0.8,0.5c-0.2,0-0.2,0-0.3,0c-0.4,0.1-0.5,0.7-0.6,1.2
		c-0.1,0.6-0.4,1.2-0.5,1.8c-0.2,1.1-0.4,1.4-0.8,2.8c-0.8,2.6-2,7.6-2.1,7.9c-0.9,6.3-3.7,10.3-4.2,16.5c-0.9,10.6-1.4,21.3-1.4,32
		c0,8.6,1.2,17,1.8,25.5c0.6,8.5,3.6,16.6,5.6,24.9c1.5,6.2,2.2,12.7,2.2,19c0,6.1-1.5,12.3-2.1,18.4c-1,10.6-0.7,21.1,4.1,31.1
		c1.5,3,3,6.4,3.1,9.7c0.3,8.7,3.2,16.9,3.4,25.5c0,0.5-0.1,1.1,0,1.6c2.4,8.6,0.3,16.8-2.6,24.9c-0.8,2.2-1.6,4.2-3.8,5.6
		c-1.6,1-3.2,2.9-2.6,5c0.2,0.6,0.5,1,0.8,1.3c0.8,0.7,1.8,0.8,4.6,0.6c1.2-0.1,2.8-0.2,4.7-0.5c1.2,0.1,3,0.2,5.3,0.5
		c4.8,0.5,5.7,0.8,7.1,0.4c1.2-0.4,3.5-1.5,5.3-6.2c0.8-2.2,1.1-4,1.2-5.1c0.7-5.1-0.9-7.8-2.6-19.1c-0.2-1.7-0.6-3.1-0.8-5.1
		c-0.6-4.5-0.8-8.2-0.9-10.6c0-0.4,0-0.8,0-1.2c0.1-0.7,0.3-1.7,0.5-2.9c0,0,0.1-0.6,0.2-1.1c0.9-6.4,1.4-11.9,1.4-11.9
		c1.2-7.6,1.5-15.3,1.8-23c0.3-9-0.2-18-2.1-26.8c-0.6-3-1.1-6.1-0.2-9.4c0.9-3.4,1.5-7,1.5-10.6c-0.1-6.2-0.5-12.3-1.1-18.4
		c-0.5-5,0.4-10.2,1.2-15.2c1.1-6.5,1.8-13.1,1.9-19.7c0-3.3,0-6.7,0-10c0-1.4,0.1-2.8,0.8-3.9c-6.1,0.3-10.5-0.7-13.5-1.6
		c-2.9-0.9-5.6-2.2-5.6-2.1c0,0,2.4,1.2,5.6,2.1c3.2,1,5.6,1.3,6.7,1.4c2.2,0.3,1.7,0,4.4,0.3c0.8,0.1,1.5,0.2,2.5,0
		c1-0.2,1.7-0.7,2.2-1c0,0,0,0,0,0c0,0,0.4-0.4,0.8-0.8c0.3-0.3,1-3.8,0.8-8.6c0,0.3,0,0.7,0,1.3c0,2.2-0.1,4.3-0.1,4.5
		c-0.1,2.2-0.3,2.9,0.2,3.6c0.1,0.2,0.4,0.4,1.1,0.8c0.8,0.4,2,0.9,3.7,1.1c2.5-0.1,4.5-0.2,6.1-0.3c3.2-0.2,4.1-0.3,5.1-0.5
		c2.2-0.5,3.9-1.4,5-2.1c-1.1,0.7-2.8,1.6-5,2.1c-1.9,0.4-3.5,0.5-5.1,0.5c-1.3,0-3.2,0-5.9,0.2c-1.3,0.1-2.4,0.2-2.9,1
		c-0.3,0.6-0.1,1.3-0.1,1.5c-0.3,12.2,0.9,24.2,2.5,36.2c0.4,3.4,1.3,6.9,0.7,10.3c-1.5,7.9-1.6,15.7-0.6,23.6
		c0.4,3.1,1.8,6.4,1.4,9.4c-0.8,5.8-1.9,11.6-2.5,17.5c-1.1,10.2-0.1,20.3,0.6,30.4c0.7,10.7,3.9,21.1,2.2,32
		c-0.9,5.6-1.8,11.2-2.9,16.7c-0.8,4.3-0.6,8.4-0.4,12.6c0.1,1.9,1,4.1,1.9,5.8c1.8,3.1,4.9,3.2,8.3,2.7c4.2-0.6,8.3-2.3,12.6-0.4
		c0.8,0.3,1.9,0.1,2.9,0c3.3-0.4,4.2-2.2,2.2-4.8c-1.2-1.6-3.3-2.8-4.1-4.6c-3.4-7.3-6-14.9-4.9-23.2c0.4-2.8,0.8-5.6,1-8.4
		c0.6-8.3,3-16.3,3.5-24.6c0.2-3.3,1.8-6.1,3-9c1.7-4.2,3.5-8.5,4.1-13c0.9-7.3,0.9-14.7-0.6-22c-2.5-12.1-1.7-24,1.4-35.9
		c2.1-8,4.4-16,5.1-24.3c0.7-8.8,1.8-17.6,1.4-26.5c-0.1-1.8-0.3-3.7,0.3-5.5l-0.3-3.2c-0.2-4.5-0.3-9.1-0.7-13.6
		c-1-9.9-2.6-16.7-3.2-19.4c-2.3-9.3-4.5-13.1-6.1-15.5c-1.3-2-2.7-3.6-3.6-4.6c1.2,1.5,2.4,3.1,3.6,4.6c0.2,0.6,0.6,1.3,0.8,1.2
		c0.5-0.1-0.2-4.6-0.5-7.3c-0.9-9.7,1.9-18.6,3.6-23.2c1.4-3.7,2.2-7.7,3.2-11.4c0.2-0.6,0.3-1.3,0.4-2c0.3-1.2,2.6-9.2,3-16.4
		c0.1-1.9,0.1-5.2-0.1-8.8c-0.1-1.2-0.2-2.2-0.2-2.2c0,0,0.4,3.6,0.4,8.1c0,1.1,0,1.3,0,2.9c0,2.3,0,4.1,0.1,5.6
		c0.1,4.9,0.3,11.4,0.4,20.8c0,1.3,0,2.6,0,3.9c0.3,12.8,2.8,25.2,8.4,36.8c3.2,6.7,3.8,13.8,3.5,21c-0.1,1.7-0.6,3.5-1.3,5.2
		c-1.8,4.3-1.4,8.5-0.7,13c0.3,2.2,0,4.5-0.3,6.8c-0.1,0.9-0.5,1.7,0.1,2.6c0.2,0.1,0.4,0.1,0.5,0.2c0.5,0,0.9-0.1,1.2-0.2
		c2.1-0.8,2.5-3.8,2.5-4c0.9-2.6,1.8-5.2,2.6-7.9c-0.1,0.3-0.2,0.6-0.3,0.9c-0.2,0.7-0.4,1.4-0.5,2.1c-0.1,0.5-0.3,1-0.4,1.5
		c0,0,0.9,1.4,1.1,1.8c0.7,1.2,0.5,2.6,0.1,4.8c-0.4,2.3-1,3.4-1.1,5.7c0,0.6,0,1.4,0.5,2.1c0.3,0.4,0.9,0.8,1.7,1
		c0.9-1.2,2.2-2,3.6-2.8c1-0.6,2.1-1.3,2.6-2.5C296.5,265.3,298.3,259.5,296.8,253z"/>
	<g id="bo-qua_3_">
		<path d="M222,138.6c0,3-0.7,6-1.9,8.7c-0.6,1.4-1.3,2.7-2.3,3.9c-1,1.2-2,2.3-3.3,3.1c0,0,0,0-0.1,0c0,0,0,0,0-0.1
			c0.9-1.2,1.8-2.3,2.6-3.5c0.8-1.2,1.6-2.4,2.3-3.7C220.8,144.5,221.6,141.6,222,138.6C221.9,138.6,221.9,138.6,222,138.6
			C222,138.6,222,138.6,222,138.6z"/>
	</g>
	<g id="bo-qua_1_">
		<path d="M233.8,138.5c0.3,3.1,1.2,6,2.7,8.7c0.7,1.3,1.6,2.5,2.5,3.8c0.9,1.2,1.9,2.4,2.9,3.6c0,0,0,0,0,0.1c0,0,0,0-0.1,0
			c-1.3-0.8-2.5-1.9-3.5-3.1c-1-1.2-1.8-2.6-2.5-4C234.5,144.7,233.8,141.6,233.8,138.5C233.7,138.5,233.8,138.4,233.8,138.5
			C233.8,138.4,233.8,138.5,233.8,138.5z"/>
	</g>
	<path id="body-vung-dau" data-id="5" class="st3" d="M246.5,48.4c0.1,1.6,0,3.2-0.2,6.5c-0.2,3.1-0.4,3.5-0.5,6c-0.1,3.2,0.1,3.1-0.1,4.8
		c-0.1,0.9-0.6,2.5-1.5,5.8c-0.4,1.4-0.7,2.3-1.2,4.2c-1,3.6-1.2,3.9-1.3,4.2c0,0-0.8,1.6-1.3,2.8c-0.2,0.5-0.3,0.8-0.3,0.8
		c-0.2,0.7-0.1,0.8-0.3,1c-0.3,0.4-0.8,0.3-2,0.4c-0.5,0.1-0.4,0.1-1.4,0.3c-0.3,0.1-1.7,0.3-3.5,0.4c-1.4,0.1-2.5,0.1-3.8,0.1
		c-1.2,0-1.4,0-3.3,0c-1.3,0-1.2,0-2.5,0c-3,0-2.8-0.1-4.2,0c-1.1,0-1.5,0.1-2.3,0c-0.8-0.1-1.6-0.3-2.1-0.5
		c-1.4-0.6-2.1-2.4-2.8-6.1c-0.7-3.6-0.7-5.1-1.2-7.9c-0.5-3.1-1-4.1-1.7-6.9c-1-3.8-2.6-10.2-1.4-17.3c0.6-3.4,1.1-6.6,3.7-9.1
		c2.2-2.1,4.8-2.7,7.4-3.4c3.1-0.8,5.5-0.7,9.2-0.7c2.2,0,4.3,0.1,7.1,0.6c3,0.6,4.9,1,6.8,2.6c1.8,1.5,2.6,3.2,3.1,4.3
		C246.2,43.9,246.4,46.3,246.5,48.4z"/>
	<path id="body-vai-co-gay" data-id="6" class="st4" d="M280.7,117.6c0.8,2,1.8,4.7,2.5,8.5c0.3,1.8,0.5,3.2,0.6,4.6c0.3,2.4,0.4,4.6,0.4,5.2
		c0,4.8-7.4,9.5-13.5,11.5c-3.6,1.2-8.1,1.3-17,1.4c-4.6,0.1-5.6-0.1-13.3-0.1c-5,0-5.2,0.1-12.3,0.1c-9.5,0.1-14.7,0-27.2,0
		c0,0-6.3,0-6.4,0c-1.5,0-2.9-0.1-4.4,0c-0.5,0-0.8,0-1.2,0c-1.8-0.2-3-1.4-3.4-1.7c-3.7-3.5-14.4-5.1-15.6-11.1
		c-0.1-0.6,0.1-2.3,0.5-5.8c0.2-1.3,0.5-3.5,0.9-5.6c0.7-3.2,1.6-7.3,4.5-11.3c0.8-1.1,2.9-3.9,6.4-5.9c3.5-2,8.5-2.6,10.4-2.5
		c0.2,0,0.9,0.1,1.8-0.1c1.1-0.3,2-0.8,2.3-1.1c0.7-0.6,0.7-0.8,1.4-1.3c0.8-0.6,1.4-0.7,2.2-1c2.6-0.8,2.1-0.9,4.2-1.5
		c1.1-0.3,2.2-0.5,4.3-0.9c3.4-0.7,3.3-0.5,3.5-0.7c3.3-2.1,2.2-9.6,2.1-10.6c0,0,0,0,0-0.1c0-0.2-0.1-0.9-0.4-1.6c0,0,0,0,0,0
		c-0.3-0.7-0.6-1.6-0.5-1.6c0.1,0,0.3,0.3,0.6,0.6c0.6,0.5,1.3,0.7,2.8,0.7c1.3,0.1,2.4,0,2.7,0c0.1,0,2,0,5.8,0c4.3,0,3.6,0,5,0
		c0,0,3.9,0,6.4-0.4c0.4-0.1,0.6-0.1,1.3-0.2c0.4-0.1,0.5-0.1,0.8-0.2c0.5-0.2,0.7-0.4,0.8-0.4c0.1,0.1-0.1,0.5-0.2,0.6
		c-0.2,0.4-0.3,1.2-0.4,2.7c0,0.7-0.1,1.9,0,3.5c0,0.6,0,0.3,0.2,2.1c0.1,1.6,0.1,1.9,0.3,2.4c0,0.1,0.4,1.1,1.2,1.8
		c1,0.9,2,0.8,4.4,1.2c0.6,0.1,2.7,0.5,5,1.2c1.1,0.4,2.4,0.8,3.9,1.6c1.4,0.7,1.7,1.1,3.4,1.9c0.7,0.3,1.5,0.7,2.6,1
		c0.9,0.3,1.3,0.3,3.1,0.5c2,0.3,3,0.5,4.1,0.8c1.6,0.4,2.8,1,3.4,1.3c0.9,0.4,2.5,1.3,4.2,2.7c0.2,0.2,1.3,1.1,2.4,2.5
		c0.5,0.7,1.3,1.6,2.1,2.9C280.1,116.1,280.4,116.8,280.7,117.6z"/>
	<path id="body-lung" data-id="7" class="st4" d="M266.7,169.5c-0.5,2.2-0.6,2.9-1.1,4.9c-0.5,2-0.8,3.4-1.3,5.2c-0.3,1-0.9,2.9-2.2,6.7
		c0,0-0.7,2-1.1,3.7c-0.2,0.8-0.3,1.1-0.3,1.2c0,0.5,0,0.9-0.2,1c-0.1,0.1-0.3,0-0.6,0c-0.4-0.1-0.8,0-1.2,0c-1.2,0-2.4,0-3.6,0
		c-9.5,0-18.9,0-28.4,0c-2.3,0-30.3,0-30.5,0c-1.5,0-1.5,0-1.5,0c-0.5,0-0.6,0.1-0.7,0c-0.4-0.3,0-1.1-0.1-2.3
		c-0.1-0.6-0.2-0.7-0.8-2.4c-0.3-1-0.4-1.4-0.7-2.2c-0.7-2.3-1.7-4.9-2-5.8c-1.6-4.4-2.5-8.7-2.7-9.5c-0.2-0.8-0.6-3.7-1.3-9.5
		c-0.2-1.8-0.4-3.2-0.5-5.1c-0.1-1.1-0.2-3.2-0.2-4.3c0-0.9,0-1,0-1.4c-0.1-0.4-0.2-0.7,0-0.9c0.2-0.3,0.9-0.1,1-0.1
		c1.8,0.4,3.6-0.1,5.5,0c1.6,0.1,3.3,0,5,0c3.7,0,6,0,9.1,0c6.9,0,13.7,0,20.6,0c11.8,0,23.6,0,35.4,0c1.1,0,2.2,0,3.3,0
		c1,0,1.9,0,2.9,0c0.4,0,0.7,0.1,1.1,0c0.2,0,0.3-0.1,0.4,0c0.2,0.1,0.2,0.5,0.1,0.9c0,0.5,0,1-0.1,1.5c-0.3,1.5-0.1,4-0.8,8.2
		c-0.3,2-0.7,3.6-1.4,6.4C267.2,167.3,267.1,167.7,266.7,169.5z"/>
	<path id="body-eo-that-lung" data-id="8" class="st4" d="M259.8,209.3c0.1,1,0.1,0.8,0.1,1.2c0.1,1.7-0.1,2.1,0.1,3c0.2,0.7,0.5,1,1,1.9
		c0.4,0.6,0.4,0.7,2,4.4c0.6,1.4,1.6,3.7,1.2,3.9c0,0-0.1,0-0.5,0c-0.2,0-0.3,0-0.5,0c-2,0-4,0-6,0c-4.9,0-9.8,0-14.8,0
		c-6.2,0-12.4,0-18.6,0c-10.5,0-21,0-31.6,0c-0.4,0-0.8,0-1.1,0c-0.3,0-0.5,0.1-0.6,0c-0.2-0.2,0.2-0.9,0.3-1.1
		c0.8-1.5,0.4-2.7,2-7.2c0.4-1.3,0.7-2.6,1.2-3.9c0.1-0.2,0.2-0.6,0.3-1.2c0-0.8-0.2-1.4-0.4-1.8c-0.4-1-0.2-1.8,0-3.1
		c0.2-1.7,0.4-5.4,0.1-8.7c-0.2-2.4-0.7-4,0-4.5c0.3-0.2,0.6,0,2,0.1c1,0.1,1.3,0,2.8-0.1c1.3-0.1,2.1,0,3.2,0c0.9,0,7.9,0,21.9,0
		c5.6,0,9.1,0,10.9,0c7.2,0,6.8,0,10.2,0c5.9,0,6.1,0,7.2,0c0.5,0,2.3,0.1,4.3,0c0.3,0,0.5,0,0.8,0c1,0,1.4,0,1.9,0
		c0.4,0,0.4,0,0.6,0c0.4,0,0.6-0.1,0.7,0c0,0.1,0,0.1-0.1,0.3c-0.1,0.2-0.1,0.5-0.1,0.6c0,0.1-0.1,0.3-0.1,0.6
		c-0.1,0.5-0.2,0.9-0.2,1.1c-0.3,2.6-0.5,3.9-0.5,5c0,0.4-0.1,1.6-0.1,3c0,1.8,0.1,2.8,0.1,3c0,0.4,0,0.3,0.1,0.8
		C259.6,207.7,259.7,208.1,259.8,209.3z"/>
	<path id="body-mong" data-id="9" class="st4" d="M268.5,246.9c0,0.4,0.1,0.7,0.1,1.3c0,0.4,0.1,0.6,0.1,0.8c0.1,0.9,0.1,1.6,0.1,2.1
		c0,1.5,0.1,1.5,0.2,3.7c0,1.6,0,1.6,0,3c0.1,3.5,0.5,3.6,0.5,6.3c0,2.8-0.5,2.7-0.2,4.3c0.1,0.6,0.3,1.6-0.1,1.9
		c-0.2,0.1-0.3,0-0.9,0c-0.5,0-0.9,0-1.4,0c-0.6,0-1.3,0-1.9,0c-2,0-4,0-6,0c-5,0-9.9,0-14.9,0c-7.4,0-14.9,0-22.3,0
		c-7.5,0-15.1,0-22.6,0c-3.1,0-6.2-0.2-9.3,0c-1,0-2-0.1-3,0c-1,0.1-1.8,0.2-2.1-0.2c-0.1-0.2,0-0.3,0-0.9c0-0.6,0-0.7,0-1.5
		c0-1.7,0.2-6.3,0.2-7.6c0,0,0.1-2.7,0.2-4.9c0-0.4,0-0.8,0-0.8c0-0.6,0.1-1.5,0.1-2.6c0-0.4,0.1-1.2,0.1-2.2c0-0.7,0.1-2.1,0.3-4.1
		c0.1-1.2,0.1-2,0.2-2.6c0.1-1.7,0.2-2.6,0.2-3c0.2-1.6,0.5-2.8,0.7-3.6c0.2-1,0.7-2.3,1.6-4.9c1-2.9,1-3,1.2-3.6
		c0.1-0.6,0.3-1.2,0.6-2.4c0.3-1,0.4-1.3,0.6-1.5c0.4-0.2,0.7,0,2.2,0.1c1.1,0.1,1.5,0,3.1-0.1c1.4-0.1,2.3,0,3.5,0
		c1,0,8.7,0,24.2,0c6.2,0,10.1,0,12.1,0c7.9,0,7.5,0,11.3,0c6.5,0,6.8,0,8,0c0.6,0,2.5,0.1,4.8,0c0.3,0,0.5,0,0.9,0
		c1.1,0,1.6,0,2.1,0c0.3,0,0.3,0,0.5,0c0.4,0,0.7-0.1,0.8,0c0.1,0.1,0.1,0.2,0.1,0.2c0.1,0.6,0.3,1.1,0.5,1.7
		c0.1,0.5,0.2,0.7,0.4,1.2c0.3,0.8,0.6,2.1,1.3,5.6c0.4,1.8,0.6,2.9,0.8,4.4c0.1,0.8,0.4,2.1,0.6,3.9c0.2,1.6,0.2,1.8,0.6,4.6
		C268.4,246,268.4,246.3,268.5,246.9z"/>
</g>
</svg>
