<?xml version="1.0" encoding="utf-8"?>
<!-- Generator: Adobe Illustrator 27.0.1, SVG Export Plug-In . SVG Version: 6.00 Build 0)  -->
<svg version="1.1" id="Layer_1" xmlns="http://www.w3.org/2000/svg" xmlns:xlink="http://www.w3.org/1999/xlink" x="0px" y="0px"
	 viewBox="0 0 40 40" style="enable-background:new 0 0 40 40;" xml:space="preserve">
<style type="text/css">
	.st0{fill:#FFFFFF;stroke:#7B7C7F;stroke-miterlimit:10;}
	.st1{fill:#FFFFFF;}
	.st2{fill:#7B7C7F;}
</style>
<path id="t" class="st0" d="M7.8,7.8L14,14c3.4-3.4,8.8-3.4,12.1,0l6.2-6.2c0.7-0.9,0.7-2.3-0.2-3C25-0.8,14.9-0.8,7.9,4.8
	C7,5.5,6.9,6.9,7.8,7.8z"/>
<path id="r" class="st0" d="M32.2,7.8L26,14c3.4,3.4,3.4,8.8,0,12.1l6.2,6.2c0.8,0.8,2.2,0.8,2.9-0.1c5.6-7.1,5.6-17.2,0-24.2
	C34.4,7,33,6.9,32.2,7.8z"/>
<path id="b" class="st0" d="M32.2,32.2L26.1,26c-3.4,3.4-8.8,3.4-12.1,0l-6.2,6.2C7,33,7,34.4,7.9,35.1c7.1,5.6,17.2,5.6,24.2,0
	C33,34.4,33.1,33,32.2,32.2z"/>
<path id="l" class="st0" d="M7.8,32.2L14,26c-3.4-3.4-3.4-8.8,0-12.1L7.8,7.7C7,6.9,5.6,6.9,4.8,7.9c-5.6,7.1-5.6,17.2,0,24.2
	C5.6,33,7,33,7.8,32.2z"/>
<path id="c" class="st1" d="M20,11.4c4.7,0,8.6,3.9,8.6,8.6s-3.9,8.6-8.6,8.6s-8.6-3.9-8.6-8.6c0-3,1.5-5.6,3.8-7.2c0.1-0.1,0.3,0,0.5-0.1
	c0.3-0.2,0.6-0.5,0.9-0.6C17.6,11.7,18.8,11.4,20,11.4z"/>
<path class="st2" d="M20,29.1c-5,0-9.1-4.1-9.1-9.1s4.1-9.1,9.1-9.1s9.1,4.1,9.1,9.1S25,29.1,20,29.1z M20,11.9
	c-4.5,0-8.1,3.6-8.1,8.1c0,4.5,3.6,8.1,8.1,8.1c4.5,0,8.1-3.6,8.1-8.1C28.1,15.5,24.5,11.9,20,11.9z"/>
</svg>
