<?xml version="1.0" encoding="utf-8"?>
<!-- Generator: Adobe Illustrator 27.5.0, SVG Export Plug-In . SVG Version: 6.00 Build 0)  -->
<svg version="1.1" baseProfile="tiny" id="Layer_1" xmlns="http://www.w3.org/2000/svg" xmlns:xlink="http://www.w3.org/1999/xlink"
	 x="0px" y="0px" width="40px" height="90px" viewBox="0 0 40 90" overflow="visible" xml:space="preserve">
<path id="root" fill="#DCDDDE" d="M32.47,37.42c-0.56,0.09-1.18,0.18-1.96,0.44c-0.76,0.25-1.04,0.44-1.31,0.63c-0.29,0.21-0.6,0.42-1.35,0.59
	c-0.52,0.11-0.78,0.11-2.27,0.08l-1.97-0.02c-0.36-0.01-0.65,0.02-0.88,0.05c-0.52,0.07-0.74,0.18-1.28,0.27
	c-0.34,0.05-0.64,0.07-0.87,0.07c-0.31,0-0.62,0.01-0.93,0.01c-0.52-0.58-1.03-0.88-1.38-1.03c0,0-0.91-0.4-3.02-0.47
	c-0.32-0.01-0.46,0-0.89,0.01c-0.3,0.01-0.76,0.02-1.52,0.04h-0.14c-1.59,0.04-2.25,0.05-2.51,0.02c-1.48-0.18-2.78-0.69-3.86-1.53
	c-0.18-0.14-0.35-0.28-0.5-0.42c-0.01,0.17,0,0.35,0.05,0.53c-0.73,5.75-0.77,11.49-0.14,17.08c0.16,1.45,0.25,1.79,0.53,2.92
	c0.35,1.37,0.98,3.91,2.43,11.09c0.04,0.2,1.04,5.08,3.77,10.76l0.07,0.16c0.42,0.88,1.28,2.69,3.2,3.77
	c0.36,0.21,1.27,0.73,2.22,0.73c0.35,0,0.7-0.07,1.03-0.25c0.25-0.14,0.53-0.38,0.79-0.92c0.26-0.53,0.49-1.37,0.61-2.72
	c0.16-1.9,0-3.84-0.46-5.79c-0.65-2.54-1.1-5.12-1.35-7.64c-0.21-2.11-0.52-5.29,0-9.37c0.19-1.48,0.47-2.94,0.83-4.38
	c0.33,1.14,0.77,2.51,1.3,3.95c0.9,2.46,1.5,3.69,1.95,4.58c0.45,0.91,0.72,1.46,0.99,2.68c0.26,1.15,0.24,1.62,0.19,2.64
	c-0.05,1.02-0.13,2.55,0.04,5.72c0.19,3.58,0.5,5.66,1.81,7.73c0.74,1.18,1.65,2.63,2.88,2.63h0.12c0.66-0.06,2.41-0.23,4.43-12.73
	c0.37-2.29,0.74-4.61,1.05-7.21c0.3-2.62,0.53-5.52,0.61-8.96c0.13-5.46-0.13-10.75-0.78-16.13C33.53,37.24,33.02,37.34,32.47,37.42
	z"/>
<path fill="#4A515A" d="M33.96,36.51l-0.07-0.49l-7.43,0.21c-1.73-0.23-3.96-0.52-6.58-0.82l-0.48-0.05l-0.11,0.47
	c-1.3,5.19-1.43,10.03-0.39,14.36c0.3,1.27,0.94,3.49,1.82,5.89c0.9,2.46,1.5,3.69,1.95,4.58c0.45,0.91,0.72,1.46,0.99,2.68
	c0.26,1.15,0.24,1.62,0.19,2.64c-0.05,1.02-0.13,2.55,0.04,5.72c0.19,3.58,0.5,5.66,1.81,7.73c0.74,1.18,1.65,2.63,2.88,2.63h0.12
	c0.66-0.06,2.41-0.23,4.43-12.73c0.37-2.29,0.74-4.61,1.05-7.21c0.3-2.62,0.53-5.52,0.61-8.96C34.92,47.52,34.65,42.07,33.96,36.51z
	 M33.69,53.14c-0.16,6.81-0.91,11.49-1.64,16.01c-1.87,11.53-3.39,11.81-3.44,11.81c-0.59,0.06-1.43-1.25-1.98-2.11
	c-1.18-1.89-1.46-3.75-1.64-7.21c-0.17-3.11-0.09-4.61-0.04-5.6c0.05-1.06,0.08-1.65-0.21-2.94c-0.31-1.35-0.63-2.01-1.09-2.92
	c-0.43-0.88-1.02-2.07-1.89-4.48c-0.87-2.36-1.5-4.52-1.8-5.77C19,45.9,19.1,41.41,20.24,36.56c2.4,0.28,4.46,0.55,6.17,0.77
	l6.51-0.19C33.57,42.48,33.82,47.72,33.69,53.14z M18.59,65.88c-0.21-2.11-0.52-5.29,0-9.37c0.27-2.14,0.73-4.25,1.36-6.29L20,50.08
	l-0.04-0.15c-0.99-4.16-0.86-8.81,0.39-13.84l0.15-0.6l-1.35-0.17C9.51,34.19,6.6,34.1,5.94,35.71c-0.12,0.31-0.14,0.64-0.05,0.98
	c-0.73,5.75-0.77,11.49-0.14,17.08c0.16,1.45,0.25,1.79,0.53,2.92c0.35,1.37,0.98,3.91,2.43,11.09c0.04,0.2,1.04,5.08,3.77,10.76
	l0.07,0.16c0.42,0.88,1.28,2.69,3.2,3.77c0.36,0.21,1.27,0.73,2.22,0.73c0.35,0,0.7-0.07,1.03-0.25c0.25-0.14,0.53-0.38,0.79-0.92
	c0.26-0.53,0.49-1.37,0.61-2.72c0.16-1.9,0-3.84-0.46-5.79C19.29,70.98,18.84,68.4,18.59,65.88z M19.3,79.21
	c-0.19,2.25-0.69,2.7-0.83,2.78c-0.46,0.24-1.19,0.09-2.18-0.48c-1.62-0.91-2.38-2.51-2.74-3.28l-0.08-0.17
	c-2.67-5.54-3.67-10.45-3.68-10.5c-1.45-7.2-2.09-9.76-2.44-11.13c-0.28-1.11-0.35-1.4-0.5-2.78C6.21,48.11,6.26,42.41,7,36.72
	l0.01-0.12l-0.04-0.12c-0.04-0.14-0.05-0.27-0.01-0.36c0.16-0.39,1.13-0.53,2.54-0.53c2.5,0,6.39,0.46,9.53,0.83l0.11,0.01
	c-1.14,4.91-1.24,9.49-0.28,13.61c-0.63,2.05-1.09,4.18-1.37,6.33c-0.52,4.21-0.21,7.46,0,9.61c0.26,2.59,0.72,5.22,1.38,7.81
	C19.31,75.61,19.45,77.43,19.3,79.21z"/>
<path id="face" fill="#D8EFF4" d="M38.56,17.09l-0.09-0.3c-0.19-0.61-1.99-6.06-7.04-7.53c-1.31-0.38-2.61-0.47-3.89-0.27
	c-0.62,0.1-0.93,0.23-1.4,0.41c-0.37,0.15-0.83,0.33-1.66,0.59c-1,0.31-1.64,0.46-2.15,0.57c-0.67,0.15-1.16,0.26-1.87,0.63
	c-0.67,0.35-1.31,0.81-1.89,1.38c-0.33-0.69-0.77-1.34-1.38-1.9c-1.24-1.15-2.65-1.45-3.79-1.69c-3.13-0.65-5.28,0.1-6.54,0.84
	c-0.81,0.48-1.45,1.15-2.77,2.49c-1.06,1.1-1.77,1.82-2.26,2.58c-1.33,2.09-0.9,4.89-0.05,10.5c0.11,0.66,0.41,2.46,0.99,4.68
	c0.67,2.54,1.22,3.86,2.12,5.03c0.26,0.34,0.71,0.91,1.45,1.48c1.08,0.84,2.38,1.35,3.86,1.53c0.26,0.03,0.92,0.02,2.51-0.02h0.14
	c0.76-0.02,1.22-0.03,1.52-0.04c0.43-0.01,0.57-0.02,0.89-0.01c2.11,0.07,3.02,0.47,3.02,0.47c0.35,0.16,0.86,0.45,1.38,1.03
	c0.31,0,0.62-0.01,0.93-0.01c0.22,0,0.52-0.02,0.87-0.07c0.54-0.08,0.76-0.2,1.28-0.27c0.23-0.03,0.53-0.06,0.88-0.05l1.97,0.02
	c1.49,0.03,1.75,0.03,2.27-0.08c0.75-0.17,1.06-0.38,1.35-0.59c0.27-0.19,0.55-0.38,1.31-0.63c0.78-0.26,1.4-0.35,1.96-0.44
	c0.88-0.13,1.64-0.25,2.4-0.94c0.4-0.36,0.62-0.77,0.98-1.45c0.83-1.53,1.39-3.18,2.01-5.93c0.32-1.44,0.51-2.3,0.69-3.52
	C38.97,22.49,39.34,19.83,38.56,17.09z"/>
<path fill="#A3DBDF" d="M28.68,15.13c-1.43,1.62-3.31,0.61-6.2,2.22c-1.74,0.97-2.66,2.23-3.87,3.9c-1.89,2.6-4.13,5.69-3.72,9.65
	c0.49,4.67,4.35,7.48,5.21,8.08c2.94-0.49,4.84-0.5,6.07-0.39c0.46,0.04,1.22,0.13,2.15-0.15c1.04-0.31,1.34-0.78,2.4-1.22
	c1.2-0.5,1.88-0.32,2.54-0.49c2.05-0.51,2.88-4.02,3.68-7.49c0.81-3.54,1.56-7.01,0.78-11.47c-0.59-3.35-1.6-4.75-2-5.25
	c-1.52-1.93-4.23-3.71-5.54-2.93C28.8,10.4,30.39,13.18,28.68,15.13z"/>
<path fill="#4A515A" d="M21.45,39.46c0.54-0.08,0.76-0.2,1.28-0.27c0.23-0.03,0.53-0.06,0.88-0.05l1.97,0.02
	c1.49,0.03,1.75,0.03,2.27-0.08c0.75-0.17,1.06-0.38,1.35-0.59c0.27-0.19,0.55-0.38,1.31-0.63c0.78-0.26,1.4-0.35,1.96-0.44
	c0.88-0.13,1.64-0.25,2.4-0.94c0.4-0.36,0.62-0.77,0.98-1.45c0.83-1.53,1.39-3.18,2.01-5.93c0.32-1.44,0.51-2.3,0.69-3.52
	c0.42-3.09,0.79-5.75,0.01-8.49l-0.09-0.3c-0.19-0.61-1.99-6.06-7.04-7.53c-1.31-0.38-2.61-0.47-3.89-0.27
	c-0.62,0.1-0.93,0.23-1.4,0.41c-0.37,0.15-0.83,0.33-1.66,0.59c-1,0.31-1.64,0.46-2.15,0.57c-0.67,0.15-1.16,0.26-1.87,0.63
	c-0.67,0.35-1.31,0.81-1.89,1.38c-0.33-0.69-0.77-1.34-1.38-1.9c-1.24-1.15-2.65-1.45-3.79-1.69c-3.13-0.65-5.28,0.1-6.54,0.84
	c-0.81,0.48-1.45,1.15-2.77,2.49c-1.06,1.1-1.77,1.82-2.26,2.58c-1.33,2.09-0.9,4.89-0.05,10.5c0.11,0.66,0.41,2.46,0.99,4.68
	c0.67,2.54,1.22,3.86,2.12,5.03c0.26,0.34,0.71,0.91,1.45,1.48c1.08,0.84,2.38,1.35,3.86,1.53c0.26,0.03,0.92,0.02,2.51-0.02h0.14
	c0.76-0.02,1.22-0.03,1.52-0.04c0.43-0.01,0.57-0.02,0.89-0.01c2.11,0.07,3.02,0.47,3.02,0.47c0.35,0.16,0.86,0.45,1.38,1.03
	c0.31,0,0.62-0.01,0.93-0.01C20.81,39.53,21.11,39.52,21.45,39.46z M37.46,25.42c-0.17,1.18-0.36,2.03-0.68,3.47
	c-0.6,2.64-1.11,4.17-1.89,5.62c-0.36,0.65-0.51,0.93-0.76,1.16c-0.51,0.47-1.01,0.54-1.83,0.67c-0.56,0.08-1.27,0.19-2.13,0.47
	c-0.92,0.31-1.29,0.57-1.6,0.78c-0.25,0.18-0.42,0.3-0.96,0.42c-0.37,0.08-0.55,0.08-2.02,0.05l-1.96-0.02
	c-0.54,0-1.36,0.05-2.47,0.36c-0.28,0.08-0.55,0.17-0.81,0.27c-0.48-0.48-1.01-0.87-1.6-1.15c-1.06-0.51-2.07-0.54-3.45-0.58h-0.34
	c-0.17,0-0.34,0-0.62,0.01c-0.31,0.01-0.76,0.02-1.52,0.04h-0.14c-1.31,0.03-2.17,0.05-2.35,0.03c-1.28-0.15-2.39-0.59-3.32-1.31
	c-0.63-0.48-1-0.97-1.25-1.28c-0.68-0.89-1.22-1.94-1.92-4.64c-0.57-2.17-0.87-3.92-0.98-4.61c-0.8-5.3-1.21-7.96-0.1-9.69
	c0.43-0.67,1.07-1.33,2.14-2.43c1.23-1.26,1.84-1.89,2.52-2.29c1.09-0.65,2.97-1.29,5.75-0.71c1.11,0.23,2.26,0.47,3.27,1.41
	c1.72,1.6,1.92,4.2,2.04,5.75l0.02,0.2c0.04,0.51,0.08,1.03,0.02,1.51c-0.08,0.57-0.15,1.2-0.18,1.89c-0.01,0.34-0.04,0.42-0.24,0.6
	c-0.99,0.93-2.69,2.1-2.8,2.17c-0.25,0.16-0.61,0.44-1.06,0.79l0.68,0.86c0.41-0.32,0.75-0.58,0.97-0.72l-0.01-0.02
	c0.81-0.44,2.79-2.1,2.97-2.27c0.02-0.02,0.03-0.03,0.05-0.04c0.21,0.44,0.53,0.87,0.94,1.26c0.54,0.5,1.14,0.89,1.73,1.26
	c0.2,0.12,0.42,0.26,0.69,0.36c0.13,0.04,0.26,0.07,0.4,0.1c0.1,0.03,0.2,0.05,0.3,0.09l0.42-1.02c-0.16-0.06-0.32-0.1-0.49-0.14
	c-0.09-0.02-0.18-0.04-0.27-0.07c-0.15-0.05-0.3-0.15-0.46-0.25c-0.54-0.35-1.1-0.7-1.56-1.13c-0.33-0.31-0.75-0.81-0.89-1.43
	c-0.05-0.23-0.11-0.38-0.19-0.61c-0.02-0.04-0.04-0.08-0.06-0.11c0.03-0.51,0.09-0.99,0.15-1.43c0.07-0.6,0.03-1.18-0.02-1.73
	l-0.01-0.2c-0.08-0.92-0.17-2.18-0.57-3.45c0.6-0.64,1.25-1.16,1.96-1.53c0.58-0.3,0.94-0.38,1.59-0.53
	c0.54-0.11,1.2-0.26,2.25-0.59c0.87-0.27,1.37-0.47,1.73-0.61c0.45-0.18,0.67-0.27,1.18-0.35c1.11-0.18,2.25-0.1,3.4,0.23
	c4.58,1.33,6.23,6.58,6.3,6.8l0.09,0.31C38.22,19.91,37.87,22.46,37.46,25.42z"/>
<path fill="#FFFFFF" d="M6.92,20.61c0.17,1.21-0.65,2.78-1.59,2.99c-0.96,0.21-1.81-1.08-1.63-2.38c0.16-1.14,1.06-2.24,1.81-2.27
	C6.08,18.93,6.78,19.66,6.92,20.61z M13.19,12.55c-0.13-0.12-0.77-0.67-1.84-0.87c-1.37-0.26-2.48,0.26-3.1,0.55
	c-1.48,0.69-2.23,1.72-2.82,2.54c-0.71,0.98-0.73,1.42-0.71,1.66c0.07,0.87,0.83,1.41,1.01,1.54c0.11,0.08,0.87,0.61,1.79,0.46
	c0.02,0,0.04-0.01,0.06-0.01c0.84-0.15,1.4-0.69,1.65-0.98c0.04-0.05,0.07-0.09,0.1-0.13c1.15-1.46,1.37-2.76,2.37-3.12
	c0.43-0.16,0.9-0.1,1.16-0.06c0.8,0.11,1.15,0.48,1.3,0.34C14.38,14.28,13.97,13.24,13.19,12.55z"/>
</svg>
