<?xml version="1.0" encoding="UTF-8"?>
<svg id="Layer_4" data-name="Layer 4" xmlns="http://www.w3.org/2000/svg" viewBox="0 0 40 90">
  <defs>
    <style>
      .cls-1 {
        fill: #dcddde;
        stroke: #495059;
        stroke-miterlimit: 10;
      }

      .cls-2 {
        fill: #495059;
      }

      .cls-3 {
        fill: #fff;
      }

      .cls-4 {
        fill: #a0e1e3;
      }

      .cls-5 {
        fill: #d7f0f5;
      }
    </style>
  </defs>
  <path id="face" class="cls-5" d="M2.18,22.73c.1-1.8,.2-3.3,.3-4.5,.2-2.3,.4-3.2,.7-4.1s.7-1.6,1.1-2c.5-.6,1.2-1.4,2.2-2.2,1.1-.8,3.2-2.3,5.8-2.1,1.1,.1,2.1,.4,2.6,.6,.2,.1,.5,.2,.7,.3s.3,.2,.6,.3q.7,.4,1,.6c.5,.3,1,.4,1.2,.5,.1,0,.4,.1,.7,.1,.7,.1,1.3,0,1.7,0,1.4-.1,1.4,0,3.1-.2,.4,0,.8-.1,1.4-.2,.5-.1,.9-.2,1-.3,.2-.1,.5-.2,1.2-.5,1.2-.5,1.1-.6,1.7-.8,.7-.2,1.2-.3,1.4-.3,0,0,.7,0,1.3,.1,1.5,.4,2.6,1.8,3.3,2.7,1,1.2,1.5,2.4,1.6,2.6,1.2,2.8,1.1,5.5,1,8.8-.3,5.9-1.8,9.3-2.2,10.1-.1,.1-.5,.9-1,1.7s-.8,1-.8,1.2c-.1,.1-.3,.4-.6,.6l-.3,.3c-.1,.1-.2,.3-.4,.4,0,0-.2,.1-.3,.2-.4,.2-.6,0-1,.1-.1,0-.3,.1-.5,.2-.2,.1-.6,.4-1.1,.5-1.3,.5-2.7,.4-4.6,.3,0,0-.8-.1-1.7,.1-.2,0-.5,.1-.9,.3-.3,.1-.3,.2-.6,.3-.6,.3-1.1,.2-1.2,.1-.3-.1-.5-.2-.7-.3-.4-.3-.5-.5-.8-.8s-.6-.4-1.1-.5c-1.3-.4-3.2-.5-3.5-.5h-2.1c-1.5,.3-1.7,.3-2.4,.3-1-.1-1.8-.3-2.2-.5-.3-.1-.8-.3-1.3-.6-.3-.2-1.2-.9-2.3-3.6-.2-.5-.8-2-1.4-5.2-.3-1.7-.5-3.2-.6-4.1Z"/>
  <path class="cls-4" d="M28.39,8.67c-1.6,1.16-.8,2.99-1.99,5.19-1.75,3.23-5.04,2.12-8.15,5.15-3.7,3.59-3.33,9.3-3.26,10.37,.06,.92,.5,7.77,4.57,9.39,1.3,.52,3.22,.13,7.04-.65,1.4-.29,3.05-.72,4.89-1.66,.5-.26,.92-.5,1.11-.62,1.37-.91,3.14-2.8,4.44-8.11,1-4.09,1.8-7.33,.78-11.47-.47-1.92-1.54-6.39-5.02-7.82-.21-.09-2.7-.99-4.4,.23Z"/>
  <path class="cls-4" d="M12.24,8.15c1.56,.31,2.45,.93,2.97,1.44,.36,.34,.69,.74,1.48,1.4,.55,.46,.87,.72,1.36,.97,.93,.47,1.79,.53,2.15,.56,.27,.02,1.31,.06,2.65-.45,2.25-.85,3.92-2.74,3.92-2.74h0s-1.04,.38-2.89,.71c-1.69,.29-4.37,.8-6.7-.4-.61-.31-.98-.63-1.59-.92-.13-.06-.45-.2-.81-.32-.5-.16-1.36-.35-2.53-.25Z"/>
  <path class="cls-2" d="M37.22,13.1l-.04-.09c-.17-.37-.69-1.49-1.61-2.59-.71-.91-1.89-2.43-3.61-2.88-.64-.11-1.35-.11-1.38-.11-.37,0-1.12,.2-1.56,.33-.33,.11-.49,.2-.68,.3-.2,.11-.45,.25-1.06,.51l-.31,.13c-.25,.11-.55,.23-.91,.38-.09,.04-.23,.1-.41,.16-.12,.03-.24,.06-.47,.1-.17,.03-.3,.05-.37,.06-.21,.04-.54,.09-.99,.13-1.02,.12-1.41,.13-1.87,.15-.31,0-.65,.01-1.17,.05-.13,0-.28,.01-.44,.02-.35,.02-.75,.05-1.26-.02-.14,0-.3-.03-.42-.06-.06-.01-.11-.02-.15-.03-.08-.03-.16-.06-.27-.09-.23-.08-.52-.18-.79-.34q-.31-.2-1.12-.65c-.14-.05-.22-.1-.32-.16-.06-.04-.13-.08-.21-.12-.11-.05-.25-.11-.39-.16-.11-.05-.22-.09-.35-.15-.6-.25-1.64-.54-2.75-.64-2.81-.21-5.05,1.41-6.15,2.21-1,.8-1.71,1.6-2.24,2.24-.47,.47-.9,1.25-1.22,2.19-.31,.94-.52,1.89-.72,4.22-.1,1.2-.2,2.71-.3,4.51v.04s0,.05,0,.05c.06,.58,.25,2.14,.6,4.13,.61,3.26,1.23,4.79,1.43,5.3,.8,1.95,1.66,3.27,2.51,3.84,.61,.36,1.18,.57,1.33,.62,.49,.24,1.38,.45,2.43,.55,.72,0,.95,0,2.4-.3h2.1c.23,0,2.08,.09,3.4,.49,.47,.1,.65,.17,.84,.36,.1,.1,.17,.18,.24,.26,.15,.18,.31,.36,.7,.64,.2,.1,.4,.2,.69,.3,.16,.1,.39,.15,.65,.15,.29,0,.62-.07,.93-.23,.22-.07,.34-.15,.42-.2,.07-.05,.1-.07,.25-.12,.47-.24,.65-.25,.68-.25h.1c.8-.19,1.53-.1,1.57-.1h.24c1.8,.11,3.22,.18,4.48-.31,.47-.09,.84-.31,1.09-.46,.05-.03,.1-.06,.14-.08,.1-.05,.27-.14,.28-.15h.12c.09-.04,.16-.03,.27-.02,.2,.02,.48,.05,.83-.13l.13-.09s.11-.08,.17-.11c.24-.12,.38-.31,.53-.5l.2-.2,.02-.03c.28-.19,.49-.44,.61-.58l.22-.23v-.14s.07-.09,.12-.16c.15-.19,.35-.44,.6-.84,.26-.43,.5-.85,.68-1.17,.13-.23,.22-.41,.25-.44l.09-.14c.32-.64,1.94-4.16,2.26-10.3v-.14c.1-3.23,.18-6.01-1.06-8.91Zm.06,8.88v.12c-.3,5.8-1.77,9.13-2.13,9.86-.07,.1-.16,.25-.34,.58-.17,.31-.4,.72-.66,1.12-.22,.36-.41,.6-.53,.76-.14,.17-.25,.31-.31,.48,0,0-.01,.02-.02,.03-.1,.12-.23,.28-.47,.45l-.3,.3s-.09,.1-.13,.16c-.05,.06-.1,.12-.14,.14-.05,.03-.21,.11-.35,.22-.07,.03-.12,.03-.24,.01-.14-.01-.32-.03-.56,.02-.18,.02-.37,.12-.65,.25-.05,.03-.12,.07-.21,.12-.19,.12-.46,.28-.84,.36-1.15,.44-2.41,.38-4.15,.28h-.21s-.87-.11-1.83,.09c-.27,.02-.61,.13-.99,.33-.22,.07-.33,.15-.42,.2-.06,.05-.1,.07-.25,.12-.32,.17-.58,.16-.68,.14l-.14-.06c-.27-.09-.45-.18-.55-.23-.22-.16-.33-.29-.47-.44-.08-.1-.17-.2-.28-.31-.38-.39-.77-.52-1.31-.63-1.38-.42-3.34-.52-3.64-.52h-2.2c-1.45,.3-1.63,.3-2.25,.3-1.04-.1-1.75-.3-2.1-.47-.18-.07-.67-.24-1.18-.55-.38-.25-1.16-1.02-2.11-3.37-.19-.48-.78-1.95-1.37-5.1-.34-1.91-.53-3.42-.59-4.02,.1-1.78,.19-3.26,.29-4.45,.2-2.22,.39-3.11,.68-3.98,.26-.79,.62-1.45,1.01-1.84,.53-.63,1.19-1.38,2.11-2.12,.98-.71,3.02-2.19,5.46-2,1,.09,1.95,.36,2.42,.55,.11,.05,.25,.11,.39,.16,.11,.05,.22,.09,.31,.14,.06,.02,.1,.05,.15,.08,.12,.07,.27,.16,.43,.2q.68,.39,.99,.6c.38,.23,.76,.35,1.01,.44,.09,.03,.17,.05,.22,.08l.3,.07c.15,.03,.38,.08,.56,.08,.54,.07,1.01,.04,1.39,.02,.14-.01,.27-.02,.41-.02,.54-.04,.86-.05,1.16-.06,.49-.01,.9-.02,1.96-.14,.12,0,.23-.03,.33-.04-.18,.13-.36,.24-.52,.32-1.15,.58-2.96,.7-3.63,.79,0,0-.33,.21-.29,.53,.03,.33,.37,.47,.37,.47,.75-.03,2.68-.23,4-.9,.88-.45,2.06-1.48,2.35-1.74,.31-.12,.58-.24,.82-.34l.31-.13c.66-.27,.95-.44,1.16-.56,.16-.08,.26-.15,.48-.22,.78-.22,1.17-.28,1.27-.28,0,0,.66,0,1.17,.08,1.35,.36,2.4,1.72,3.04,2.54,.84,1.01,1.32,2.04,1.48,2.38l.05,.1c1.14,2.66,1.06,5.21,.96,8.45Z"/>
  <path id="root" class="cls-1" d="M34.88,50.23c.5,4,.8,9,.7,14.6-.1,4.4-.4,8.3-.8,11.7-.2,.8-.5,1.7-.7,2.5,0,.1-.3,.6-.7,1.2-.1,.2-1.2,1.6-1.7,1.2-.1,0-.1-.1-.3-.8-.2-.6-.3-1.1-.3-1.5-.1-.4-.3-.9-.5-1.5-.3-1.1-.4-1.6-.6-2.3-.2-.9-.1-1-.3-1.9-.1-.7-.2-.9-.4-1.7-.1-.3-.3-1.2-.4-2.2q-.1-.6-.2-1.1c-.1-.5-.2-1.1-.4-1.9-.1-.5-.4-1.7-.7-2.2,0,0-.1-.2-.3-.5-.1-.2-.2-.3-.2-.4,0,0-.2-.4-.6-.9-1.7-2.6-5.9-7.4-5.9-7.4-.3-.3-.6-.6-.9-1,1.3,1.5,2.7,3,4.1,4.8,.8,1,1.6,2,2.3,3-.3,1.1-.7,2.8-1.1,4.9-.3,1.7-.3,2-.7,4.2-.5,2.9-.8,4.4-1.4,5.9-.4,1.1-.3,.6-1.3,2.9-.6,1.4-.8,2.1-1.4,2.5-.1,.1-.7,.5-1.4,.3-.7-.2-1-1.1-1.3-1.5-1.5-2.7-2.1-5.4-2.1-5.5-1.6-8.2-2.9-10.6-2.6-12.8,.1-.7,.3-1.2,.3-1.2,0,0,.5-1.5,3.2-4.4h0c2.2-2.2,3.2-3.3,3.3-3.3,.1,.1-3.6,2.9-6.5,7.6-5.1,8.6-4.9,19.3-6.6,19.2-.3,0-.5-.3-1.1-1.6-2.2-5-2-10.5-1.7-13.2-.1-1.1-.2-2.8-.2-4.8,0-.6,0-3,.4-6.9,.2-1.6,.3-3,.7-5.5,.8-5.7,1.1-6.8,1.2-8.1,0-.4,.1-.8,.1-1.3,.2-2.8,.1-3.7,.5-3.9,.3-.2,.6,0,.8,.1,1.3,.7,2.6,1.1,4,1,1.8-.1,6.9-.7,8.4,1.9,.7,1.2,.1,2.1-.1,8.2-.2,4.5,0,7.3,0,7.3,0,0-.2-3.7,0-8.3,.2-3.8,.3-5.8,1-6.7,2-2.7,5.8-.2,8.4-1.9,.3-.2,1.3-.9,2.1-.4,.2,.2,.4,.4,.5,.6,.2,.3,.4,.8,.6,1.5,.5,1.6,.5,2.6,.9,4.3,.3,1,.5,2,.8,3,.1,.7,.2,1.3,.4,2,.4,.7,.5,1.5,.7,2.2Z"/>
  <path class="cls-3" d="M7.26,22.14c-1.04,.14-2.06,1.38-2.05,2.55,.02,1.33,1.47,2.5,2.77,2.15,1.26-.34,2.08-2.05,1.59-3.24-.38-.93-1.51-1.56-2.31-1.46Z"/>
  <path class="cls-3" d="M14.05,11.02c-.22-.12-1.28-.66-2.81-.58-2.13,.12-3.58,1.36-4.05,1.79-1.93,1.75-2.75,4.3-2.52,6.46,.08,.69,.2,1.7,.99,2.24,1.04,.72,2.47,.09,2.67,0,1.1-.48,1.68-1.42,1.93-1.89,.04-.08,.07-.14,.1-.21,1.09-2.39,.96-4.23,2.2-5.07,.54-.36,1.19-.43,1.57-.47,1.13-.12,1.73,.27,1.89,.03,.23-.34-.69-1.63-1.97-2.31Z"/>
</svg>