<?xml version="1.0" encoding="UTF-8"?>
<svg id="Layer_4" data-name="Layer 4" xmlns="http://www.w3.org/2000/svg" viewBox="0 0 40 90">
  <defs>
    <style>
      .cls-1 {
        fill: #dcddde;
      }

      .cls-1, .cls-2 {
        stroke: #495059;
        stroke-miterlimit: 10;
      }

      .cls-3 {
        fill: #fff;
      }

      .cls-4 {
        fill: #a0e1e3;
      }

      .cls-2 {
        fill: none;
      }

      .cls-5 {
        fill: #d7f0f5;
      }
    </style>
  </defs>
  <path id="root" class="cls-1" d="M9.97,54.9c-.7,1.5-.8,2.2-1,2.2-.4,0-.2-4-.2-5.1,0-1.3,.1-2.6,.2-3.4,.2-4.5,.1-3.9,.3-5.9,.3-2.7,.6-4.8,.9-6.6,1-5.9,1.5-6.3,2.2-11.3,.2-1.4,.3-2.3,.4-3,.1-.5,.1-1.2,.2-2.1,0-.3,.1-.5,.1-.8,.1-.8,.1-1,.2-1.6,.1-.6,.2-1.3,.3-1.9,.2-.8,.4-1.4,.4-1.6,.1-.2,.2-.5,.3-.7,0,0,.2-.6,.5-1.2,.3-.5,2.4-3.9,4.3-3.7,2.6,.3,3.5,7.1,3.5,7.4v.1c0,.1,0,.4,.1,.7,.1,.7,.2,1.3,.3,2,.3,1.3,.1,1.3,.4,3,.3,1.9,.5,1.6,.7,3.1,.1,1,.2,2.1,.2,3.1,0,0,.2,1.6,.3,2.9,.1,1.4,.3,2.9,.6,4.3,0,.1,0,.2,.1,.3v.6c.1,.2,.1,.5,.1,.7,.1,.6,.3,1.1,.5,1.6s.3,.9,.4,1.4c.2,.8,.4,1.5,.5,2,.2,.7,.1,.8,.3,1.5,.1,.4,.1,.5,.3,1.3,.2,.8,.3,1.3,.4,1.7q.1,.6,.2,1.4c.1,.4,.1,.6,.2,.9,.1,.6,.3,1,.4,1.3,.3,.9,.2,.8,.6,2.1,.3,1,.5,1.8,.5,1.8,0,0,.1,.4,.2,.8,.1,.4,.1,.6,.1,.6,.1,.3,.1,.5,.1,.8,.1,.5,.2,1,.1,1.5-.1,0-.2-.3-.4-.9-.2-.4-.5-.8-.8-1.2-.4-.6-.9-1.2-1.4-1.7s-1.1-1-1.7-1.5c-.4-.3-.7-.6-1.1-.8-.5-.3-1-.6-1.5-.8-.1,0-.5-.2-1.1-.4-.7-.2-1.4-.4-2.1-.5-1.4-.2-2.8,0-4.1,.4-.8,.3-1.5,.7-2.2,1.2-.8,.4-1.5,.9-2.1,1.5-.4,.4-.7,.8-1,1.2-.2,.4-.5,.8-.7,1.3Z"/>
  <path id="face" class="cls-5" d="M6.47,70.7v-3.5c0-.5,.1-1,.1-1.6,0-.3,.1-.8,.2-1.3,0-.2,.1-.5,.1-.7,0,0,.1-.7,.4-1.6,.5-2.1,1.2-4.1,2.1-6,.2-.5,.5-.9,.7-1.3,.3-.5,.6-1,.9-1.4,.6-.7,1.2-1.3,2-1.7,.9-.7,1.8-1.3,2.7-1.9,.9-.4,1.9-.6,2.9-.7,.6,0,1.2,0,1.7,.1,.8,.1,1.6,.4,2.3,.7,.7,.3,1.3,.6,2,.9,.7,.5,1.4,1,2.1,1.7,.8,.8,1.6,1.6,2.3,2.5,.5,.6,.9,1.3,1.4,2,.3,.5,.6,1,.8,1.6,.6,1.5,1,3,1.2,4.6,.3,1.7,.5,3.1,.7,4.3,.6,4.2,.6,5.6,.1,6.7-.3,.6-.7,1.2-1.2,1.7l-1,1.1c-.4,.3-.7,.5-.9,.7-.2,.2-.4,.3-.6,.5s-.2,.2-.5,.5c-.2,.2-.4,.4-.6,.5-.2,.2-.2,.1-.5,.4q-.3,.2-.5,.4c-.2,.2-.4,.3-.6,.4-.3,.2-.7,.4-1.1,.5-.8,.3-1.7,.5-2.6,.7s-1.8,.3-2.8,.3h-.2c-1.5-.1-2.9-.4-4.3-1-.7-.3-.6-.3-2.1-1-.4-.2-.8-.4-1.2-.6-.4-.3-1-.6-1-.6,0,0-.7-.6-1.5-1.2-.4-.3-.6-.5-.7-.7-.2-.2-.5-.5-.6-.7l-.3-.4c-.1-.1-.3-.5-.6-.9-.4-.7-.7-1.5-.9-2.3-.1-.3-.1-.6-.2-1-.2-.2-.2-.4-.2-.7Z"/>
  <path class="cls-4" d="M14.38,79.84c-1.17-1.3-3.57-4.32-4.42-8.87-.28-1.52-1.17-6.74,1.89-11.8,1.13-1.86,3.52-5.82,8.14-6.44,5.6-.75,9.57,4.06,9.82,4.38-.61-1.23-1.67-2.96-3.47-4.54-1.53-1.34-2.96-2.03-3.55-2.27-1.04-.44-1.88-.79-3.11-.9-1.94-.18-3.42,.38-3.82,.54-.92,.37-1.49,.82-2.64,1.71-1.02,.79-2.01,1.56-2.86,2.67-.67,.87-1.16,1.81-1.93,4.28-1,3.2-1.51,4.85-1.74,7.29-.31,3.35-.5,5.46,.65,7.9,1.64,3.48,4.83,5.13,5.41,5.41,.64,.32,1.21,.52,1.61,.65Z"/>
  <path  data-name="mat-rang" class="cls-2" d="M6.47,70.7v-3.5c0-.5,.1-1,.1-1.6,0-.3,.1-.8,.2-1.3,0-.2,.1-.5,.1-.7,0,0,.1-.7,.4-1.6,.5-2.1,1.2-4.1,2.1-6,.2-.5,.5-.9,.7-1.3,.3-.5,.6-1,.9-1.4,.6-.7,1.2-1.3,2-1.7,.9-.7,1.8-1.3,2.7-1.9,.9-.4,1.9-.6,2.9-.7,.6,0,1.2,0,1.7,.1,.8,.1,1.6,.4,2.3,.7,.7,.3,1.3,.6,2,.9,.7,.5,1.4,1,2.1,1.7,.8,.8,1.6,1.6,2.3,2.5,.5,.6,.9,1.3,1.4,2,.3,.5,.6,1,.8,1.6,.6,1.5,1,3,1.2,4.6,.3,1.7,.5,3.1,.7,4.3,.6,4.2,.6,5.6,.1,6.7-.3,.6-.7,1.2-1.2,1.7l-1,1.1c-.4,.3-.7,.5-.9,.7-.2,.2-.4,.3-.6,.5s-.2,.2-.5,.5c-.2,.2-.4,.4-.6,.5-.2,.2-.2,.1-.5,.4q-.3,.2-.5,.4c-.2,.2-.4,.3-.6,.4-.3,.2-.7,.4-1.1,.5-.8,.3-1.7,.5-2.6,.7s-1.8,.3-2.8,.3h-.2c-1.5-.1-2.9-.4-4.3-1-.7-.3-.6-.3-2.1-1-.4-.2-.8-.4-1.2-.6-.4-.3-1-.6-1-.6,0,0-.7-.6-1.5-1.2-.4-.3-.6-.5-.7-.7-.2-.2-.5-.5-.6-.7l-.3-.4c-.1-.1-.3-.5-.6-.9-.4-.7-.7-1.5-.9-2.3-.1-.3-.1-.6-.2-1-.2-.2-.2-.4-.2-.7Z"/>
  <path class="cls-3" d="M25.67,78.59c2.02-1.55,4.57-3.11,5.33-5.69,.36-1.22,.32-2.54,.23-3.79-.11-1.49-.29-2.99-.58-4.46-.26-1.32-.55-2.87-1.5-3.9-.84-.91-1.47-.11-1.39,.87,.12,1.48,.68,2.92,.92,4.39,.23,1.38,.36,2.78,.42,4.17,.06,1.51-.15,2.69-1.04,3.93-.97,1.36-2.03,2.56-2.85,4.03-.15,.27,.18,.67,.45,.45h0Z"/>
</svg>