<?xml version="1.0" encoding="utf-8"?>
<!-- Generator: Adobe Illustrator 24.0.0, SVG Export Plug-In . SVG Version: 6.00 Build 0)  -->
<svg version="1.1" id="Layer_1" xmlns="http://www.w3.org/2000/svg" xmlns:xlink="http://www.w3.org/1999/xlink" x="0px" y="0px"
	 viewBox="0 0 12 40" style="enable-background:new 0 0 12 40;" xml:space="preserve">
<style type="text/css">
	.st0{fill:#5C443E;}
	.st1{fill:#ECCB30;}
	.st2{fill:#8F7957;}
</style>
<g>
	<path class="st0" d="M11.8,21.4c0,0.1,0,0.3,0,0.4c-0.2,1.1-1.1,1.6-2.1,1.9c-1.7,0.6-3.5,0.9-5.3,0.4c-0.2-0.2-0.3-0.4-0.4-0.7
		c0.1-2.3-0.2-4.7,0.3-7C4.6,15.3,5,15,6.5,14.9c0.9-0.1,2,0.2,2.6-0.9c0.1-0.2,0.2-0.3,0.4-0.4c1.5-0.1,1.9,0.9,2.3,2
		c0,0.3,0,0.6,0,0.9c-0.2,0.6-0.6,0.9-1.3,0.9c-0.5,0-1,0.2-1.5,0.2c-1.1-0.1-1.3,0.7-1.4,1.4c-0.1,0.8,0.4,1.1,1.2,1.3
		c0.5,0.1,0.9,0.1,1.4,0.1C11,20.4,11.5,20.7,11.8,21.4z"/>
	<path class="st1" d="M9.7,14c0,0.1,0,0.4-0.2,0.6c-0.1,0.1-0.2,0.4-0.8,0.6c-0.7,0.3-1.5,0.2-2.2,0.2c-1.1-0.1-1.5,0.3-1.7,1.3
		c-0.3,1.8-0.2,3.7-0.2,5.5c0,0.5,0.1,1-0.2,1.4c-0.3,0.6-0.8,0.4-1.2,0.2c-3-1.7-4.1-4.7-1.7-7.4c0.8-0.9,1.6-1.7,2.7-2.4
		c0.7-0.3,1.4-0.6,2.2-0.8c0.1,0,0.1-0.1,0.2-0.1c0.1,0,0.2-0.1,0.3-0.1c0.2,0,0.3,0,0.5,0c0.5,0,0.9,0,1.2,0.1
		c0.6,0.1,1.1,0.1,1.2,0.4C9.8,13.8,9.8,13.9,9.7,14z"/>
	<path class="st2" d="M4.7,24.3c-0.3,0-0.8-0.1-1.4-0.4c-1.2-0.5-1.9-1.4-2.1-1.8c-0.2-0.3-1.5-2.2-0.9-3.9c0.3-0.9,1.1-1.6,1.7-2.2
		c0.1-0.1,0.3-0.3,0.8-0.7c0,0,0.5-0.4,1.1-0.9c0,0,0.2-0.1,0.5-0.3c0.4-0.2,1.2-0.6,2.4-0.8c0.6-0.1,1-0.1,1.7-0.1
		c0.2,0,0.6,0,1.1,0.2c0.2,0.1,0.3,0.2,0.3,0.2c0,0.2-1.5-0.2-3.1,0c-1,0.1-1.7,0.4-2.2,0.6c-1.3,0.9-2.5,1.8-3.3,3.1
		c-1.6,2.5,0,4.9,2.4,6.2c0.2,0.1,0.5,0.2,0.8,0C4.5,23.9,4.6,24.1,4.7,24.3z"/>
</g>
</svg>
