<?xml version="1.0" encoding="utf-8"?>
<!-- Generator: Adobe Illustrator 24.0.0, SVG Export Plug-In . SVG Version: 6.00 Build 0)  -->
<svg version="1.1" id="Layer_1" xmlns="http://www.w3.org/2000/svg" xmlns:xlink="http://www.w3.org/1999/xlink" x="0px" y="0px"
	 viewBox="0 0 16 16" style="enable-background:new 0 0 16 16;" xml:space="preserve">
<style type="text/css">
	.st0{fill:#5C443E;}
	.st1{fill:#ECCB30;}
	.st2{fill:#8F7957;}
</style>
<g>
	<path class="st0" d="M14.3,10.7c0,0.2,0,0.3,0,0.5C14,12.3,13,12.9,12,13.3c-1.8,0.7-3.8,1-5.8,0.5c-0.2-0.2-0.4-0.4-0.4-0.7
		C6,10.5,5.6,8,6.1,5.5C6.4,4,6.9,3.7,8.5,3.6c1-0.1,2.2,0.2,2.8-1c0.1-0.2,0.3-0.3,0.5-0.4c1.7-0.1,2.1,1,2.5,2.1c0,0.3,0,0.6,0,1
		c-0.2,0.7-0.6,1-1.4,1c-0.6,0-1.1,0.3-1.7,0.2C10,6.5,9.9,7.3,9.8,8.1C9.7,9,10.2,9.3,11,9.5c0.5,0.1,1,0.2,1.5,0.1
		C13.4,9.6,14,10,14.3,10.7z"/>
	<path class="st1" d="M12,2.6c0,0.2,0,0.4-0.2,0.7c-0.1,0.1-0.3,0.4-0.9,0.6c-0.8,0.3-1.6,0.3-2.4,0.2C7.3,4,6.9,4.5,6.7,5.6
		c-0.3,2-0.2,4-0.2,6c0,0.5,0.1,1-0.2,1.5c-0.3,0.6-0.9,0.5-1.3,0.2C1.6,11.5,0.4,8.2,3,5.3c0.8-1,1.8-1.9,2.9-2.6
		c0.8-0.3,1.5-0.6,2.4-0.8c0.1,0,0.2-0.1,0.3-0.1c0.1,0,0.3-0.1,0.4-0.1c0.2,0,0.4,0,0.5,0c0.5,0,0.9,0,1.3,0.1
		c0.7,0.1,1.2,0.1,1.3,0.4C12.1,2.4,12,2.5,12,2.6z"/>
	<path class="st2" d="M6.5,13.8c-0.4-0.1-0.9-0.2-1.5-0.4c-1.3-0.6-2-1.6-2.3-1.9c-0.3-0.4-1.7-2.4-1-4.3C2,6.2,2.9,5.4,3.5,4.7
		c0.1-0.2,0.4-0.4,0.8-0.8c0,0,0.5-0.5,1.2-1c0.1,0,0.2-0.2,0.5-0.3C6.5,2.4,7.4,2,8.7,1.8c0.6-0.1,1.1-0.1,1.9-0.1
		c0.2,0,0.7,0,1.2,0.3c0.2,0.1,0.4,0.2,0.4,0.2c0,0.2-1.6-0.2-3.3,0C7.7,2.4,6.9,2.7,6.3,2.9c-1.4,1-2.7,2-3.6,3.4
		C1,9.1,2.7,11.8,5.3,13.1c0.3,0.1,0.6,0.2,0.9,0C6.3,13.4,6.4,13.6,6.5,13.8z"/>
</g>
</svg>
