<?xml version="1.0" encoding="utf-8"?>
<!-- Generator: Adobe Illustrator 24.0.0, SVG Export Plug-In . SVG Version: 6.00 Build 0)  -->
<svg version="1.1" id="Layer_1" xmlns="http://www.w3.org/2000/svg" xmlns:xlink="http://www.w3.org/1999/xlink" x="0px" y="0px"
	 viewBox="0 0 16 12" style="enable-background:new 0 0 16 12;" xml:space="preserve">
<style type="text/css">
	.st0{fill:#5C443E;}
	.st1{fill:#ECCB30;}
	.st2{fill:#8F7957;}
</style>
<g>
	<path class="st0" d="M13.8,8.4c0,0.1,0,0.3,0,0.4c-0.2,1.1-1.1,1.6-2.1,1.9c-1.7,0.6-3.5,0.9-5.3,0.4c-0.2-0.2-0.3-0.4-0.4-0.7
		c0.1-2.3-0.2-4.7,0.3-7C6.7,2.3,7.1,2,8.5,1.9c0.9-0.1,2,0.2,2.6-0.9c0.1-0.2,0.2-0.3,0.4-0.4c1.5-0.1,1.9,0.9,2.3,2
		c0,0.3,0,0.6,0,0.9c-0.2,0.6-0.6,0.9-1.3,0.9c-0.5,0-1,0.2-1.5,0.2C9.9,4.6,9.8,5.3,9.7,6.1c-0.1,0.8,0.4,1.1,1.2,1.3
		c0.5,0.1,0.9,0.1,1.4,0.1C13.1,7.5,13.6,7.7,13.8,8.4z"/>
	<path class="st1" d="M11.7,1c0,0.1,0,0.4-0.2,0.6c-0.1,0.1-0.2,0.4-0.8,0.6c-0.7,0.3-1.5,0.2-2.2,0.2C7.5,2.3,7,2.7,6.9,3.7
		C6.6,5.6,6.7,7.4,6.7,9.2c0,0.5,0.1,1-0.2,1.4c-0.3,0.6-0.8,0.4-1.2,0.2c-3-1.7-4.1-4.7-1.7-7.4c0.8-0.9,1.6-1.7,2.7-2.4
		c0.7-0.3,1.4-0.6,2.2-0.8c0.1,0,0.1-0.1,0.2-0.1c0.1,0,0.2-0.1,0.3-0.1c0.2,0,0.3,0,0.5,0c0.5,0,0.9,0,1.2,0.1
		c0.6,0.1,1.1,0.1,1.2,0.4C11.8,0.8,11.8,0.9,11.7,1z"/>
	<path class="st2" d="M6.7,11.3c-0.3,0-0.8-0.1-1.4-0.4c-1.2-0.5-1.9-1.4-2.1-1.8C3,8.8,1.7,7,2.3,5.2C2.6,4.3,3.4,3.6,4,2.9
		c0.1-0.1,0.3-0.3,0.8-0.7c0,0,0.5-0.4,1.1-0.9c0,0,0.2-0.1,0.5-0.3c0.4-0.2,1.2-0.6,2.4-0.8c0.6-0.1,1-0.1,1.7-0.1
		c0.2,0,0.6,0,1.1,0.2c0.2,0.1,0.3,0.2,0.3,0.2c0,0.2-1.5-0.2-3.1,0c-1,0.1-1.7,0.4-2.2,0.6C5.3,2.2,4.1,3.2,3.3,4.5
		c-1.6,2.5,0,4.9,2.4,6.2c0.2,0.1,0.5,0.2,0.8,0C6.5,10.9,6.6,11.1,6.7,11.3z"/>
</g>
</svg>
