<?xml version="1.0" encoding="utf-8"?>
<!-- Generator: Adobe Illustrator 24.0.0, SVG Export Plug-In . SVG Version: 6.00 Build 0)  -->
<svg version="1.1" id="Layer_1" xmlns="http://www.w3.org/2000/svg" xmlns:xlink="http://www.w3.org/1999/xlink" x="0px" y="0px"
	 viewBox="0 0 12 40" style="enable-background:new 0 0 12 40;" xml:space="preserve">
<style type="text/css">
	.st0{fill:#7F3E96;}
	.st1{fill:#7F3F96;}
	.st2{fill:#FBF306;}
	.st3{fill:#804198;}
</style>
<g>
	<path class="st0" d="M5.3,13c1,0,2,0,3,0c0.3,0.2,0.7,0,0.9,0.4c0.1,0.5,0,1.1-0.3,1.5c-1,2.2-1.8,4.7-4.6,7.8
		c-0.2,0.2-0.4,0.4-0.7,0.7c-0.4-0.1-0.9-0.4-1.5-0.7c0,0-0.8-0.5-1.3-1c-1.2-1.4-0.7-4.1,0.3-5.9c0.3-0.4,0.9-1.4,2.1-2.1
		C4,13.2,4.8,13.1,5.3,13z"/>
	<path class="st1" d="M11.9,19.2c-0.1,0.5-0.3,1.1-0.7,1.8c-0.3,0.6-0.7,1.1-1,1.5c-0.8-0.8-1.4-1.7-2.3-2.3
		c-0.4-0.3-0.6-0.9-0.5-1.4c0.5-1.8,2.3-2.8,2.1-4.4c0-0.3-0.2-0.7-0.5-1.1c0.4,0.1,1.1,0.3,1.8,0.9c0.4,0.4,0.6,0.8,0.8,1.2
		c0.2,0.8,0.3,1.6,0.4,2.4C11.9,18.2,11.9,18.7,11.9,19.2z"/>
	<path class="st2" d="M9,13.2c0.2,0,0.4,0.1,0.7,0.2c0.2,0.1,0.4,0.2,0.5,0.3c-0.1,0.2-0.3,0.6-0.5,1c-0.4,0.8-0.4,0.8-0.7,1.5
		c-0.4,0.8-0.6,1.2-1,2c-0.4,0.8-0.1,1.4,0.6,2c0.7,0.6,1.5,1.1,1.5,2.2c-0.2,0.1-0.3,0.3-0.5,0.4c-0.3,0-0.5-0.2-0.7-0.5
		c-1.2-1.3-2-1.3-3.1,0.1c-0.5,0.6-1,1.1-1.8,1.2c-0.2-0.1-0.5-0.2-0.7-0.4c1-1.4,2.1-3,3.2-4.8C7.5,16.7,8.4,14.9,9,13.2z"/>
	<path class="st3" d="M4,23.7c0.6-0.7,1.3-1.4,1.9-2.1c1.3-1.3,3-0.9,3.7,0.8c0.1,0.1,0.1,0.3,0.1,0.4C7.9,24.5,6,24.7,4,23.7z"/>
</g>
</svg>
