<?xml version="1.0" encoding="utf-8"?>
<!-- Generator: Adobe Illustrator 24.0.0, SVG Export Plug-In . SVG Version: 6.00 Build 0)  -->
<svg version="1.1" id="Layer_1" xmlns="http://www.w3.org/2000/svg" xmlns:xlink="http://www.w3.org/1999/xlink" x="0px" y="0px"
	 viewBox="0 0 16 12" style="enable-background:new 0 0 16 12;" xml:space="preserve">
<style type="text/css">
	.st0{fill:#7F3E96;}
	.st1{fill:#7F3F96;}
	.st2{fill:#FBF306;}
	.st3{fill:#804198;}
</style>
<g>
	<path class="st0" d="M7.3,0.3c1,0,2,0,3,0c0.3,0.2,0.7,0,0.9,0.4c0.1,0.5,0,1.1-0.3,1.5c-1,2.2-1.8,4.7-4.6,7.8
		c-0.2,0.2-0.4,0.4-0.7,0.7c-0.4-0.1-0.9-0.4-1.5-0.7c0,0-0.8-0.5-1.3-1C1.6,7.7,2.1,5,3.1,3.2C3.4,2.8,4,1.8,5.3,1
		C6,0.6,6.8,0.4,7.3,0.3z"/>
	<path class="st1" d="M13.9,6.5c-0.1,0.5-0.3,1.1-0.7,1.8c-0.3,0.6-0.7,1.1-1,1.5C11.4,9,10.7,8.1,9.8,7.5C9.4,7.2,9.2,6.6,9.4,6.1
		c0.5-1.8,2.3-2.8,2.1-4.4c0-0.3-0.2-0.7-0.5-1.1c0.4,0.1,1.1,0.3,1.8,0.9c0.4,0.4,0.6,0.8,0.8,1.2c0.2,0.8,0.3,1.6,0.4,2.4
		C13.9,5.6,13.9,6.1,13.9,6.5z"/>
	<path class="st2" d="M11,0.6c0.2,0,0.4,0.1,0.7,0.2C12,1,12.2,1.1,12.3,1.2c-0.1,0.2-0.3,0.6-0.5,1C11.4,2.9,11.4,3,11,3.6
		c-0.4,0.8-0.6,1.2-1,2c-0.4,0.8-0.1,1.4,0.6,2c0.7,0.6,1.5,1.1,1.5,2.2c-0.2,0.1-0.3,0.3-0.5,0.4c-0.3,0-0.5-0.2-0.7-0.5
		c-1.2-1.3-2-1.3-3.1,0.1c-0.5,0.6-1,1.1-1.8,1.2c-0.2-0.1-0.5-0.2-0.7-0.4c1-1.4,2.1-3,3.2-4.8C9.5,4,10.4,2.2,11,0.6z"/>
	<path class="st3" d="M6,11.1C6.6,10.4,7.2,9.7,7.9,9c1.3-1.3,3-0.9,3.7,0.8c0.1,0.1,0.1,0.3,0.1,0.4C9.9,11.8,8,12.1,6,11.1z"/>
</g>
</svg>
