<?xml version="1.0" encoding="utf-8"?>
<!-- Generator: Adobe Illustrator 24.0.0, SVG Export Plug-In . SVG Version: 6.00 Build 0)  -->
<svg version="1.1" id="Layer_1" xmlns="http://www.w3.org/2000/svg" xmlns:xlink="http://www.w3.org/1999/xlink" x="0px" y="0px"
	 viewBox="0 0 16 16" style="enable-background:new 0 0 16 16;" xml:space="preserve">
<style type="text/css">
	.st0{fill:#7F3E96;}
	.st1{fill:#7F3F96;}
	.st2{fill:#FBF306;}
	.st3{fill:#804198;}
</style>
<g>
	<path class="st0" d="M6.9,2C8,2,9,2,10.1,2c0.3,0.2,0.8,0,1,0.4c0.1,0.6,0,1.1-0.3,1.7c-1.1,2.4-1.9,5-4.9,8.4
		c-0.2,0.2-0.4,0.5-0.8,0.8c-0.4-0.1-1-0.4-1.6-0.8c0,0-0.9-0.6-1.3-1.1C0.9,9.9,1.4,7,2.5,5.1c0.3-0.5,0.9-1.5,2.2-2.3
		C5.6,2.3,6.4,2.1,6.9,2z"/>
	<path class="st1" d="M14,8.7c-0.1,0.5-0.4,1.2-0.8,1.9c-0.4,0.7-0.8,1.2-1.1,1.6c-0.8-0.8-1.5-1.8-2.5-2.5C9.2,9.4,9,8.7,9.1,8.1
		c0.5-2,2.5-3,2.2-4.7c0-0.3-0.2-0.7-0.6-1.2c0.4,0.1,1.2,0.3,1.9,1c0.4,0.5,0.7,0.9,0.8,1.3c0.3,0.8,0.3,1.7,0.5,2.5
		C14,7.6,14,8.1,14,8.7z"/>
	<path class="st2" d="M10.9,2.3c0.2,0,0.5,0.1,0.8,0.3c0.2,0.1,0.4,0.2,0.6,0.3c-0.1,0.2-0.3,0.6-0.6,1c-0.4,0.8-0.4,0.9-0.8,1.6
		c-0.5,0.9-0.7,1.3-1.1,2.2c-0.4,0.9-0.1,1.5,0.6,2.1c0.7,0.6,1.6,1.2,1.6,2.3c-0.2,0.2-0.3,0.3-0.5,0.5c-0.4,0-0.6-0.2-0.8-0.5
		c-1.3-1.4-2.1-1.4-3.3,0.1c-0.5,0.7-1.1,1.2-2,1.3c-0.3-0.1-0.5-0.3-0.8-0.4C5.9,11.7,7,10,8.2,8C9.3,6,10.2,4,10.9,2.3z"/>
	<path class="st3" d="M5.5,13.5c0.7-0.7,1.3-1.5,2-2.2c1.4-1.4,3.2-1,3.9,0.9c0.1,0.1,0.1,0.3,0.1,0.5C9.7,14.3,7.7,14.6,5.5,13.5z"
		/>
</g>
</svg>
