<?xml version="1.0" encoding="utf-8"?>
<!-- Generator: Adobe Illustrator 24.0.0, SVG Export Plug-In . SVG Version: 6.00 Build 0)  -->
<svg version="1.1" id="Layer_1" xmlns="http://www.w3.org/2000/svg" xmlns:xlink="http://www.w3.org/1999/xlink" x="0px" y="0px"
	 viewBox="0 0 40 90" style="enable-background:new 0 0 40 90;" xml:space="preserve">
<style type="text/css">
	.st0{fill:#E0D506;}
	.st1{fill:#468ADB;}
</style>
<path class="st0" d="M13,74.3c6.4,1.3,12.9,1.8,20.3,4c-7.1,3-13.8,3.9-20.1,5.7c0-0.1-0.1-0.3-0.1-0.4C15.6,80.5,15.4,77.4,13,74.3
	z"/>
<path class="st1" d="M13,74.3c4.2,4.4,4.2,4.4,0.1,9.7c-0.2,0.1-0.5,0.2-0.9,0.3c-0.6,0.2-1,0.3-1.4,0.3c-0.4,0.1-0.9,0.2-1.5,0.3
	c1-1.3,1.7-2.1,2.1-2.5c0.5-0.6,1.6-1.9,1.9-3.2c0.1-0.3,0.1-0.7,0-1.1c-0.1-0.4-0.4-0.7-0.6-0.9c-0.9-0.9-1.7-1.6-2.1-1.9
	c-0.4-0.3-1-0.9-1.5-1.6C10.5,73.7,11.7,74,13,74.3z"/>
</svg>
