<?xml version="1.0" encoding="utf-8"?>
<!-- Generator: Adobe Illustrator 24.0.0, SVG Export Plug-In . SVG Version: 6.00 Build 0)  -->
<svg version="1.1" id="Layer_1" xmlns="http://www.w3.org/2000/svg" xmlns:xlink="http://www.w3.org/1999/xlink" x="0px" y="0px"
	 viewBox="0 0 40 90" style="enable-background:new 0 0 40 90;" xml:space="preserve">
<style type="text/css">
	.st0{fill:#FFFFFF;stroke:#000000;stroke-miterlimit:10;}
</style>
<g>
	<path id="mat_1_" class="st0" d="M0.8,29.4c0-0.7,0.1-1.3,0.1-1.8C1,26.7,1.1,26.4,1.2,26c0.1-0.4,0.3-0.6,0.4-0.8
		c0.2-0.2,0.5-0.6,0.9-0.9c0.4-0.3,1.3-0.9,2.3-0.8c0.4,0,0.8,0.2,1,0.2c0.1,0,0.2,0.1,0.3,0.1c0.1,0,0.1,0.1,0.2,0.1
		c0.3,0.2,0.3,0.2,0.4,0.2c0.2,0.1,0.4,0.2,0.5,0.2c0,0,0.2,0,0.3,0c0.3,0,0.5,0,0.7,0c0.6,0,0.6,0,1.2-0.1c0.2,0,0.3,0,0.6-0.1
		c0.2,0,0.4-0.1,0.4-0.1c0.1,0,0.2-0.1,0.5-0.2c0.5-0.2,0.4-0.2,0.7-0.3c0.3-0.1,0.5-0.1,0.6-0.1c0,0,0.3,0,0.5,0
		c0.6,0.2,1,0.7,1.3,1.1c0.4,0.5,0.6,0.9,0.6,1c0.5,1.1,0.4,2.2,0.4,3.5c-0.1,2.3-0.7,3.7-0.9,4c0,0-0.2,0.4-0.4,0.7
		c-0.2,0.3-0.3,0.4-0.3,0.5c0,0-0.1,0.2-0.2,0.2c0,0-0.1,0.1-0.1,0.1s-0.1,0.1-0.2,0.2c0,0-0.1,0-0.1,0.1c-0.2,0.1-0.2,0-0.4,0
		c0,0-0.1,0-0.2,0.1c-0.1,0-0.2,0.2-0.4,0.2c-0.5,0.2-1.1,0.2-1.8,0.1c0,0-0.3,0-0.7,0c-0.1,0-0.2,0-0.4,0.1c-0.1,0-0.1,0.1-0.2,0.1
		c-0.2,0.1-0.4,0.1-0.5,0c-0.1,0-0.2-0.1-0.3-0.1c-0.2-0.1-0.2-0.2-0.3-0.3S7.2,35,7,35c-0.5-0.2-1.3-0.2-1.4-0.2
		c-0.2,0-0.5,0-0.8,0c-0.6,0.1-0.7,0.1-0.9,0.1c-0.4,0-0.7-0.1-0.9-0.2c-0.1,0-0.3-0.1-0.5-0.2C2.4,34.4,2,34.1,1.6,33
		c-0.1-0.2-0.3-0.8-0.6-2C0.9,30.3,0.9,29.7,0.8,29.4z"/>
	<path id="chan_1_" class="st0" d="M13.7,40.2c0.2,1.6,0.3,3.5,0.3,5.8c0,1.7-0.2,3.3-0.3,4.6c-0.1,0.3-0.2,0.7-0.3,1
		c0,0-0.1,0.2-0.3,0.5c0,0.1-0.5,0.6-0.7,0.5c0,0,0,0-0.1-0.3c-0.1-0.2-0.1-0.4-0.1-0.6c0-0.2-0.1-0.4-0.2-0.6
		c-0.1-0.4-0.2-0.6-0.2-0.9c-0.1-0.4,0-0.4-0.1-0.7c0-0.3-0.1-0.4-0.2-0.7c0-0.1-0.1-0.5-0.2-0.9c0-0.2,0-0.2-0.1-0.4
		s-0.1-0.4-0.2-0.7c0-0.2-0.2-0.7-0.3-0.9c0,0,0-0.1-0.1-0.2c0-0.1-0.1-0.1-0.1-0.2c0,0-0.1-0.2-0.2-0.4c-0.7-1-2.3-2.9-2.3-2.9
		c-0.1-0.1-0.2-0.2-0.4-0.4c0.5,0.6,1.1,1.2,1.6,1.9c0.3,0.4,0.6,0.8,0.9,1.2c-0.1,0.4-0.3,1.1-0.4,1.9c-0.1,0.7-0.1,0.8-0.3,1.7
		c-0.2,1.1-0.3,1.7-0.6,2.3c-0.2,0.4-0.1,0.2-0.5,1.1c-0.2,0.6-0.3,0.8-0.6,1c0,0-0.3,0.2-0.6,0.1c-0.3-0.1-0.4-0.4-0.5-0.6
		C6.2,51.3,6,50.3,6,50.2c-0.6-3.2-1.1-4.2-1-5c0-0.3,0.1-0.5,0.1-0.5s0.2-0.6,1.3-1.7l0,0l0,0c0.9-0.9,1.3-1.3,1.3-1.3
		c0,0-1.4,1.1-2.6,3c-2,3.4-1.9,7.6-2.6,7.6c-0.1,0-0.2-0.1-0.4-0.6c-0.9-2-0.8-4.1-0.7-5.2c0-0.4-0.1-1.1-0.1-1.9
		c0-0.2,0-1.2,0.2-2.7c0.1-0.6,0.1-1.2,0.3-2.2c0.3-2.2,0.4-2.7,0.5-3.2c0-0.2,0-0.3,0-0.5c0.1-1.1,0-1.5,0.2-1.5
		c0.1-0.1,0.2,0,0.3,0c0.5,0.3,1,0.4,1.6,0.4c0.7,0,2.7-0.3,3.3,0.7c0.3,0.5,0,0.8,0,3.2c-0.1,1.8,0,2.9,0,2.9s-0.1-1.5,0-3.3
		c0.1-1.5,0.1-2.3,0.4-2.6c0.8-1.1,2.3-0.1,3.3-0.7c0.1-0.1,0.5-0.4,0.8-0.2c0.1,0.1,0.2,0.2,0.2,0.2c0.1,0.1,0.2,0.3,0.2,0.6
		c0.2,0.6,0.2,1,0.4,1.7c0.1,0.4,0.2,0.8,0.3,1.2c0,0.3,0.1,0.5,0.2,0.8C13.6,39.6,13.6,39.9,13.7,40.2z"/>
</g>
</svg>
