<?xml version="1.0" encoding="utf-8"?>
<!-- Generator: Adobe Illustrator 24.0.0, SVG Export Plug-In . SVG Version: 6.00 Build 0)  -->
<svg version="1.1" id="Layer_1" xmlns="http://www.w3.org/2000/svg" xmlns:xlink="http://www.w3.org/1999/xlink" x="0px" y="0px"
	 viewBox="0 0 40 90" style="enable-background:new 0 0 40 90;" xml:space="preserve">
<style type="text/css">
	.st0{fill:#5F5557;}
	.st1{fill:#CBC6A8;}
	.st2{fill:#836670;}
	.st3{fill:#635A59;}
</style>
<g>
	<path class="st0" d="M30,60.3c-0.9,4.4-2,8.8-3.6,13.1c-0.9,2.5-2.6,3.9-5.5,3.8c-3.3-0.2-6.7,0-10.1-0.1c-2,0-2.8-1.1-2.2-3
		c1.3-4.2,2.8-8.4,4.3-12.6c0.9-2.6,2.6-4.1,5.7-3.8c3.6,0.3,7.2,0.1,10.8,0.1C30.7,58.3,30.5,59.3,30,60.3z"/>
	<path class="st1" d="M11,73.4c1.1-3.2,2.2-6.5,3.3-9.7c1.3-3.6,1.9-4,5.6-4c2.2,0,4.3,0,6.5,0c1,0,1.8,0.2,1.5,1.4
		c-1.1,4.2-2.3,8.4-4,12.4c-0.2,0.6-0.9,0.9-1.4,1.4C19,75.4,15.6,75,12.2,75C11.3,75.1,10.3,74.8,11,73.4z"/>
	<path class="st2" d="M11,73.4c0,1.6,1.2,1.3,2.1,1.4c3.1,0,6.2,0,9.3,0.1c-3.7,1.1-7.4,0.5-11.1,0.3C10.5,75.1,9.8,74.2,11,73.4z"
		/>
	<path class="st2" d="M25,63.8c-0.6,2.2-1.1,4.5-1.7,6.7c-0.5,2-1.5,3.3-3.9,2.9c-1.3-0.2-2.7-0.1-4,0c-2.2,0.1-2.7-0.8-1.6-2.6
		c0.6,0.9,0.9,2.3,2.5,1.8c-1.7,0.1-2.6-0.9-1.4-2.2c2.5-2.9,5.6-5.2,9.1-6.8C24.3,63.5,24.7,63.6,25,63.8z"/>
	<path class="st3" d="M25,63.8c-3.1,1-5.2,3.5-7.9,5.2c-0.9,0.6-2.3,1.4-2.1,2.6c0.3,1.4,1.9,0.2,3.3,1.3c-2-0.5-4.5,1.4-4.5-2.1
		c0.4-1,0.7-2,1.1-3.1c2.3-6,2.3-6,8.6-5.4C24.6,62.4,25.2,62.6,25,63.8z"/>
</g>
</svg>
