<?xml version="1.0" encoding="utf-8"?>
<!-- Generator: Adobe Illustrator 24.0.0, SVG Export Plug-In . SVG Version: 6.00 Build 0)  -->
<svg version="1.1" id="Layer_1" xmlns="http://www.w3.org/2000/svg" xmlns:xlink="http://www.w3.org/1999/xlink" x="0px" y="0px"
	 viewBox="0 0 40 90" style="enable-background:new 0 0 40 90;" xml:space="preserve">
<style type="text/css">
	.st0{fill:#5F5557;}
	.st1{fill:#CBC6A8;}
	.st2{fill:#836670;}
	.st3{fill:#635A59;}
</style>
<g>
	<path class="st0" d="M10.4,28.8c0.9-4.4,2-8.8,3.6-13.1c0.9-2.5,2.6-3.9,5.5-3.8c3.3,0.2,6.7,0,10.1,0.1c2,0,2.8,1.1,2.2,3
		c-1.3,4.2-2.8,8.4-4.3,12.6c-0.9,2.6-2.6,4.1-5.7,3.8c-3.6-0.3-7.2-0.1-10.8-0.1C9.7,30.7,10,29.8,10.4,28.8z"/>
	<path class="st1" d="M29.5,15.6c-1.1,3.2-2.2,6.5-3.3,9.7c-1.3,3.6-1.9,4-5.6,4c-2.2,0-4.3,0-6.5,0c-1,0-1.8-0.2-1.5-1.4
		c1.1-4.2,2.3-8.4,4-12.4c0.2-0.6,0.9-0.9,1.4-1.4c3.4-0.6,6.8-0.2,10.2-0.2C29.1,14,30.2,14.3,29.5,15.6z"/>
	<path class="st2" d="M29.5,15.6c0-1.6-1.2-1.3-2.1-1.4c-3.1,0-6.2,0-9.3-0.1c3.7-1.1,7.4-0.5,11.1-0.3C30,13.9,30.6,14.8,29.5,15.6
		z"/>
	<path class="st2" d="M15.5,25.3c0.6-2.2,1.1-4.5,1.7-6.7c0.5-2,1.5-3.3,3.9-2.9c1.3,0.2,2.7,0.1,4,0c2.2-0.1,2.7,0.8,1.6,2.6
		c-0.6-0.9-0.9-2.3-2.5-1.8c1.7-0.1,2.6,0.9,1.4,2.2c-2.5,2.9-5.6,5.2-9.1,6.8C16.1,25.6,15.8,25.5,15.5,25.3z"/>
	<path class="st3" d="M15.5,25.3c3.1-1,5.2-3.5,7.9-5.2c0.9-0.6,2.3-1.4,2.1-2.6c-0.3-1.4-1.9-0.2-3.3-1.3c2,0.5,4.5-1.4,4.5,2.1
		c-0.4,1-0.7,2-1.1,3.1c-2.3,6-2.3,6-8.6,5.4C15.9,26.7,15.3,26.4,15.5,25.3z"/>
</g>
</svg>
