<?xml version="1.0" encoding="utf-8"?>
<!-- Generator: Adobe Illustrator 24.0.0, SVG Export Plug-In . SVG Version: 6.00 Build 0)  -->
<svg version="1.1" id="Layer_1" xmlns="http://www.w3.org/2000/svg" xmlns:xlink="http://www.w3.org/1999/xlink" x="0px" y="0px"
	 viewBox="0 0 40 90" style="enable-background:new 0 0 40 90;" xml:space="preserve">
<style type="text/css">
	.st0{fill:#6C768F;}
	.st1{fill:#7A88A6;}
	.st2{fill:#939BAA;}
	.st3{fill:#7F91B8;}
	.st4{fill:#C3D0E6;}
	.st5{fill:#A1ADC9;}
</style>
<g>
	<path class="st0" d="M14,22.1c-1-0.4-1-1.2-0.7-2c2.1-1.3,4.7-2,6-4.5c2-1,3.4-2.3,3.7-4.7C23.1,9.3,23.2,7,26,8.1
		c0.2,4.3,0.3,7.7,0.4,10c0.1,2.3,0.1,3,0.2,4.3c0.1,3.7,0.1,6,0.2,9.1c0.1,11.1,0.2,16.6,0.3,18c0.1,0.7,0.1,1.8,0.1,3.9
		c0,2.1,0.1,3.8-0.7,4.2c-0.2,0.1-0.7,0.2-1.2,0.2c-0.1,0-0.1,0-0.9,0c-0.4,0-0.5,0-0.5,0c-0.3,0-3-0.1-3.5-1.3
		c-0.4-0.8,0.6-1.5,0.3-2.1c-0.6-1.1-4.4-0.2-4.4-0.2c0,0,1.8-0.3,3.8-1c1.7-0.6,2.8-1.7,2.7-3.6c-0.1-6.4,0.3-12.9-0.3-19.3
		c-0.4-0.6-0.9-1-1.6-1.2c-0.4-0.2-0.9-0.4-1.3-0.6c-0.4-0.3-0.7-0.6-0.9-1c0-0.3,0.1-0.7,0.2-1.2c0.1-0.3,0.2-0.6,0.3-0.9
		c-0.1-0.5-0.5-1.5-1.5-2.3C16.2,22,14.4,22.1,14,22.1z"/>
	<path class="st1" d="M20.8,54c0,0.3,0,0.7-0.1,1.3c-0.1,0.7-0.2,1,0,1.2c0.1,0.1,0.3,0.3,1,0.2c0.6,0.1,1.4,0.1,2.3,0
		c1.6-0.3,2.7-1.2,3.2-1.6c0,0.3,0,0.7-0.1,1.2c-0.1,0.5-0.1,0.9-0.3,1.1c-0.4,0.5-1.1,0.5-1.4,0.5c-3.5,0-6.9,0-10.4,0
		c-0.5,0-0.8-0.1-1.1-0.3c-0.4-0.3-0.4-0.8-0.4-1.1c-0.2-2.1,0-3.7,0-3.7c0.1-1,0-2,0-3c0-1.7-0.1-2-0.1-4.2c0-1,0-0.8,0-4.1
		c0-2.5,0-3.7-0.1-4.7c-0.1-2.4-0.1-4-0.2-4.8c-0.1-2.2-0.1-5.5,0.4-10.2c3.2,0.7,5.4,0.6,6.9,0.3c0.6-0.1,2-0.4,2.9,0.4
		c0.3,0.2,0.5,0.6,0.6,1.2c0.1,0.6,0,1.4-0.4,1.8c-0.2,0.2-0.5,0.4-1,0.5c-1.8,0.5-3-0.2-3.4,0.4c-0.1,0.2-0.3,0.5,0.1,1.4
		c0,0.1,0,0.1,0,0.2c-0.1,0.2-0.3,0.4-0.4,0.6c-2.3,1.1-3.4,2.9-3.3,5.6c0.1,4.6,0,9.3,0.1,13.9c0,1.4,0.2,2.7,1,3.6
		c0.4,0.4,0.7,0.4,1.8,1C19.4,53.1,20.3,53.6,20.8,54z"/>
	<path class="st1" d="M26,8.1c-2.1,0.2-2.2,1.8-1.9,3.2c0.6,4-1.3,5.2-4.9,4.8c-0.2-0.1-0.3-0.3-0.5-0.4c-0.8-1.1-0.6-3-2.4-3.4
		c-1-0.6-3.3-1.2-1.7-2.3c2.1-1.4,0.4-3.4,1.6-4.6C20.2,3.4,23.8,3.2,26,8.1z"/>
	<path class="st2" d="M16.2,5.3c-0.3,2,2.3,2.2,2.4,3.5c-0.2,2.3-3-0.2-2.9,2.2c0,0.1,0.9,0.1,1.4,0.1c0.7,2,0.4,3.8-1.2,5.4
		c-1.1,0.5-2.2,0.4-3.1-0.5C13.2,12.2,12.2,8,16.2,5.3z"/>
	<path class="st1" d="M12.9,16c1.1,0,2.2,0,3.2,0.1c0.9-0.8,1.9-0.8,2.9-0.1c0,0,0.1,0.1,0.1,0.1c0.6,5.1-3.1,3.8-5.8,4
		C14.7,18.6,11.7,17.5,12.9,16z"/>
	<path class="st3" d="M21.1,54c-1,0-2,0-3,0c-0.5-8.7-1.9-17.3,0.9-25.9c0,0,0.1-0.3,0.1-0.3c0.3,0.1,0.6,0.2,0.9,0.2
		c1.2,7.5,0,15.1,0.5,21.3C21,43.1,20,35.6,21.1,28c0.7,0,1.3,0,2,0c1,5.7,0.2,11.4,0.5,17.2c0.1,1.9-0.5,3.9,0.5,5.8
		C24,52.9,23,53.9,21.1,54z"/>
	<path class="st1" d="M24,51c-2.1-5.1-0.5-10.4-0.9-15.6c-0.2-2.5,0-4.9,0-7.4c2.2,5.1,0.5,10.4,1,15.5C24.3,46,24.1,48.5,24,51z"/>
	<path class="st1" d="M21.1,28c0,7.2,0,14.5,0,21.7c-0.3,0-0.6,0-1,0c0-7.3,0-14.5,0-21.8C20.4,28,20.8,28,21.1,28z"/>
	<path class="st4" d="M19,28.1c0,7,0,14.1,0.1,21.1c0,1.7,0,3.3-1,4.7c-3,0.1-4-1.4-3.9-4.3c0.1-5.7,0.2-11.5,0-17.2
		C14.1,28.7,15.4,27.3,19,28.1z"/>
	<path class="st5" d="M19,16c-1,0-1.9,0-2.9,0.1c-0.1-1.7,0-3.4,1-4.9C20.3,11.7,18.7,14.2,19,16z"/>
</g>
</svg>
