<?xml version="1.0" encoding="utf-8"?>
<!-- Generator: Adobe Illustrator 24.0.0, SVG Export Plug-In . SVG Version: 6.00 Build 0)  -->
<svg version="1.1" id="Layer_1" xmlns="http://www.w3.org/2000/svg" xmlns:xlink="http://www.w3.org/1999/xlink" x="0px" y="0px"
	 viewBox="0 0 40 90" style="enable-background:new 0 0 40 90;" xml:space="preserve">
<style type="text/css">
	.st0{fill:#6C768F;}
	.st1{fill:#7A88A6;}
	.st2{fill:#939BAA;}
	.st3{fill:#7F91B8;}
	.st4{fill:#C3D0E6;}
	.st5{fill:#A1ADC9;}
</style>
<path class="st0" d="M26.1,67.9c1,0.4,1,1.2,0.7,2c-2.1,1.3-4.7,2-6,4.5c-2,1-3.4,2.3-3.7,4.7c-0.2,1.6-0.3,3.9-3.1,2.8
	c-0.2-4.3-0.3-7.7-0.4-10c-0.1-2.3-0.1-3-0.2-4.3c-0.1-3.7-0.1-6-0.2-9.1c-0.1-11.1-0.2-16.6-0.3-18c-0.1-0.7-0.1-1.8-0.1-3.9
	c0-2.1-0.1-3.8,0.7-4.2c0.2-0.1,0.7-0.2,1.2-0.2c0.1,0,0.1,0,0.9,0c0.4,0,0.5,0,0.5,0c0.3,0,3,0.1,3.5,1.3c0.4,0.8-0.6,1.5-0.3,2.1
	c0.6,1.1,4.4,0.2,4.4,0.2c0,0-1.8,0.3-3.8,1c-1.7,0.6-2.8,1.7-2.7,3.6c0.1,6.4-0.3,12.9,0.3,19.3c0.4,0.6,0.9,1,1.6,1.2
	c0.4,0.2,0.9,0.4,1.3,0.6c0.4,0.3,0.7,0.6,0.9,1c0,0.3-0.1,0.7-0.2,1.2c-0.1,0.3-0.2,0.6-0.3,0.9c0.1,0.5,0.5,1.5,1.5,2.3
	C23.9,68,25.7,68,26.1,67.9z"/>
<path class="st1" d="M19.3,36c0-0.3,0-0.7,0.1-1.3c0.1-0.7,0.2-1,0-1.2c-0.1-0.1-0.3-0.3-1-0.2c-0.6-0.1-1.4-0.1-2.3,0
	c-1.6,0.3-2.7,1.2-3.2,1.6c0-0.3,0-0.7,0.1-1.2c0.1-0.5,0.1-0.9,0.3-1.1c0.4-0.5,1.1-0.5,1.4-0.5c3.5,0,6.9,0,10.4,0
	c0.5,0,0.8,0.1,1.1,0.3c0.4,0.3,0.4,0.8,0.4,1.1c0.2,2.1,0,3.7,0,3.7c-0.1,1,0,2,0,3c0,1.7,0.1,2,0.1,4.2c0,1,0,0.8,0,4.1
	c0,2.5,0,3.7,0.1,4.7c0.1,2.4,0.1,4,0.2,4.8c0.1,2.2,0.1,5.5-0.4,10.2c-3.2-0.7-5.4-0.6-6.9-0.3c-0.6,0.1-2,0.4-2.9-0.4
	c-0.3-0.2-0.5-0.6-0.6-1.2c-0.1-0.6,0-1.4,0.4-1.8c0.2-0.2,0.5-0.4,1-0.5c1.8-0.5,3,0.2,3.4-0.4c0.1-0.2,0.3-0.5-0.1-1.4
	c0-0.1,0-0.1,0-0.2c0.1-0.2,0.3-0.4,0.4-0.6c2.3-1.1,3.4-2.9,3.3-5.6c-0.1-4.6,0-9.3-0.1-13.9c0-1.4-0.2-2.7-1-3.6
	c-0.4-0.4-0.7-0.4-1.8-1C20.7,36.9,19.8,36.4,19.3,36z"/>
<path class="st1" d="M14.1,81.9c2.1-0.2,2.2-1.8,1.9-3.2c-0.6-4,1.3-5.2,4.9-4.8c0.2,0.1,0.3,0.3,0.5,0.4c0.8,1.1,0.6,3,2.4,3.4
	c1,0.6,3.3,1.2,1.7,2.3c-2.1,1.4-0.4,3.4-1.6,4.6C19.9,86.6,16.3,86.8,14.1,81.9z"/>
<path class="st2" d="M23.9,84.7c0.3-2-2.3-2.2-2.4-3.5c0.2-2.3,3,0.2,2.9-2.2c0-0.1-0.9-0.1-1.4-0.1c-0.7-2-0.4-3.8,1.2-5.4
	c1.1-0.5,2.2-0.4,3.1,0.5C26.9,77.8,27.9,82,23.9,84.7z"/>
<path class="st1" d="M27.2,74.1C26.1,74,25,74,24,74c-0.9,0.8-1.9,0.8-2.9,0.1c0,0-0.1-0.1-0.1-0.1c-0.6-5.1,3.1-3.8,5.8-4
	C25.4,71.4,28.4,72.6,27.2,74.1z"/>
<path class="st3" d="M19,36c1,0,2,0,3,0c0.5,8.7,1.9,17.3-0.9,25.9c0,0-0.1,0.3-0.1,0.3C20.6,62.1,20.3,62,20,62
	c-1.2-7.5,0-15.1-0.5-21.3C19.1,46.9,20.1,54.5,19,62c-0.7,0-1.3,0-2,0c-1-5.7-0.2-11.4-0.5-17.2c-0.1-1.9,0.5-3.9-0.5-5.8
	C16.1,37.1,17.1,36.1,19,36z"/>
<path class="st1" d="M16.1,39c2.1,5.1,0.5,10.4,0.9,15.6c0.2,2.5,0,4.9,0,7.4c-2.2-5.1-0.5-10.4-1-15.5C15.8,44,16,41.5,16.1,39z"/>
<path class="st1" d="M19,62c0-7.2,0-14.5,0-21.7c0.3,0,0.6,0,1,0c0,7.3,0,14.5,0,21.8C19.7,62,19.3,62,19,62z"/>
<path class="st4" d="M21.1,61.9c0-7,0-14.1-0.1-21.1c0-1.7,0-3.3,1-4.7c3-0.1,4,1.4,3.9,4.3c-0.1,5.7-0.2,11.5,0,17.2
	C26,61.3,24.7,62.7,21.1,61.9z"/>
<path class="st5" d="M21.1,74c1,0,1.9,0,2.9-0.1c0.1,1.7,0,3.4-1,4.9C19.8,78.3,21.4,75.8,21.1,74z"/>
</svg>
