<?xml version="1.0" encoding="utf-8"?>
<!-- Generator: Adobe Illustrator 24.0.0, SVG Export Plug-In . SVG Version: 6.00 Build 0)  -->
<svg version="1.1" id="Layer_1" xmlns="http://www.w3.org/2000/svg" xmlns:xlink="http://www.w3.org/1999/xlink" x="0px" y="0px"
	 viewBox="0 0 16 16" style="enable-background:new 0 0 16 16;" xml:space="preserve">
<style type="text/css">
	.st0{fill:#4B4847;}
	.st1{fill:#77364F;}
	.st2{fill:#C3BCB7;}
	.st3{fill:#D3CBC6;}
</style>
<path class="st0" d="M2.2,3c3.6,0,7.2,0,10.8,0c0.8,0,1.1,0.2,1,1.1c-0.1,1.6-0.1,3.1,0,4.7c0,0.8-0.2,1.1-1,1c0,0-0.1,0-0.1,0
	c-0.7,0.1-1.7-0.4-2.2,0.2c-0.4,0.5-0.1,1.5-0.1,2.3c0,0.4,0,0.7-0.6,0.7c-2.5,0-5,0-7.5,0c-0.1,0-0.3-0.2-0.4-0.2
	C2.2,9.5,2.2,6.3,2.2,3z"/>
<path class="st1" d="M8,8.8c-1.4,0-2.9,0-4.3,0c-0.8,0-1.1-0.2-1.1-1.1c0.1-1,0.1-1.9,0-2.9c0-0.8,0.3-1.1,1-1c2.6,0,5.2,0,7.8,0
	c2,0,2,0,2,2.3c0,2.7,0,2.7-2.5,2.7C10,8.8,9,8.8,8,8.8z"/>
<path class="st2" d="M3.1,9.6c2.2,0,4.3,0,6.5,0c0,0.1,0.1,0.2,0.1,0.2c0.2,2.5,0.2,2.5-2.1,2.5c-1.3,0-2.6,0-4,0
	c-0.8,0-1-0.3-0.9-1.1C2.9,10.7,2.5,10.1,3.1,9.6z"/>
<path class="st3" d="M3.1,9.6c-0.2,0.3-0.2,0.7-0.2,1.1c-0.1,1.1,0.1,1.6,1.3,1.5c1.3-0.1,2.7-0.1,4.1,0c1.2,0.1,1.6-0.4,1.4-1.6
	c0-0.3,0-0.7,0-1c0.6,0.8,0.2,1.8,0.2,2.7c0,0.3-0.4,0.2-0.6,0.2c-2,0-4,0-6,0c-0.5,0-0.8-0.2-0.7-0.7C2.8,11.1,2.1,10.1,3.1,9.6z"
	/>
</svg>
