<?xml version="1.0" encoding="utf-8"?>
<!-- Generator: Adobe Illustrator 24.0.0, SVG Export Plug-In . SVG Version: 6.00 Build 0)  -->
<svg version="1.1" id="Layer_1" xmlns="http://www.w3.org/2000/svg" xmlns:xlink="http://www.w3.org/1999/xlink" x="0px" y="0px"
	 viewBox="0 0 16 12" style="enable-background:new 0 0 16 12;" xml:space="preserve">
<style type="text/css">
	.st0{fill:#4B4847;}
	.st1{fill:#77364F;}
	.st2{fill:#C3BCB7;}
	.st3{fill:#D3CBC6;}
</style>
<path class="st0" d="M2,1.3c3.6,0,7.3,0,10.9,0c0.8,0,1.1,0.2,1,1c-0.1,1.5-0.1,2.9,0,4.4c0,0.8-0.2,1-1,0.9c0,0-0.1,0-0.1,0
	c-0.8,0.1-1.7-0.3-2.2,0.2c-0.4,0.5-0.1,1.4-0.1,2.1c0,0.4,0,0.7-0.6,0.7c-2.5,0-5,0-7.5,0c-0.1,0-0.3-0.1-0.4-0.2
	C2,7.4,2,4.4,2,1.3z"/>
<path class="st1" d="M7.9,6.7c-1.5,0-2.9,0-4.4,0c-0.8,0-1.1-0.2-1.1-1c0.1-0.9,0.1-1.8,0-2.7c0-0.8,0.3-1,1-1c2.6,0,5.3,0,7.9,0
	c2.1,0,2.1,0,2.1,2.1c0,2.5,0,2.5-2.5,2.5C10,6.7,9,6.7,7.9,6.7z"/>
<path class="st2" d="M3,7.5c2.2,0,4.4,0,6.6,0c0,0.1,0.1,0.1,0.1,0.2C9.9,10,9.9,10,7.6,10c-1.3,0-2.7,0-4,0c-0.8,0-1-0.3-0.9-1
	C2.7,8.5,2.4,7.9,3,7.5z"/>
<path class="st3" d="M3,7.5c-0.2,0.3-0.2,0.7-0.2,1C2.6,9.5,2.9,10,4,9.9c1.4-0.1,2.7-0.1,4.1,0C9.3,10,9.8,9.6,9.6,8.5
	c0-0.3,0-0.6,0-1c0.7,0.8,0.2,1.7,0.2,2.5c0,0.3-0.4,0.2-0.6,0.2c-2,0-4,0-6,0c-0.5,0-0.8-0.2-0.7-0.7C2.7,8.9,1.9,8,3,7.5z"/>
</svg>
