<?xml version="1.0" encoding="utf-8"?>
<!-- Generator: Adobe Illustrator 24.0.0, SVG Export Plug-In . SVG Version: 6.00 Build 0)  -->
<svg version="1.1" id="Layer_1" xmlns="http://www.w3.org/2000/svg" xmlns:xlink="http://www.w3.org/1999/xlink" x="0px" y="0px"
	 viewBox="0 0 12 40" style="enable-background:new 0 0 12 40;" xml:space="preserve">
<style type="text/css">
	.st0{fill:#4B4847;}
	.st1{fill:#77364F;}
	.st2{fill:#C3BCB7;}
	.st3{fill:#D3CBC6;}
</style>
<path class="st0" d="M0,13.8c3.6,0,7.3,0,10.9,0c0.8,0,1.1,0.2,1,1c-0.1,1.5-0.1,2.9,0,4.4c0,0.8-0.2,1-1,0.9c0,0-0.1,0-0.1,0
	c-0.8,0.1-1.7-0.3-2.2,0.2c-0.4,0.5-0.1,1.4-0.1,2.1c0,0.4,0,0.7-0.6,0.7c-2.5,0-5,0-7.5,0c-0.1,0-0.3-0.1-0.4-0.2
	C0,19.9,0,16.8,0,13.8z"/>
<path class="st1" d="M5.9,19.2c-1.5,0-2.9,0-4.4,0c-0.8,0-1.1-0.2-1.1-1c0.1-0.9,0.1-1.8,0-2.7c0-0.8,0.3-1,1-1c2.6,0,5.3,0,7.9,0
	c2.1,0,2.1,0,2.1,2.1c0,2.5,0,2.5-2.5,2.5C8,19.2,6.9,19.2,5.9,19.2z"/>
<path class="st2" d="M1,20c2.2,0,4.4,0,6.6,0c0,0.1,0.1,0.1,0.1,0.2c0.2,2.3,0.2,2.3-2.1,2.3c-1.3,0-2.7,0-4,0c-0.8,0-1-0.3-0.9-1
	C0.7,21,0.4,20.4,1,20z"/>
<path class="st3" d="M1,20c-0.2,0.3-0.2,0.7-0.2,1c-0.1,1,0.1,1.5,1.3,1.4c1.4-0.1,2.7-0.1,4.1,0c1.2,0.1,1.6-0.3,1.4-1.5
	c0-0.3,0-0.6,0-1c0.7,0.8,0.2,1.7,0.2,2.5c0,0.3-0.4,0.2-0.6,0.2c-2,0-4,0-6,0c-0.5,0-0.8-0.2-0.7-0.7C0.6,21.3-0.1,20.4,1,20z"/>
</svg>
