<?xml version="1.0" encoding="utf-8"?>
<!-- Generator: Adobe Illustrator 24.0.0, SVG Export Plug-In . SVG Version: 6.00 Build 0)  -->
<svg version="1.1" id="Layer_1" xmlns="http://www.w3.org/2000/svg" xmlns:xlink="http://www.w3.org/1999/xlink" x="0px" y="0px"
	 viewBox="0 0 16 12" style="enable-background:new 0 0 16 12;" xml:space="preserve">
<style type="text/css">
	.st0{fill:#C6BEBB;}
	.st1{fill:#9C9395;}
	.st2{fill:#6C4D5D;}
	.st3{fill:#463D41;}
</style>
<g>
	<path class="st0" d="M2,7.7C2,6.7,2.1,5.6,2.2,4.6C2.2,4.2,2.3,4,2.3,4c0,0,0,0.1,0,0.4c0.3,0.3,0.2,0.8,0.3,1.2
		c2.8-2.3,5.7-1.9,8.8-0.8c1.4,0.8,2.1,2,2.1,3.6c0,0.6,0.2,1.2,0,1.9c-0.4,0.4-0.9,0.3-1.4,0.3c-2.9,0.2-5.8-0.3-8.7-0.2
		c-0.9,0-1.3-0.4-1.3-1.3C2.1,8.6,2.2,8.2,2,7.7z"/>
	<path class="st1" d="M13.9,10.2c-0.2,0.7-0.8,0.6-1.3,0.6c-3.2-0.2-6.3-0.2-9.5-0.2c-0.5,0-0.9-0.2-1.2-0.5c0-0.8,0-1.6,0-2.4
		C2,7.8,2.2,7.9,2.2,8c0.4,2.1,0.4,2.1,2.5,2.1c2.5,0,5,0.4,7.5,0.2c0.4,0,0.9,0.2,1.2-0.2c0-0.8,0-1.7,0-2.5c0-0.3-0.2-0.9,0.6-0.7
		C14,7.9,14.1,9,13.9,10.2z"/>
	<path class="st2" d="M2.2,4.3c0.1-0.4,0.4-1.9,1.6-2.9C5,0.7,6.1,0.7,7,0.7c2.3,0,4.5,0.4,5.9,2.5c-0.6,0.3-1.2-0.7-1.7-0.1
		c-0.5,0.5,0.1,1.1,0.1,1.7c0,0.1-0.1,0.2-0.1,0.3C10,4.6,8.8,4.4,7.5,4.3c-0.6,0-1.8,0-3.2,0.6c-1,0.4-1.8,1-2.2,1.4
		c0-0.3,0-0.5,0.1-0.8C2.2,5.1,2.2,4.7,2.2,4.3z"/>
	<path class="st3" d="M11.2,5.1c-0.1-0.4-0.2-0.8-0.3-1.2C10.7,3.4,10.6,3,11,2.6c0.4-0.3,0.8-0.1,1.2,0.1C12.5,2.9,12.7,3,13,3.2
		c0.5,0.5,0.7,1.1,0.9,1.7c0,0.7,0,1.4,0.1,2c0,0.4,0,0.7,0.1,0.9c0,0.4,0,0.7,0,0.9c0,0.4,0,0.3,0,0.6c0,0.3,0,0.3,0,0.4
		c0,0.1-0.2,0.3-0.6,0.4c-0.1-0.3-0.3-0.7-0.2-1.2C13.3,7.2,12.7,5.9,11.2,5.1z"/>
</g>
</svg>
