<?xml version="1.0" encoding="utf-8"?>
<!-- Generator: Adobe Illustrator 24.0.0, SVG Export Plug-In . SVG Version: 6.00 Build 0)  -->
<svg version="1.1" id="Layer_1" xmlns="http://www.w3.org/2000/svg" xmlns:xlink="http://www.w3.org/1999/xlink" x="0px" y="0px"
	 viewBox="0 0 12 40" style="enable-background:new 0 0 12 40;" xml:space="preserve">
<style type="text/css">
	.st0{fill:#C6BEBB;}
	.st1{fill:#9C9395;}
	.st2{fill:#6C4D5D;}
	.st3{fill:#463D41;}
</style>
<g>
	<path class="st0" d="M0.1,21.4c0.1-1.1,0.2-2.1,0.2-3.2c0-0.4,0.1-0.6,0.1-0.6c0,0,0,0.1,0,0.4c0.3,0.3,0.2,0.8,0.3,1.2
		c2.8-2.3,5.7-1.9,8.8-0.8c1.4,0.8,2.1,2,2.1,3.6c0,0.6,0.2,1.2,0,1.9c-0.4,0.4-0.9,0.3-1.4,0.3c-2.9,0.2-5.8-0.3-8.7-0.2
		c-0.9,0-1.3-0.4-1.3-1.3C0.2,22.3,0.3,21.9,0.1,21.4z"/>
	<path class="st1" d="M12.1,23.9c-0.2,0.7-0.8,0.6-1.3,0.6c-3.2-0.2-6.3-0.2-9.5-0.2c-0.5,0-0.9-0.2-1.2-0.5c0-0.8,0-1.6,0-2.4
		c0.1,0.1,0.2,0.2,0.2,0.3c0.4,2.1,0.4,2.1,2.5,2.1c2.5,0,5,0.4,7.5,0.2c0.4,0,0.9,0.2,1.2-0.2c0-0.8,0-1.7,0-2.5
		c0-0.3-0.2-0.9,0.6-0.7C12.1,21.6,12.2,22.8,12.1,23.9z"/>
	<path class="st2" d="M0.4,18c0.1-0.4,0.4-1.9,1.6-2.9c1.1-0.8,2.3-0.8,3.2-0.8c2.3,0,4.5,0.4,5.9,2.5c-0.6,0.3-1.2-0.7-1.7-0.1
		c-0.5,0.5,0.1,1.1,0.1,1.7c0,0.1-0.1,0.2-0.1,0.3c-1.2-0.4-2.5-0.7-3.8-0.7c-0.6,0-1.8,0-3.2,0.6c-1,0.4-1.8,1-2.2,1.4
		c0-0.3,0-0.5,0.1-0.8C0.3,18.8,0.3,18.4,0.4,18z"/>
	<path class="st3" d="M9.3,18.8c-0.1-0.4-0.2-0.8-0.3-1.2c-0.1-0.4-0.3-0.9,0.1-1.2c0.4-0.3,0.8-0.1,1.2,0.1
		c0.2,0.1,0.5,0.3,0.7,0.4c0.5,0.5,0.7,1.1,0.9,1.7c0,0.7,0,1.4,0.1,2c0,0.4,0,0.7,0.1,0.9c0,0.4,0,0.7,0,0.9c0,0.4,0,0.3,0,0.6
		c0,0.3,0,0.3,0,0.4c0,0.1-0.2,0.3-0.6,0.4c-0.1-0.3-0.3-0.7-0.2-1.2C11.4,20.9,10.8,19.6,9.3,18.8z"/>
</g>
</svg>
