<?xml version="1.0" encoding="utf-8"?>
<!-- Generator: Adobe Illustrator 24.0.0, SVG Export Plug-In . SVG Version: 6.00 Build 0)  -->
<svg version="1.1" id="Layer_1" xmlns="http://www.w3.org/2000/svg" xmlns:xlink="http://www.w3.org/1999/xlink" x="0px" y="0px"
	 viewBox="0 0 40 90" style="enable-background:new 0 0 40 90;" xml:space="preserve">
<style type="text/css">
	.st0{fill:#B4BA8A;}
	.st1{fill:#2D2C2C;}
	.st2{fill:#C1D577;}
	.st3{fill:#D1DD82;}
</style>
<path class="st0" d="M33.6,36.1c0.7,0.4,1.4,0.8,2.1,1.2c0.7-1.3,0.7-2.7,0.1-4c-0.7,1.1-2,0.1-2.9,0.4C32.9,34.5,34.9,35,33.6,36.1
	z"/>
<path d="M20.2,36.8c0.4,0,0.6-0.2,0.7-0.3c0.1-0.1,0.2-0.1,0.5-0.8c0.2-0.4,0.2-0.4,0.3-0.6c0,0,0.2-0.4,0.5-0.6
	c0.7-0.7,3.5,0,3.5,0c4,1,3.2,0.7,3.8,0.9c3.9,1.4,6,2.1,6,2.1c0,0.2,0,0.6,0.1,0.6c0.2,0,0.6-1.6,0.6-3.4c0-1-0.1-2.5-1.1-3.5
	c-0.7-0.7-1.5-1-2.5-1.4c-0.3-0.1-1-0.3-2.4-0.6c-1.5-0.3-1.6-0.3-2.1-0.5c-0.3-0.1-0.6-0.1-1-0.2c-0.5-0.1-0.6-0.1-1-0.2
	c-0.3-0.1-0.5-0.1-1-0.3c-0.6-0.2-0.7-0.2-1-0.3c-0.3-0.1-0.5-0.1-0.7-0.2c-0.5-0.1-0.8-0.1-1.3-0.3c-0.3-0.1-0.5-0.1-0.5-0.1
	c-0.5-0.4-0.5-1.5-0.6-1.6C21,25.4,21,25.4,21,25.4c-0.4-0.4-2.1,0.8-4.4,2.6c-3.4,2.6-4.1,2.8-4.1,3.6c0,0.3,0.1,1.1,3.2,2.8
	c1.1,0.6,1.1,0.5,1.7,0.9c0.7,0.5,1.2,0.9,2,1.3C19.7,36.7,20,36.8,20.2,36.8z"/>
<path class="st1" d="M18.2,34c0.4,0.5,0.7,0.7,0.7,0.7c0,0,0.5,0.3,1.3,0.7c0.2,0.5,0.2,0.7,0.2,0.7c0,0,0-0.3,0-0.6
	c0-0.1,0.1-0.4,0.3-0.8c0.2-0.3,0.9-1.5,1.9-1.5c0.8,0,1,0.8,1.9,0.8c0.5,0,0.6-0.2,1.4-0.3c0.2,0,1-0.1,1.8,0.1
	c0.8,0.3,1.2,0.9,2.1,2c1,1.4,1.1,2.3,1.1,2.6c0,0.2,0,0.4,0,0.8c-0.1,1.4-0.3,2-0.3,2.9c-0.1,1.4-0.2,2.4,0.2,2.6
	c0.8,0.5,3.5-1.6,4.5-4.4c0.5-1.5,0.5-2.8,0.4-3.7c-0.5-1.4-2.1-1.9-3.6-2.6c-1.9-0.7-3.8-1.3-5.8-1.8c-3-0.8-6.6-1.2-7.8,0.6
	C18.3,33.2,18.2,33.7,18.2,34z"/>
<path class="st2" d="M20.3,36.5c0.1,0,0.2-0.1,0.4-0.2c0.1-0.1,0.2-0.2,0.3-0.4c0.2-0.3,0.2-0.5,0.2-0.7c0,0,0.1-0.4,0.6-0.8
	c0.6-0.6,1.8-0.4,3.9,0c2.2,0.5,3.4,0.7,3.6,0.8c1.6,0.5,3.8,1.3,6.4,2.8c0.1-0.5,0.1-0.9,0.2-1.1c0.1-0.5,0.2-0.7,0.2-1
	c0-0.3,0-0.4,0.1-0.7c0-0.2,0.1-0.3,0-0.5c0-0.1,0-0.2,0-0.3c0-0.1,0-0.1,0-0.1c0-1.3-1.1-2.3-1.5-2.7c-1.1-1.1-2.3-1.4-4.8-2
	c-1-0.2-1.8-0.4-2.3-0.5c-0.3,0-0.6-0.1-0.8-0.1c-0.2,0-0.4-0.1-0.4-0.1c-0.3-0.1-0.5-0.1-0.9-0.2c-0.3-0.1-0.6-0.1-0.9-0.2
	c-0.1,0-0.1,0-0.2-0.1c-0.1,0-0.1,0-0.1,0c-0.1,0-0.3-0.1-0.4-0.1c-0.2-0.1-0.2-0.1-0.4-0.1c-0.2-0.1-0.4-0.1-0.6-0.1
	c0,0-0.2,0-0.4-0.1c-0.2,0-0.3,0-0.3,0c-0.1,0-0.2,0-0.3,0c0,0,0,0,0,0c0,0,0,0-0.1,0c-0.8-0.5-0.9-1-0.9-1c0-0.3,0-0.4-0.1-0.6
	c0,0-0.1-0.2-0.3-0.4c-0.5-0.3-1.8,1.4-3.6,2.6c-1.9,1.4-3.5,1.8-3.8,3.1c0,0.1,0,0.2,0,0.3c0.1,1,1.4,1.8,3,2.6
	c0.5,0.3,0.9,0.5,1.6,0.9c0.2,0.1,0.3,0.2,0.8,0.6c0.6,0.4,0.9,0.6,1.3,0.7C20,36.5,20.2,36.5,20.3,36.5z"/>
<path class="st3" d="M31,29.8c-0.2,1.2-0.3,2.4-0.5,3.5c1,0.3,2,0.6,3,0.9c1,0.6,1.5,0.6,1.7,0.5c0.8-0.3,0.9-1.8,0.1-3
	c-0.2-0.3-0.5-0.6-0.7-0.8c-0.4-0.2-1-0.5-1.7-0.7C32.2,29.9,31.5,29.8,31,29.8z"/>
</svg>
