<?xml version="1.0" encoding="utf-8"?>
<!-- Generator: Adobe Illustrator 24.0.0, SVG Export Plug-In . SVG Version: 6.00 Build 0)  -->
<svg version="1.1" id="Layer_1" xmlns="http://www.w3.org/2000/svg" xmlns:xlink="http://www.w3.org/1999/xlink" x="0px" y="0px"
	 viewBox="0 0 40 90" style="enable-background:new 0 0 40 90;" xml:space="preserve">
<style type="text/css">
	.st0{fill:#B4BA8A;}
	.st1{fill:#2D2C2C;}
	.st2{fill:#C1D577;}
	.st3{fill:#D1DD82;}
	.st4{fill:#424240;}
</style>
<path class="st0" d="M31.1,48.6c0.7,0.4,1.3,0.9,2,1.3c0.6-1.4,0.7-2.9,0.1-4.3c-0.7,1.2-1.9,0.1-2.8,0.4
	C30.4,46.9,32.3,47.4,31.1,48.6z"/>
<path d="M18.4,49.4c0.3,0,0.5-0.2,0.6-0.3c0.1-0.1,0.1-0.2,0.5-0.9c0.2-0.4,0.2-0.5,0.3-0.6c0,0,0.2-0.4,0.5-0.7
	c0.7-0.7,3.4,0,3.4,0c3.8,1,3.1,0.7,3.7,1c3.7,1.5,5.8,2.3,5.8,2.3c0,0.3,0,0.6,0.1,0.6c0.1,0,0.6-1.7,0.5-3.6c0-1.1-0.1-2.6-1-3.8
	c-0.6-0.8-1.4-1.1-2.4-1.5c-0.3-0.1-1-0.3-2.3-0.6c-1.5-0.3-1.5-0.3-2-0.5c-0.3-0.1-0.6-0.2-1-0.3c-0.4-0.1-0.5-0.1-0.9-0.2
	c-0.3-0.1-0.5-0.1-0.9-0.3c-0.5-0.2-0.6-0.2-1-0.3c-0.3-0.1-0.5-0.1-0.7-0.2c-0.5-0.1-0.7-0.1-1.2-0.3c-0.3-0.1-0.5-0.1-0.5-0.1
	c-0.5-0.4-0.5-1.7-0.5-1.7c-0.1-0.3-0.1-0.3-0.1-0.3c-0.4-0.4-2,0.9-4.2,2.8c-3.2,2.7-3.9,3-3.9,3.9c0,0.3,0.1,1.2,3,3
	c1.1,0.7,1,0.5,1.6,1c0.7,0.5,1.1,1,1.9,1.4C17.9,49.2,18.2,49.3,18.4,49.4z"/>
<path class="st1" d="M16.4,46.4c0.4,0.5,0.6,0.8,0.6,0.8c0,0,0.5,0.3,1.3,0.8c0.2,0.6,0.2,0.7,0.2,0.7c0,0,0-0.3,0-0.7
	c0-0.1,0.1-0.4,0.3-0.9c0.1-0.3,0.9-1.6,1.8-1.6c0.8,0,0.9,0.9,1.9,0.9c0.5,0,0.6-0.2,1.3-0.3c0.2,0,1-0.2,1.7,0.1
	c0.4,0.2,1.1,0.5,2,2.2c0.9,1.7,1.3,3.2,1.4,3.9c0.4,1.7,0.3,2.7,1.1,4.2c0.3,0.6,0.6,1.2,0.9,1.1c0.9,0,1.6-3.6,1.8-4.5
	c0.3-1.7,0.4-3.1,0.4-3.9c-0.4-1.5-2-2.1-3.4-2.8c-1.8-0.8-3.6-1.4-5.5-1.9c-2.9-0.8-6.3-1.2-7.4,0.6C16.5,45.5,16.4,46.1,16.4,46.4
	z"/>
<path class="st2" d="M18.4,49.1c0.1,0,0.2-0.1,0.3-0.2c0.1-0.1,0.2-0.2,0.3-0.4c0.2-0.3,0.2-0.6,0.2-0.8c0,0,0.1-0.4,0.5-0.9
	c0.6-0.7,1.7-0.5,3.8,0c2.1,0.5,3.2,0.8,3.5,0.9c1.5,0.5,3.7,1.4,6.1,3c0.1-0.5,0.1-0.9,0.2-1.2c0.1-0.6,0.2-0.7,0.2-1.1
	c0-0.3,0-0.4,0-0.8c0-0.3,0.1-0.4,0-0.5c0-0.1,0-0.2,0-0.4c0-0.1,0-0.1,0-0.1c0-1.4-1-2.5-1.4-2.9c-1-1.1-2.2-1.5-4.6-2.2
	c-0.9-0.3-1.7-0.4-2.2-0.5c-0.3,0-0.6-0.1-0.8-0.2c-0.2,0-0.3-0.1-0.4-0.1c-0.3-0.1-0.4-0.2-0.9-0.3c-0.3-0.1-0.6-0.2-0.9-0.2
	c-0.1,0-0.1,0-0.2-0.1c-0.1,0-0.1,0-0.1,0c-0.1-0.1-0.2-0.1-0.4-0.1c-0.2-0.1-0.2-0.1-0.4-0.1c-0.2-0.1-0.4-0.1-0.5-0.1
	c0,0-0.2,0-0.4-0.1c-0.2,0-0.3,0-0.3,0c-0.1,0-0.1,0-0.2,0c0,0,0,0,0,0c0,0,0,0-0.1,0c-0.8-0.5-0.8-1.1-0.8-1.1c0-0.3,0-0.4-0.1-0.6
	c0,0-0.1-0.2-0.3-0.4c-0.5-0.3-1.8,1.5-3.4,2.8c-1.8,1.5-3.3,1.9-3.7,3.3c0,0.1,0,0.2,0,0.3c0.1,1.1,1.3,1.9,2.9,2.8
	c0.5,0.3,0.9,0.5,1.5,0.9c0.2,0.1,0.3,0.2,0.8,0.6c0.5,0.4,0.8,0.6,1.3,0.7C18.2,49.1,18.3,49.1,18.4,49.1z"/>
<path class="st3" d="M28.6,41.8c-0.2,1.3-0.3,2.5-0.5,3.8c1,0.3,1.9,0.6,2.9,0.9c0.9,0.7,1.4,0.6,1.6,0.5c0.8-0.3,0.9-2,0.1-3.2
	c-0.2-0.4-0.5-0.6-0.7-0.8c-0.4-0.2-0.9-0.5-1.6-0.8C29.8,42,29.1,41.9,28.6,41.8z"/>
<path class="st4" d="M20.5,46.7"/>
</svg>
