<?xml version="1.0" encoding="utf-8"?>
<!-- Generator: Adobe Illustrator 23.0.0, SVG Export Plug-In . SVG Version: 6.00 Build 0)  -->
<svg version="1.1" id="Layer_1" xmlns="http://www.w3.org/2000/svg" xmlns:xlink="http://www.w3.org/1999/xlink" x="0px" y="0px"
	 viewBox="0 0 50 150" style="enable-background:new 0 0 50 150;" xml:space="preserve">
<style type="text/css">
	.st0{fill:#FFFFFF;stroke:#B2B1B8;stroke-miterlimit:10;}
	.st1{fill:#FFFFFF;stroke:#B2B1B8;stroke-miterlimit:10;enable-background:new    ;}
	.st2{fill:#FFFFFF;stroke:#B2B1B8;stroke-miterlimit:10;enable-background:new    ;}
	.st3{fill:#FFFFFF;stroke:#B2B1B8;stroke-miterlimit:10;enable-background:new    ;}
	.st4{fill:#FFFFFF;stroke:#B2B1B8;stroke-miterlimit:10;enable-background:new    ;}
	.st5{fill:#FEFEFE;stroke:#BCBCD1;stroke-miterlimit:10;enable-background:new    ;}
</style>
<path id="left" class="st0" d="M5.4,23.9c0.3-3.3-0.4-6.5,0.5-9.7c0.5-1.9,0.9-4.4,2.8-4.8c2-0.4,3.3,1.9,4.6,3.4
	c1.4,1.8,1.7,3.4,0.7,5.8c-1.3,3.1-1.4,7,0,9.9c2,4-0.2,6.1-2.4,8.4c-2.4,2.5-3.2,2.2-4.8-1C4.8,32,5.8,27.8,5.4,23.9z"/>
<path id="top" class="st1" d="M39.3,7.9c0,1.3-1,1.7-1.5,2.5c-2.3,3.8-5.3,3.4-8.8,2c-2.3-0.9-4.8-0.8-7.1,0.1
	c-1.4,0.5-2.9,1-4.3,1.3c-1.7,0.3-6.1-3.4-6.3-5.1c-0.1-1.2,0.8-1.8,1.7-2.3c3-1.8,6.2-2.9,9.8-1.9c2.9,0.8,5.8-0.3,8.6-0.2
	c2.8,0.1,5.3,1.2,7.5,2.9C39.1,7.2,39.2,7.7,39.3,7.9z"/>
<path id="right" class="st2" d="M45,23.6c-0.3,3.3,0.4,6.5-0.5,9.7c-0.5,1.9-0.9,4.4-2.8,4.8c-2,0.4-3.3-1.8-4.6-3.4
	c-1.4-1.8-1.7-3.4-0.7-5.8c1.3-3.1,1.5-7,0-9.9c-2-4,0.2-6.1,2.4-8.4c2.5-2.5,3.2-2.2,4.8,1C45.7,15.5,44.6,19.6,45,23.6z"/>
<path id="bottom" class="st3" d="M11.4,39.8c-0.1-1.3,0.9-1.7,1.3-2.6c2.1-3.9,5.2-3.6,8.7-2.4c2.3,0.8,4.8,0.6,7.1-0.4
	c1.4-0.6,2.9-1.1,4.2-1.5c1.7-0.4,6.2,3.1,6.5,4.9c0.2,1.2-0.7,1.8-1.6,2.4c-2.9,1.9-6.1,3.2-9.7,2.3c-2.9-0.7-5.8,0.5-8.6,0.6
	s-5.3-1-7.6-2.6C11.5,40.4,11.4,39.9,11.4,39.8z"/>
<ellipse id="center" class="st4" cx="25.1" cy="23.2" rx="10.5" ry="10.3"/>
<path id="root" class="st5" d="M14.4,73.9c2.7,1.8,5.5,1.9,8.3,2.2c4.4,0.3,8.7,0,13-1.1c0.1,0,0.2,0,0.3-0.1
	c1.4-0.4,1.4-0.4,1.4,1.6c0,9.1-0.2,18.1-0.7,27.1c-0.4,6.7-0.8,13.5-2,20c-0.1,0.6-0.4,1.1-0.5,1.7s-0.5,0.7-0.9,0.4
	c-0.8-0.5-1.4-1.4-1.8-2.4c-1.5-3.3-2.1-7.1-2.7-10.9c-1.3-8.6-1.7-17.2-1.8-26c0-1.3-0.8-1.8-1.5-1.1c-0.6,0.6-1,1.3-1,2.5
	c0,10.2,0.1,20.3-0.1,30.5c-0.1,4.4-0.1,8.8-0.8,13.1c-0.2,1.2-0.4,2.3-0.9,3.3c-0.7,1.4-1.4,1.5-2.2,0.2c-0.9-1.5-1.4-3.3-1.9-5.2
	c-1.3-5-1.9-10.2-2.4-15.4c-1.4-13.3-1.9-26.7-1.9-40.1C14.4,74.2,14.4,74.1,14.4,73.9z M18.6,46.4c-1.8,0.2-3.7,0.4-5.5,1
	c-0.5,0.2-0.8,0.5-0.7,1.2c0.1,5.6,0.3,11.1,0.9,16.7c0.3,2.5,0.6,4.9,1.3,7.3c0.5,1.6,1.4,2.5,2.8,2.9c1,0.3,2,0.4,3,0.6
	c2.9,0.5,5.9,0.2,8.8,0c1.9-0.2,3.9-0.5,5.7-1.3c1.5-0.6,2.5-1.8,3-3.5c0.4-1.4,0.7-2.8,0.9-4.3c1-5.9,1.2-11.9,1.3-17.9
	c0-1.7,0-1.7-1.5-2c-4-0.8-8.1-0.9-12.1-1C23.9,46,21.3,46.1,18.6,46.4z"/>
</svg>
