<?xml version="1.0" encoding="utf-8"?>
<!-- Generator: Adobe Illustrator 23.0.0, SVG Export Plug-In . SVG Version: 6.00 Build 0)  -->
<svg version="1.1" id="Layer_1" xmlns="http://www.w3.org/2000/svg" xmlns:xlink="http://www.w3.org/1999/xlink" x="0px" y="0px"
	 viewBox="0 0 50 150" style="enable-background:new 0 0 50 150;" xml:space="preserve">
<style type="text/css">
	.st0{fill:#FFFFFF;stroke:#B2B1B8;stroke-miterlimit:10;}
	.st1{fill:#FFFFFF;stroke:#B2B1B8;stroke-miterlimit:10;}
	.st2{fill:#FFFFFF;stroke:#B2B1B8;stroke-miterlimit:10;}
	.st3{fill:#FFFFFF;stroke:#B2B1B8;stroke-miterlimit:10;}
	.st4{fill:#FFFFFF;stroke:#B2B1B8;stroke-miterlimit:10;}
	.st5{fill:#FEFEFE;stroke:#BCBCD1;stroke-miterlimit:10;}
</style>
<path id="right" class="st0" d="M45,116.1c-0.3,3.3,0.4,6.5-0.5,9.7c-0.5,1.9-0.9,4.4-2.8,4.8c-2,0.4-3.3-1.9-4.6-3.4
	c-1.4-1.8-1.7-3.4-0.7-5.8c1.3-3.1,1.5-7,0-9.9c-2-4,0.2-6.1,2.4-8.4c2.5-2.5,3.2-2.2,4.8,1C45.7,108,44.6,112.2,45,116.1z"/>
<path id="bottom" class="st1" d="M11.2,131.8c0-1.2,1-1.6,1.4-2.4c2.3-3.6,5.3-3.2,8.8-1.9c2.3,0.9,4.8,0.8,7.1-0.1
	c1.4-0.5,2.9-1,4.3-1.2c1.7-0.3,6.1,3.2,6.3,4.9c0.1,1.1-0.8,1.7-1.7,2.2c-3,1.7-6.2,2.8-9.8,1.8c-2.9-0.8-5.8,0.3-8.6,0.2
	c-2.8-0.1-5.3-1.1-7.5-2.8C11.4,132.5,11.3,132,11.2,131.8z"/>
<path id="left" class="st2" d="M5.4,116.4c0.3-3.3-0.4-6.5,0.5-9.7c0.5-1.9,0.9-4.4,2.8-4.8c2-0.4,3.3,1.8,4.6,3.4
	c1.4,1.8,1.7,3.4,0.7,5.8c-1.3,3.1-1.4,7,0,9.9c2,4-0.2,6.1-2.4,8.4c-2.4,2.5-3.2,2.2-4.8-1C4.8,124.5,5.8,120.4,5.4,116.4z"/>
<path id="top" class="st3" d="M39.2,100.8c0,1.3-1,1.7-1.5,2.5c-2.3,3.8-5.3,3.4-8.8,2c-2.3-0.9-4.8-0.8-7.1,0.1
	c-1.4,0.5-2.9,1-4.3,1.3c-1.7,0.3-6.1-3.4-6.3-5.2c-0.1-1.2,0.8-1.8,1.7-2.3c3-1.8,6.2-2.9,9.8-1.9c2.9,0.8,5.8-0.3,8.6-0.2
	c2.8,0.1,5.3,1.2,7.5,2.9C39,100.2,39.1,100.7,39.2,100.8z"/>
<ellipse id="center" class="st4" cx="25.3" cy="116.8" rx="10.5" ry="10.3"/>
<path id="root" class="st5" d="M36,66.1c-2.7-1.8-5.5-1.9-8.3-2.2c-4.4-0.3-8.7,0-13,1.1c-0.1,0-0.2,0-0.3,0.1
	C13,65.5,13,65.5,13,63.4c0-9.1,0.2-18.1,0.7-27.1c0.4-6.7,0.8-13.5,2-20c0.1-0.6,0.4-1.1,0.5-1.7s0.5-0.7,0.9-0.4
	c0.8,0.5,1.4,1.4,1.8,2.4c1.5,3.3,2.1,7.1,2.7,10.9c1.3,8.6,1.7,17.2,1.8,26c0,1.3,0.8,1.8,1.5,1.1c0.6-0.6,1-1.3,1-2.5
	c0-10.2-0.1-20.3,0.1-30.5c0.1-4.4,0.1-8.8,0.8-13.1c0.2-1.2,0.4-2.3,0.9-3.3C28.4,3.7,29,3.6,29.8,5c0.9,1.5,1.4,3.3,1.9,5.2
	c1.3,5,1.9,10.2,2.4,15.4c1.4,13.2,1.9,26.6,1.9,40C36,65.8,36,65.9,36,66.1z M31.8,93.6c1.8-0.2,3.7-0.4,5.5-1
	c0.5-0.2,0.8-0.5,0.7-1.2c0-5.6-0.3-11.1-0.9-16.7c-0.3-2.5-0.6-4.9-1.3-7.3c-0.5-1.6-1.4-2.5-2.8-2.9c-1-0.3-2-0.4-3-0.6
	c-2.9-0.5-5.9-0.2-8.8,0c-1.9,0.2-3.9,0.5-5.7,1.3c-1.5,0.6-2.5,1.8-3,3.5c-0.4,1.4-0.7,2.8-0.9,4.3c-0.9,6-1.2,12-1.3,18
	c0,1.7,0,1.7,1.5,2c4,0.8,8.1,0.9,12.1,1C26.5,94,29.2,93.9,31.8,93.6z"/>
</svg>
