<?xml version="1.0" encoding="utf-8"?>
<!-- Generator: Adobe Illustrator 23.0.0, SVG Export Plug-In . SVG Version: 6.00 Build 0)  -->
<svg version="1.1" id="Layer_1" xmlns="http://www.w3.org/2000/svg" xmlns:xlink="http://www.w3.org/1999/xlink" x="0px" y="0px"
	 viewBox="0 0 50 150" style="enable-background:new 0 0 50 150;" xml:space="preserve">
<style type="text/css">
	.st0{fill:#FFFFFF;stroke:#B2B1B8;stroke-miterlimit:10;enable-background:new    ;}
	.st1{fill:#FFFFFF;stroke:#B2B1B8;stroke-miterlimit:10;enable-background:new    ;}
	.st2{fill:#FFFFFF;stroke:#B2B1B8;stroke-miterlimit:10;}
	.st3{fill:#FFFFFF;stroke:#B2B1B8;stroke-miterlimit:10;enable-background:new    ;}
	.st4{fill:#FFFFFF;stroke:#B2B1B8;stroke-miterlimit:10;enable-background:new    ;}
	.st5{fill:#FFFFFF;stroke:#BCBCD1;stroke-miterlimit:10;enable-background:new    ;}
</style>
<path id="right" class="st0" d="M45,116.1c-0.3,3.3,0.4,6.5-0.5,9.7c-0.5,1.9-0.9,4.4-2.8,4.8c-2,0.4-3.3-1.9-4.6-3.4
	c-1.4-1.8-1.7-3.4-0.7-5.8c1.3-3.1,1.5-7,0-9.9c-2-4,0.2-6.1,2.4-8.4c2.5-2.5,3.2-2.2,4.8,1C45.7,108,44.6,112.2,45,116.1z"/>
<path id="bottom" class="st1" d="M11.2,132.1c0-1.3,1-1.7,1.4-2.5c2.3-3.8,5.3-3.4,8.8-2c2.3,0.9,4.8,0.8,7.1-0.1
	c1.4-0.5,2.9-1,4.3-1.3c1.7-0.3,6.1,3.4,6.3,5.1c0.1,1.2-0.8,1.8-1.7,2.3c-3,1.8-6.2,2.9-9.8,1.9c-2.9-0.8-5.8,0.3-8.6,0.2
	s-5.3-1.2-7.5-2.9C11.4,132.8,11.3,132.3,11.2,132.1z"/>
<path id="left" class="st2" d="M5.4,116.4c0.3-3.3-0.4-6.5,0.5-9.7c0.5-1.9,0.9-4.4,2.8-4.8c2-0.4,3.3,1.8,4.6,3.4
	c1.4,1.8,1.7,3.4,0.7,5.8c-1.3,3.1-1.4,7,0,9.9c2,4-0.2,6.1-2.4,8.4c-2.4,2.5-3.2,2.2-4.8-1C4.8,124.5,5.8,120.4,5.4,116.4z"/>
<path id="top" class="st3" d="M39.2,100.8c0,1.3-1,1.7-1.5,2.5c-2.3,3.8-5.3,3.4-8.8,2c-2.3-0.9-4.8-0.8-7.1,0.1
	c-1.4,0.5-2.9,1-4.3,1.3c-1.7,0.3-6.1-3.4-6.3-5.2c-0.1-1.2,0.8-1.8,1.7-2.3c3-1.8,6.2-2.9,9.8-1.9c2.9,0.8,5.8-0.3,8.6-0.2
	c2.8,0.1,5.3,1.2,7.5,2.9C39,100.2,39.1,100.7,39.2,100.8z"/>
<ellipse id="center" class="st4" cx="25.3" cy="116.8" rx="10.5" ry="10.3"/>
<path id="root" class="st5" d="M26.9,93.3c-4.5-0.1-9-0.2-13.4-1.5c-1.2-0.3-2.3-0.8-3.2-1.5C10,90,9.8,89.7,9.8,89.4
	c0.1-2,0-4,0.4-6c0.3-1.8,0.6-3.5,1.1-5.2c0.4-1.4,0.8-2.8,1.5-4.1c1.2-2.7,2.7-5.2,4.9-7.2c3.4-3,7.2-3.4,11.3-1
	c2,1.2,3.5,2.8,4.9,4.8c1.1,1.5,1.9,3.2,2.6,4.9c0.7,1.8,1.3,3.7,1.7,5.6c0.5,2.4,0.8,4.9,0.9,7.4c0.1,1.2-0.5,2-1.4,2.5
	c-1.9,1.1-3.9,1.5-6,1.8C30,93.1,28.5,93.3,26.9,93.3z M32.1,67.4c-0.1-4.6,0-9.2-0.4-13.7c-0.2-2.8-0.2-5.5-0.5-8.3
	c-0.3-2.2-0.2-4.5-0.6-6.8c-0.2-1.3-0.3-2.6-0.5-3.9c-0.3-2.4-0.6-4.8-1.1-7.2c-0.2-1-0.4-2.1-0.6-3.1c-0.5-2.3-1.1-4.5-1.8-6.6
	c-0.4-1.1-1-2.2-1.7-3.1c-0.4-0.6-0.6-0.5-1.1-0.1c-0.6,0.5-0.9,1.2-1.3,1.9c-0.9,1.6-1.6,3.3-2.1,5c-0.4,1.6-0.7,3.2-1.1,4.9
	C19,27.7,19,29,18.8,30.3c-0.3,1.5-0.5,2.9-0.7,4.4c-0.3,1.9-0.6,3.9-0.9,5.8c-0.2,1.6-0.2,3.3-0.5,4.9c-0.3,1.4-0.3,2.9-0.5,4.3
	c-0.3,3-0.3,6-0.6,9c-0.3,3.3-0.3,6.6-0.3,9.8c0,0.1,0,0.3,0.2,0.3c1.1-1.3,2.3-2.5,3.8-3.4c1.4-0.8,3-1.4,4.6-1.3
	c2.5,0.1,4.7,1,6.7,2.5c0.5,0.4,0.9,0.9,1.5,1.1C32.1,67.6,32.1,67.5,32.1,67.4z"/>
</svg>
