<?xml version="1.0" encoding="utf-8"?>
<!-- Generator: Adobe Illustrator 24.0.0, SVG Export Plug-In . SVG Version: 6.00 Build 0)  -->
<svg version="1.1" id="Layer_1" xmlns="http://www.w3.org/2000/svg" xmlns:xlink="http://www.w3.org/1999/xlink" x="0px" y="0px"
	 viewBox="0 0 16 16" style="enable-background:new 0 0 16 16;" xml:space="preserve">
<style type="text/css">
	.st0{fill:#563F4F;}
	.st1{fill:#908F8D;}
</style>
<path class="st0" d="M14,4.1c0,1.1,0,2.2,0,3.3c0,0.1,0,0.3,0,0.5c0,0.4-0.1,1.5-0.7,2.5c-0.9,1.5-2.3,2.1-2.8,2.3
	c-2.1,0.9-4,0.2-5.7-1.2C2.3,9.7,1.8,7,2,4.1C2.1,3,2.8,2.5,3.8,2.3c1.1-0.3,2,0.1,2.7,1.1C6.5,4,6.5,4.6,6.3,5.2
	C5.8,6.5,6.3,7.9,7.5,8.6C8.1,9,8.6,9,9.2,8.5c0.9-0.8,1.2-1.7,1.2-2.9c0-0.5-0.1-1,0-1.5c0.3-1,1-1.4,2-1.4
	C13.4,2.6,13.8,3.3,14,4.1z"/>
<path class="st1" d="M6.4,3.3c0.3,0.8,1,1.4,1.9,1.5c1.2,0.2,2-0.7,2.1-0.8c0.1,0.3,0.9,2,0.2,3.7c-0.4,0.8-1,1.3-1,1.4
	C8.8,9.6,8.1,9.7,7.3,9.1C6.2,8.4,5.7,7.3,5.6,7c-0.1-0.4-0.4-1.4,0-2.5C5.8,3.9,6.2,3.5,6.4,3.3z"/>
</svg>
