<?xml version="1.0" encoding="utf-8"?>
<!-- Generator: Adobe Illustrator 24.0.0, SVG Export Plug-In . SVG Version: 6.00 Build 0)  -->
<svg version="1.1" id="Layer_1" xmlns="http://www.w3.org/2000/svg" xmlns:xlink="http://www.w3.org/1999/xlink" x="0px" y="0px"
	 viewBox="0 0 16 12" style="enable-background:new 0 0 16 12;" xml:space="preserve">
<style type="text/css">
	.st0{fill:#563F4F;}
	.st1{fill:#908F8D;}
</style>
<path class="st0" d="M14,2.4c0,1.1,0,2.2,0,3.3c0,0.1,0,0.3,0,0.5c0,0.4-0.1,1.5-0.7,2.5c-0.9,1.5-2.3,2.1-2.8,2.3
	c-2.1,0.9-4,0.2-5.7-1.2C2.3,7.9,1.8,5.3,2,2.4c0.1-1.1,0.8-1.6,1.8-1.8c1.1-0.3,2,0.1,2.7,1.1c0.1,0.6,0.1,1.2-0.2,1.8
	C5.8,4.8,6.3,6.2,7.5,6.9c0.6,0.4,1.2,0.4,1.7-0.1C10,6,10.4,5,10.3,3.9c0-0.5-0.1-1,0-1.5c0.3-1,1-1.4,2-1.4
	C13.4,0.9,13.7,1.6,14,2.4z"/>
<path class="st1" d="M6.4,1.6c0.3,0.8,1,1.4,1.9,1.5c1.2,0.2,2-0.7,2.1-0.8c0.1,0.3,0.9,2,0.2,3.7c-0.4,0.8-1,1.3-1,1.4
	C8.8,7.9,8.1,8,7.2,7.4C6.1,6.7,5.7,5.6,5.6,5.3c-0.1-0.4-0.4-1.4,0-2.5C5.8,2.2,6.1,1.8,6.4,1.6z"/>
</svg>
