<?xml version="1.0" encoding="utf-8"?>
<!-- Generator: Adobe Illustrator 24.0.0, SVG Export Plug-In . SVG Version: 6.00 Build 0)  -->
<svg version="1.1" id="Layer_1" xmlns="http://www.w3.org/2000/svg" xmlns:xlink="http://www.w3.org/1999/xlink" x="0px" y="0px"
	 viewBox="0 0 12 40" style="enable-background:new 0 0 12 40;" xml:space="preserve">
<style type="text/css">
	.st0{fill:#563F4F;}
	.st1{fill:#908F8D;}
</style>
<path class="st0" d="M12,14.5c0,1.1,0,2.2,0,3.3c0,0.1,0,0.3,0,0.5c0,0.4-0.1,1.5-0.7,2.5c-0.9,1.5-2.3,2.1-2.8,2.3
	c-2.1,0.9-4,0.2-5.7-1.2c-2.4-2-2.9-4.6-2.7-7.5c0.1-1.1,0.8-1.6,1.8-1.8c1.1-0.3,2,0.1,2.7,1.1c0.1,0.6,0.1,1.2-0.2,1.8
	c-0.5,1.3,0.1,2.7,1.2,3.4c0.6,0.4,1.2,0.4,1.7-0.1c0.9-0.8,1.2-1.7,1.2-2.9c0-0.5-0.1-1,0-1.5c0.3-1,1-1.4,2-1.4
	C11.4,13,11.7,13.6,12,14.5z"/>
<path class="st1" d="M4.4,13.6c0.3,0.8,1,1.4,1.9,1.5c1.2,0.2,2-0.7,2.1-0.8c0.1,0.3,0.9,2,0.2,3.7c-0.4,0.8-1,1.3-1,1.4
	c-0.7,0.6-1.5,0.7-2.3,0.2c-1.1-0.7-1.5-1.8-1.6-2.2c-0.1-0.4-0.4-1.4,0-2.5C3.8,14.3,4.2,13.9,4.4,13.6z"/>
</svg>
