<?xml version="1.0" encoding="utf-8"?>
<!-- Generator: Adobe Illustrator 24.0.0, SVG Export Plug-In . SVG Version: 6.00 Build 0)  -->
<svg version="1.1" id="Layer_1" xmlns="http://www.w3.org/2000/svg" xmlns:xlink="http://www.w3.org/1999/xlink" x="0px" y="0px"
	 viewBox="0 0 40 90" style="enable-background:new 0 0 40 90;" xml:space="preserve">
<style type="text/css">
	.st0{fill:#CE0202;}
</style>
<path class="st0" d="M9.6,45.8c-0.2,1.1,0.2,1.9,0.8,3.1c0.4,0.9,0.9,1.4,1.5,2.3c0.8,1.1,1.4,1.8,2.3,2.5c1.2,0.9,2.2,1.7,3.4,1.7
	c1.6,0,2.7-1.4,5-4.2c0.1-0.2,0.9-1.1,2.3-3.1c1.7-2.3,1.8-2.4,2.3-3.1c0.3-0.4,0.4-0.5,2.8-3.4c0.7-0.8,1.6-1.9,2.6-3.5
	c0.9-1.4,1-1.9,0.8-2.3c-0.3-0.7-1.4-0.9-2.3-0.8c-0.3,0.1-0.6,0.2-1.4,1.1c-0.7,0.7-1,1.2-1.7,2c-1.1,1.4-1,1.2-2,2.5
	c-1.1,1.4-1.1,1.5-2.6,3.7c-0.3,0.4-1.1,1.6-2.3,3.1c-2.3,3-2.8,3.1-3.1,3.1c-1.1,0-2-1.3-3.1-3.1c-1.7-2.7-1.7-4.1-2.7-4.2
	C11.2,43,9.9,44.4,9.6,45.8z"/>
</svg>
