<?xml version="1.0" encoding="utf-8"?>
<!-- Generator: Adobe Illustrator 24.0.0, SVG Export Plug-In . SVG Version: 6.00 Build 0)  -->
<svg version="1.1" id="Layer_1" xmlns="http://www.w3.org/2000/svg" xmlns:xlink="http://www.w3.org/1999/xlink" x="0px" y="0px"
	 viewBox="0 0 286 574" style="enable-background:new 0 0 286 574;" xml:space="preserve">
<style type="text/css">
	.st0{fill:#FFFFFF;}
	.st1{fill:#010202;}
	.st2{fill:#99CDCD;}
	.st3{fill:#4F4F4F;}
	.st4{fill:#3B3A3A;}
	.st5{opacity:0.76;fill:url(#SVGID_1_);}
	.st6{fill:none;stroke:#000000;stroke-width:3.1227;stroke-linecap:round;stroke-miterlimit:10;}
	.st7{fill:#99CDCD;stroke:#4F4F4F;stroke-width:1.4774;stroke-linecap:round;stroke-linejoin:round;stroke-miterlimit:11.3386;}
	.st8{fill:#99CDCD;stroke:#3B3A3A;stroke-width:4.0997;stroke-linecap:round;stroke-miterlimit:11.3386;}
	.st9{opacity:0.76;fill:url(#SVGID_2_);}
	.st10{fill-rule:evenodd;clip-rule:evenodd;fill:#171717;}
	.st11{fill:#595A61;}
	.st12{opacity:0.2;fill:#CDCCCC;}
	.st13{opacity:0.2;}
	.st14{fill:#CDCCCC;}
</style>
<path id="XMLID_1_" class="st0" d="M238.7,521.2c-11,0.4-22.1,0.7-33.3,0.8c-58.7,1-115.2-0.6-169.1-4.2c-1.8-0.6-4.7-1.8-7.6-4.3
	c-2.9-2.5-4.4-5.2-5.2-6.8c-0.7-52.2-1.1-105-1.2-158.2c-0.1-98,1.1-194.4,3.3-289.2c0.7-2.2,2.1-5.5,4.9-8.9
	c2.2-2.6,4.5-4.4,6.3-5.5l208.7,0.3c2.1,0.3,5.6,1.1,8.9,3.5c8.2,6.1,7.3,16.8,7.2,17.8c-1.4,146.8-2.8,293.7-4.2,440.5
	c-0.8,1.9-2.1,4.5-4.5,7C247.6,519.4,241.1,520.8,238.7,521.2z"/>
<radialGradient id="SVGID_1_" cx="143" cy="1580.6332" r="135.391" gradientTransform="matrix(1 0 0 0.1383 0 334.8807)" gradientUnits="userSpaceOnUse">
	<stop  offset="0" style="stop-color:#6E6E6E"/>
	<stop  offset="2.275091e-02" style="stop-color:#757575;stop-opacity:0.9772"/>
	<stop  offset="0.1601" style="stop-color:#9A9A9A;stop-opacity:0.8399"/>
	<stop  offset="0.3038" style="stop-color:#B9B9B9;stop-opacity:0.6962"/>
	<stop  offset="0.4536" style="stop-color:#D1D1D1;stop-opacity:0.5464"/>
	<stop  offset="0.6121" style="stop-color:#E2E2E2;stop-opacity:0.3879"/>
	<stop  offset="0.7851" style="stop-color:#ECECEC;stop-opacity:0.2149"/>
	<stop  offset="1" style="stop-color:#EFEFEF;stop-opacity:0"/>
</radialGradient>
<ellipse class="st5" cx="143" cy="553.5" rx="135.4" ry="18.7"/>
<g>
	<path d="M116.6,15.3l-0.9,2.5h-2.3l3.7-11h3l3.9,11h-2.5l-0.9-2.5H116.6z M120.1,13.4c-0.8-2.3-1.3-3.8-1.5-4.8h0
		c-0.3,1.1-0.8,2.8-1.5,4.8H120.1z"/>
	<path d="M125.3,11.7c0-0.7,0-1.5,0-2.1h2.2c0,0.2,0.1,0.8,0.1,1.1c0.3-0.5,1-1.2,2.4-1.2c1.7,0,2.7,1.1,2.7,3.2v5.3h-2.3v-5
		c0-0.9-0.3-1.6-1.3-1.6c-1,0-1.5,0.5-1.5,2v4.6h-2.3V11.7z"/>
	<path d="M142.4,6.2v9.4c0,0.8,0,1.5,0,2.3h-2.2c0-0.2-0.1-0.7-0.1-0.9c-0.4,0.7-1.1,1.1-2.4,1.1c-2.1,0-3.4-1.7-3.4-4.3
		c0-2.5,1.4-4.4,3.8-4.4c1.2,0,1.8,0.4,2,0.8v-4H142.4z M136.7,13.8c0,1.6,0.6,2.5,1.8,2.5c1.6,0,1.8-1.3,1.8-2.5
		c0-1.4-0.2-2.5-1.7-2.5C137.3,11.2,136.7,12.2,136.7,13.8z"/>
	<path d="M144.4,11.9c0-0.8,0-1.6,0-2.2h2.3c0,0.2,0.1,1,0.1,1.5c0.4-0.9,1.2-1.6,2.7-1.6v2.2c-1.7,0-2.7,0.4-2.7,2.7v3.6h-2.3V11.9
		z"/>
	<path d="M158.3,13.7c0,2.5-1.5,4.4-4.1,4.4c-2.6,0-4.1-1.8-4.1-4.3c0-2.6,1.5-4.4,4.2-4.4C156.7,9.4,158.3,11.1,158.3,13.7z
		 M152.4,13.7c0,1.6,0.7,2.5,1.8,2.5c1.1,0,1.7-0.9,1.7-2.5c0-1.7-0.6-2.6-1.8-2.6C153.1,11.2,152.4,12,152.4,13.7z"/>
	<path d="M159.9,6.2h2.3v2h-2.3V6.2z M159.9,9.6h2.3v8.3h-2.3V9.6z"/>
	<path d="M171.8,6.2v9.4c0,0.8,0,1.5,0,2.3h-2.2c0-0.2-0.1-0.7-0.1-0.9c-0.4,0.7-1.1,1.1-2.4,1.1c-2.1,0-3.4-1.7-3.4-4.3
		c0-2.5,1.4-4.4,3.8-4.4c1.2,0,1.8,0.4,2,0.8v-4H171.8z M166.1,13.8c0,1.6,0.6,2.5,1.8,2.5c1.6,0,1.8-1.3,1.8-2.5
		c0-1.4-0.2-2.5-1.7-2.5C166.7,11.2,166.1,12.2,166.1,13.8z"/>
</g>
<path class="st10" d="M29.9,238.2c0,41.6,0,99.8,0,141.4c0,8.9,0,17.8,0,26.7c0,29.7,0,59.4,0,89.1c0,4,0.1,7.9,0.6,11.9
	c1.4,11.5,8.3,19.1,19.8,22.2c5.5,1.5,11.2,2.1,17,2.3c4,0.2,8,0.2,12.1,0.2c0.6,0,1.1,0,1.7,0c1.5,0,2.9,0,4.4-0.1
	c1.4,0,2.8-0.1,4.3-0.1c0.9,0,1.7,0.1,2.6,0.1c0.9,0.1,1.8,0.1,2.7,0.1c5.8,0,11.5,0,17.3,0c22.3,0,44.6,0,66.9,0
	c14.1,0,28.2-0.2,42.2-0.6c5.6-0.1,11.1-1,16.4-2.8c9-3.1,14.6-9.1,16.8-18.1c1.3-5.1,1.3-10.3,1.3-15.5c0-0.5,0-1.1,0-1.6
	c0.1-13.3,0-26.5,0-39.8c0-5.1,0-10.2,0-15.2c0-20.8,0-43.1,0-65.9c0-55.4,0-114.2,0-164.7c0-0.1,0-0.1,0-0.2c0-0.7,0-1.4,0.9-1.9
	c0.4-0.2,0.6-1,0.6-1.5c0-11.8,0-23.5,0-35.3c0-0.5-0.2-1.3-0.6-1.5c-0.9-0.4-0.9-1.1-0.9-1.8c0-0.1,0-0.2,0-0.3c0-7.3,0-14.7,0-22
	c0-23.8,0-47.6-0.1-71.4c0-4-0.2-7.9-0.6-11.9c-1.4-12-8.7-19.5-20.8-21.8c-6.2-1.2-12.5-1.4-18.7-1.4c-15-0.1-30.1-0.1-45.1-0.1
	c-33.5,0-67,0-100.5,0.1c-6.5,0-13.1,0.2-19.5,1.5c-9.4,1.9-16,7.1-19,16.1c-1.6,4.7-1.8,9.5-1.8,14.4c0,7.4-0.1,14.8-0.1,22.2
	c0,4.5,0,9.1,0,13.6c0,0.5-0.1,1.2-0.4,1.3c-1,0.6-1.2,1.4-1.2,2.4c0,5,0,10,0,15.1c0,1.7,0,3.3,0,5c0,2,0,4,0,6.1
	c0,12.1,0,24.3,0,36.4c0,0.7,0.2,1.7,0.8,2.1c0.8,0.5,0.8,1,0.8,1.7c0,7.1,0,14.3,0,21.4c0,0.7-0.1,1.2-0.8,1.6
	c-0.4,0.3-0.7,1-0.8,1.6c-0.1,1-0.1,2,0,2.9c0,0.4,0,0.8,0,1.2c0,2,0,3.9,0,5.9c0,8.3,0,16.6,0,24.8c0,0.7,0.2,1.7,0.7,2
	c0.9,0.5,0.9,1.1,0.9,1.9C29.9,238.2,29.9,238.2,29.9,238.2z M252.2,249.4c0,9.1,0,18.2,0,27.4c0,25.2,0,46.1,0,63.6
	c0,78.5,0,91.8,0,143.8c0,2.8-0.1,5.6-0.7,8.3c-1.3,6.6-7,11.3-14,11.9c-2.1,0.2-4.2,0.3-6.3,0.3c-58.8,0-117.7,0-176.5,0
	c-2.8,0-5.7-0.1-8.4-0.6c-6.8-1.3-11.7-6.8-12.2-13.6c-0.2-2-0.3-4-0.3-5.9c0-127.6,0-271.6,0-399.2c0-2.7,0.1-5.4,0.6-8
	c1.4-6.6,7-11.3,14-11.9c2.1-0.2,4.2-0.3,6.3-0.3c58.8,0,117.7,0,176.5,0c2.8,0,5.7,0.1,8.4,0.6c6.8,1.3,11.7,6.8,12.2,13.6
	c0.2,2.2,0.3,4.4,0.3,6.6C252.2,140.5,252.2,195,252.2,249.4z"/>
<g class="st13">
	<path class="st14" d="M117.7,272.8c-2.7,0-4.9,2.2-4.9,4.9v17.9c0,2.7,2.2,4.9,4.9,4.9s4.9-2.2,4.9-4.9v-17.9
		C122.6,275,120.5,272.8,117.7,272.8z"/>
	<path class="st14" d="M168.3,272.8c-2.7,0-4.9,2.2-4.9,4.9v17.9c0,2.7,2.2,4.9,4.9,4.9c2.7,0,4.9-2.2,4.9-4.9v-17.9
		C173.2,275,171,272.8,168.3,272.8z"/>
	<path class="st14" d="M152.5,257.1l3-5.4c0.2-0.3,0.1-0.7-0.3-0.9c-0.3-0.2-0.7-0.1-0.9,0.3l-3,5.4c0,0,0,0,0,0
		c-2.4-1.1-5.1-1.7-8.2-1.7c-3.2,0-6.1,0.6-8.5,1.7c0,0,0,0,0,0l-2.9-5.4c-0.2-0.3-0.6-0.5-0.9-0.3c-0.3,0.2-0.5,0.6-0.3,0.9
		l2.9,5.4c-6.4,3.4-9.7,10.1-9.7,15.4h38.7C162.3,266.9,158.8,260.4,152.5,257.1z"/>
	<path class="st14" d="M123.7,301.9c0,2.7,2.2,4.9,4.7,4.9h2.5v9.5c0,2.7,2.2,4.9,4.9,4.9c2.7,0,4.9-2.2,4.9-4.9v-9.5h4.6v9.5
		c0,2.7,2.2,4.9,4.9,4.9c2.7,0,4.9-2.2,4.9-4.9v-9.5h2.4c2.7,0,4.9-2.2,4.9-4.9v-27.7h-38.7V301.9z"/>
</g>
</svg>
