<?xml version="1.0" encoding="utf-8"?>
<!-- Generator: Adobe Illustrator 24.0.0, SVG Export Plug-In . SVG Version: 6.00 Build 0)  -->
<svg version="1.1" id="Layer_1" xmlns="http://www.w3.org/2000/svg" xmlns:xlink="http://www.w3.org/1999/xlink" x="0px" y="0px"
	 viewBox="0 0 286 574" style="enable-background:new 0 0 286 574;" xml:space="preserve">
<style type="text/css">
	.st0{fill:#FFFFFF;}
	.st1{fill:#010202;}
	.st2{fill:#99CDCD;}
	.st3{fill:#4F4F4F;}
	.st4{fill:#3B3A3A;}
	.st5{opacity:0.76;fill:url(#SVGID_1_);}
	.st6{fill:none;stroke:#000000;stroke-width:3.1227;stroke-linecap:round;stroke-miterlimit:10;}
	.st7{fill:#99CDCD;stroke:#4F4F4F;stroke-width:1.4774;stroke-linecap:round;stroke-linejoin:round;stroke-miterlimit:11.3386;}
	.st8{fill:#99CDCD;stroke:#3B3A3A;stroke-width:4.0997;stroke-linecap:round;stroke-miterlimit:11.3386;}
	.st9{opacity:0.76;fill:url(#SVGID_2_);}
	.st10{fill-rule:evenodd;clip-rule:evenodd;fill:#171717;}
	.st11{fill:#595A61;}
	.st12{opacity:0.2;fill:#CDCCCC;}
	.st13{opacity:0.2;}
	.st14{fill:#CDCCCC;}
</style>
<path id="XMLID_114_" class="st0" d="M238.7,521.2c-11,0.4-22.1,0.7-33.3,0.8c-58.7,1-115.2-0.6-169.1-4.2c-1.8-0.6-4.7-1.8-7.6-4.3
	c-2.9-2.5-4.4-5.2-5.2-6.8c-0.7-52.2-1.1-105-1.2-158.2c-0.1-98,1.1-194.4,3.3-289.2c0.7-2.2,2.1-5.5,4.9-8.9
	c2.2-2.6,4.5-4.4,6.3-5.5l208.7,0.3c2.1,0.3,5.6,1.1,8.9,3.5c8.2,6.1,7.3,16.8,7.2,17.8c-1.4,146.8-2.8,293.7-4.2,440.5
	c-0.8,1.9-2.1,4.5-4.5,7C247.6,519.4,241.1,520.8,238.7,521.2z"/>
<path id="path4563_2_" class="st1" d="M29.5,71.6c0,0,0.9-13.6,11.5-19.9c10.5-6.2,34.9-4.6,37.7-3.5c2.8,1.2-0.2,7.7,6.1,12.9
	c4.8,4,8.2,4.2,11.9,3.9c6.1,0,96.8,0,96.8,0s5.4-0.5,8.7-6.7c2.4-4.5,1.5-6.7,2.6-8.5c0,0,0.7-0.8,1.6-1.5
	c4.6-3.3,34.5-5.8,44.3,10.5c6,10,3.7,25.7,4.8,25.7c0.1,0,0.1-0.1,0.1-0.1c0.9-2.2,5.9-15.2-0.9-27.2c-2.3-4.1-5.4-6.9-7.8-8.7
	c-2.9-1.9-6.8-3.8-11.4-5.4c-10-3.3-18.9-2.8-24.1-2C155.7,42,100,42.9,44.2,43.7C38.5,49.4,32.7,55,27,60.7L29.5,71.6z"/>
<path id="rect4496-3_2_" class="st1" d="M57.4,36.1c-20.9,0-37.8,19.5-37.8,43.6v408.8c0,24.2,16.8,43.6,37.8,43.6h171.2
	c20.9,0,37.8-19.5,37.8-43.6V79.8c0-24.2-16.8-43.6-37.8-43.6L57.4,36.1z M67.5,46.3h149.3c18.5,0,33.4,11,33.4,24.7v421.8
	c0,13.7-14.9,24.7-33.4,24.7H67.5c-18.5,0-33.4-11-33.4-24.7V70.9C34.1,57.2,49,46.3,67.5,46.3z"/>
<g>
	<ellipse id="path4620_3_" class="st2" cx="169.3" cy="53.2" rx="3.1" ry="3"/>
	<path class="st3" d="M169.3,56.9c-2.1,0-3.9-1.7-3.9-3.8c0-2.1,1.7-3.8,3.9-3.8s3.9,1.7,3.9,3.8C173.2,55.3,171.5,56.9,169.3,56.9z
		 M169.3,50.9c-1.3,0-2.4,1-2.4,2.3c0,1.3,1.1,2.3,2.4,2.3s2.4-1,2.4-2.3C171.7,51.9,170.6,50.9,169.3,50.9z"/>
</g>
<g>
	<path id="path4622_3_" class="st2" d="M122.2,52.9c0.8,0.3,32.7,0,32.7,0"/>
	<path class="st4" d="M132.1,55.1c-10.2,0-10.6-0.2-11.1-0.4c-1.3-0.5-1.7-1.8-1-2.8c0.6-0.8,1.8-1.2,2.9-1
		c2.3,0.2,20.8,0.1,32.1-0.1c0,0,0,0,0,0c1.4,0,2.6,0.9,2.6,2c0,1.1-1.1,2.1-2.5,2.1C144.3,55.1,137,55.1,132.1,55.1z M123.4,51.1
		C123.4,51.1,123.4,51.1,123.4,51.1C123.4,51.1,123.4,51.1,123.4,51.1z M123.4,51.1C123.4,51.1,123.4,51.1,123.4,51.1
		C123.4,51.1,123.4,51.1,123.4,51.1z"/>
</g>
<radialGradient id="SVGID_1_" cx="143" cy="1580.6332" r="135.391" gradientTransform="matrix(1 0 0 0.1383 0 334.8807)" gradientUnits="userSpaceOnUse">
	<stop  offset="0" style="stop-color:#6E6E6E"/>
	<stop  offset="2.275091e-02" style="stop-color:#757575;stop-opacity:0.9772"/>
	<stop  offset="0.1601" style="stop-color:#9A9A9A;stop-opacity:0.8399"/>
	<stop  offset="0.3038" style="stop-color:#B9B9B9;stop-opacity:0.6962"/>
	<stop  offset="0.4536" style="stop-color:#D1D1D1;stop-opacity:0.5464"/>
	<stop  offset="0.6121" style="stop-color:#E2E2E2;stop-opacity:0.3879"/>
	<stop  offset="0.7851" style="stop-color:#ECECEC;stop-opacity:0.2149"/>
	<stop  offset="1" style="stop-color:#EFEFEF;stop-opacity:0"/>
</radialGradient>
<ellipse class="st5" cx="143" cy="553.5" rx="135.4" ry="18.7"/>
<line class="st6" x1="110.3" y1="500.7" x2="175.7" y2="500.8"/>
<g>
	<path d="M133,6.9v11h-2.4v-11H133z"/>
	<path d="M145.8,12.3c0,3.1-1.8,5.7-5.4,5.7c-3.5,0-5.3-2.5-5.3-5.7c0-3.2,2-5.7,5.4-5.7C143.7,6.7,145.8,9,145.8,12.3z M137.5,12.3
		c0,2.2,0.9,3.8,2.9,3.8c2.1,0,2.9-1.8,2.9-3.7c0-2.1-0.9-3.7-2.9-3.7C138.4,8.6,137.5,10.2,137.5,12.3z"/>
	<path d="M149.5,14.7c0.3,1.1,1,1.6,2.3,1.6c1.3,0,1.8-0.5,1.8-1.3c0-0.9-0.5-1.3-2.4-1.7c-3-0.7-3.7-1.8-3.7-3.3
		c0-1.9,1.4-3.2,4.1-3.2c2.9,0,4.1,1.6,4.3,3.2h-2.4c-0.1-0.7-0.5-1.4-1.9-1.4c-1,0-1.6,0.4-1.6,1.2c0,0.8,0.5,1.1,2.3,1.5
		c3.2,0.8,3.9,2,3.9,3.5c0,2-1.5,3.4-4.4,3.4c-2.8,0-4.3-1.4-4.5-3.4H149.5z"/>
</g>
<path id="path4" class="st12" d="M175.2,309.3c-1.2,2.8-2.6,5.3-4.3,7.7c-2.3,3.2-4.1,5.4-5.5,6.7c-2.2,2-4.6,3.1-7.1,3.1
	c-1.8,0-4-0.5-6.6-1.6c-2.6-1-4.9-1.6-7.1-1.6c-2.3,0-4.7,0.5-7.3,1.6c-2.6,1-4.7,1.6-6.3,1.6c-2.4,0.1-4.8-1-7.3-3.2
	c-1.5-1.3-3.5-3.6-5.8-6.9c-2.5-3.5-4.5-7.5-6.1-12.1c-1.7-5-2.6-9.8-2.6-14.4c0-5.3,1.2-9.9,3.5-13.8c1.8-3.1,4.2-5.5,7.3-7.3
	s6.3-2.7,9.8-2.8c1.9,0,4.5,0.6,7.6,1.8c3.1,1.2,5.1,1.8,6,1.8c0.7,0,2.9-0.7,6.7-2.1c3.6-1.3,6.6-1.8,9.1-1.6
	c6.7,0.5,11.7,3.2,15.1,7.9c-6,3.6-9,8.7-8.9,15.2c0.1,5.1,1.9,9.3,5.5,12.7c1.6,1.6,3.5,2.8,5.5,3.6
	C176.1,306.8,175.6,308.1,175.2,309.3L175.2,309.3z M159.8,248.8c0,4-1.5,7.7-4.4,11.1c-3.5,4.1-7.7,6.5-12.3,6.1
	c-0.1-0.5-0.1-1-0.1-1.5c0-3.8,1.7-7.9,4.6-11.3c1.5-1.7,3.4-3.1,5.6-4.2c2.3-1.1,4.4-1.7,6.4-1.8
	C159.8,247.7,159.8,248.2,159.8,248.8L159.8,248.8z"/>
</svg>
