<?xml version="1.0" encoding="utf-8"?>
<!-- Generator: Adobe Illustrator 27.8.1, SVG Export Plug-In . SVG Version: 6.00 Build 0)  -->
<svg version="1.1" id="Layer_1" xmlns="http://www.w3.org/2000/svg" xmlns:xlink="http://www.w3.org/1999/xlink" x="0px" y="0px"
	 viewBox="0 0 500 500" style="enable-background:new 0 0 500 500;" xml:space="preserve">
<style type="text/css">
	.st0{opacity:0.7;}
	.st1{fill-rule:evenodd;clip-rule:evenodd;fill:#F4F6F9;}
	.st2{fill:#F4F6F9;}
	.st3{fill:#DDE0E7;}
	.st4{fill-rule:evenodd;clip-rule:evenodd;fill:#DDE0E7;}
	.st5{font-family:'Alexandria-SemiBold';}
	.st6{font-size:28.3465px;}
	.st7{fill:none;stroke:#DDE0E7;stroke-width:3.0585;stroke-linecap:round;stroke-linejoin:round;stroke-miterlimit:10;}
	.st8{fill:none;stroke:#DDE0E7;stroke-width:2.8346;stroke-linecap:round;stroke-miterlimit:10;}
	.st9{fill:none;stroke:#DDE0E7;stroke-width:2.8346;stroke-linecap:round;stroke-miterlimit:10;stroke-dasharray:11.7777,11.7777;}
</style>
<g class="st0">
	<g>
		<path class="st1" d="M297.7,118.2c0.8,2.8,1.2,5.7,1.3,8.7l7.3,3.7l-3.4,13.2l-8.2-0.2c-1.4,2.6-3.2,5-5.3,7.1l2.5,7.8l-11.6,6.9
			l-5.7-5.9c-2.8,0.8-5.7,1.2-8.7,1.3l-3.7,7.3l-13.1-3.4l0.2-8.2c-2.6-1.4-5-3.2-7.1-5.3l-7.8,2.5l-6.9-11.6l5.9-5.7
			c-0.8-2.8-1.2-5.7-1.3-8.7l-7.3-3.7l3.4-13.1l8.2,0.2c1.4-2.6,3.2-5,5.3-7.1l-2.5-7.8l11.6-7l5.7,5.9c2.8-0.8,5.7-1.2,8.7-1.3
			l3.7-7.3l13.1,3.4l-0.2,8.2c2.6,1.4,5,3.2,7.1,5.3l7.8-2.5l6.9,11.6L297.7,118.2L297.7,118.2z M278.4,120.5
			c-4.1-6.9-13-9.2-19.9-5.1c-6.9,4.1-9.2,13-5.1,19.9c4.1,6.9,13,9.2,19.9,5.1c0,0,0,0,0,0C280.2,136.3,282.5,127.4,278.4,120.5
			C278.4,120.5,278.4,120.5,278.4,120.5z"/>
		<path class="st1" d="M202.3,147c1.6,5.7,2.5,11.7,2.6,17.6l14.7,7.5l-6.8,26.5l-16.5-0.4c-2.9,5.2-6.5,10-10.6,14.3l5.1,15.7
			l-23.5,14.1l-11.4-12c-5.7,1.6-11.7,2.5-17.6,2.6l-7.5,14.7l-26.5-6.8l0.4-16.5c-5.2-2.9-10-6.5-14.3-10.6l-15.7,5.1l-14.1-23.5
			l12-11.4c-1.7-5.7-2.5-11.7-2.6-17.6L55.4,159l6.8-26.5l16.5,0.4c2.9-5.2,6.5-10,10.6-14.3l-5.1-15.7l23.5-14.1l11.4,12
			c5.7-1.6,11.7-2.5,17.6-2.6l7.5-14.7l26.5,6.8l-0.4,16.5c5.2,2.9,10,6.5,14.3,10.6l15.7-5.1l14.1,23.5l-12,11.4L202.3,147z
			 M163.4,151.6c-8.3-13.9-26.3-18.4-40.2-10.1c-13.9,8.3-18.4,26.3-10.1,40.2c8.3,13.9,26.3,18.4,40.2,10.1c0,0,0,0,0,0
			C167.2,183.5,171.7,165.5,163.4,151.6z"/>
		<path class="st2" d="M232.3,42.7c0.6,2.2,1,4.5,1,6.8l5.7,2.9l-2.6,10.2l-6.4-0.2c-1.1,2-2.5,3.9-4.1,5.5l2,6l-9,5.4l-4.4-4.6
			c-2.2,0.6-4.5,1-6.8,1l-2.9,5.7l-10.2-2.6l0.2-6.4c-2-1.1-3.9-2.5-5.5-4.1l-6,2l-5.4-9.1l4.6-4.4c-0.6-2.2-1-4.5-1-6.8l-5.7-2.9
			l2.6-10.2l6.4,0.2c1.1-2,2.5-3.9,4.1-5.5l-1.9-6l9-5.4l4.4,4.6c2.2-0.6,4.5-1,6.8-1l2.9-5.7l10.2,2.6l-0.1,6.4
			c2,1.1,3.9,2.5,5.5,4.1l6.1-2l5.4,9.1L232.3,42.7L232.3,42.7z M217.2,44.5c-3.2-5.4-10.1-7.1-15.5-3.9c-5.4,3.2-7.1,10.1-3.9,15.5
			c3.2,5.4,10.1,7.1,15.5,3.9C218.7,56.8,220.4,49.8,217.2,44.5C217.2,44.5,217.2,44.5,217.2,44.5z"/>
		<path class="st2" d="M217.2,44.5c0.5,0.8,1,1.6,1.2,2.5c0.8,2.5,0.7,5.2-0.2,7.6c-1.4,3.7-4.6,6.3-8.5,7.1
			c-1.1,0.2-2.2,0.3-3.3,0.2c-1.2-0.1-2.3-0.4-3.4-0.9c-4.7-2-7.5-6.7-7-11.8c0.1-1.2,0.4-2.3,0.8-3.4c0.4-1,1-2,1.7-2.9
			c1.3-1.6,3-2.8,5-3.5c4.2-1.5,8.9-0.4,12.1,2.8C216.3,42.8,216.8,43.6,217.2,44.5c-0.6-0.7-1.1-1.4-1.8-2.1
			c-1.8-1.7-4.2-2.8-6.7-3.1c-1.7-0.2-3.4,0-5,0.6c-1.8,0.7-3.4,1.9-4.7,3.4c-0.7,0.8-1.2,1.7-1.6,2.7c-0.4,1-0.7,2.1-0.8,3.2
			c-0.5,4.8,2.2,9.3,6.7,11.2c1,0.4,2.1,0.7,3.2,0.8c1.1,0.1,2.1,0.1,3.2-0.1c1.9-0.4,3.7-1.2,5.2-2.5c1.3-1.1,2.3-2.5,3-4.1
			c1-2.3,1.1-4.9,0.4-7.3C217.7,45.3,217.2,44.5,217.2,44.5z"/>
		<path class="st2" d="M232.3,42.7c0,0,0-0.1,0.3-0.3l0.9-0.9l3.4-3.3l0,0.1l-5.4-9l0.2,0l-6,2l-0.1,0l0,0c-1.6-1.6-3.5-2.9-5.5-4
			l-0.1,0l0-0.1c0-2,0.1-4.1,0.1-6.4l0.2,0.2l-10.2-2.5l0.3-0.1l-2.9,5.7l0,0.1l-0.2,0c-2.3,0-4.5,0.4-6.7,1l-0.2,0l-0.1-0.1
			l-4.4-4.6l0.3,0l-9.3,5.5l0.1-0.4l2,6.1l0,0.2l-0.1,0.1c-1.6,1.6-2.9,3.5-4,5.4l-0.1,0.2l-0.2,0l-6.4-0.2l0.3-0.2
			c-0.8,3.2-1.7,6.7-2.6,10.2l-0.2-0.4l5.7,2.9l0.2,0.1l0,0.2c0,2.3,0.4,4.5,1,6.7l0,0l0,0.2l-0.1,0.1l-4.6,4.4l0-0.4l5.4,9
			l-0.4-0.1l6.1-2l0.2,0l0.1,0.1c1.6,1.6,3.5,2.9,5.4,4l0.2,0.1l0,0.2c-0.1,2.2-0.1,4.3-0.2,6.4l-0.2-0.3l10.2,2.6l-0.3,0.1
			c1-1.9,2-3.8,2.9-5.7l0.1-0.2l0.2,0c2.3,0,4.5-0.4,6.7-1l0.2,0l0.1,0.1l4.4,4.6l-0.3,0l9.1-5.4l-0.1,0.3c-0.7-2.1-1.3-4.1-2-6.1
			l0-0.1l0.1-0.1c1.6-1.6,3-3.5,4.1-5.5l0-0.1l0.1,0l6.4,0.2l-0.2,0.1c1-3.9,1.9-7.3,2.6-10.2l0,0.2l-5.7-2.9l0,0l0,0
			c0-1.7-0.2-3.5-0.5-5.2l-0.3-1.2c0-0.1,0-0.3,0-0.4c0,0,0,0.1,0.1,0.4c0.1,0.4,0.2,0.8,0.3,1.2c0.4,1.7,0.6,3.5,0.6,5.2l0-0.1
			l5.7,2.8l0.1,0l0,0.1c-0.7,2.9-1.6,6.3-2.5,10.2l0,0.1l-0.1,0l-6.4-0.1l0.2-0.1c-1.1,2-2.5,3.9-4.1,5.6l0-0.2c0.6,1.9,1.3,3.9,2,6
			l0,0.2l-0.2,0.1l-8.8,5.3l-0.2,0.1l-0.1-0.2l-4.4-4.6l0.3,0.1c-2.3,0.7-4.6,1-6.9,1l0.3-0.2l-2.9,5.7l-0.1,0.2l-0.2,0l-10.2-2.6
			l-0.2,0l0-0.2c0-2.1,0.1-4.2,0.1-6.4l0.2,0.3c-2-1.1-3.9-2.5-5.6-4.1l0.3,0l-6,2l-0.2,0.1l-0.1-0.2l-5.4-9l-0.1-0.2l0.2-0.2
			l4.6-4.4l0,0.3l0,0c-0.6-2.3-1-4.6-1-6.9l0.2,0.3l-5.7-2.9l-0.2-0.1l0-0.2c0.9-3.5,1.8-7,2.6-10.2l0-0.3l0.4,0l6.4,0.2l-0.3,0.2
			c1.1-2,2.5-3.9,4.1-5.6l0,0.3c-0.7-2.1-1.3-4.2-2-6l0-0.2l0.2-0.1l9.1-5.4l0.2-0.1l0.2,0.2l4.4,4.6l-0.3-0.1c2.3-0.6,4.6-1,6.9-1
			l-0.2,0.1l2.9-5.7l0.1-0.2l0.2,0l10,2.7l0.2,0l0,0.2c-0.1,2.2-0.1,4.4-0.2,6.4L220,27c2,1.1,3.9,2.5,5.5,4.2l-0.2,0l6.1-2l0.1,0
			l0,0.1c2.2,3.7,4,6.7,5.3,9.1l0,0l0,0l-3.4,3.2l-0.9,0.8L232.3,42.7z"/>
	</g>
</g>
<rect x="77.7" y="319.7" class="st3" width="62.6" height="120.6"/>
<rect x="60.6" y="319.7" class="st2" width="62.6" height="120.6"/>
<rect x="175.4" y="279.4" class="st3" width="62.6" height="160.9"/>
<rect x="156.4" y="279.4" class="st2" width="62.6" height="160.9"/>
<rect x="376.8" y="183.8" class="st3" width="62.6" height="256.4"/>
<rect x="351.9" y="183.8" class="st2" width="62.6" height="256.4"/>
<path class="st4" d="M365.9,213.8l-2,2c-1,1-0.9,2.6,0.1,3.5c1,0.9,2.5,0.9,3.5,0l2-2l2,2c1,1,2.6,0.9,3.5-0.1c0.9-1,0.9-2.5,0-3.5
	l-2-2l2-2c1-1,0.9-2.6-0.1-3.5c-1-0.9-2.5-0.9-3.5,0l-2,2l-2-2c-1-1-2.6-0.9-3.5,0.1c-0.9,1-0.9,2.5,0,3.5L365.9,213.8z
	 M393.4,213.8l-2,2c-1,1-0.9,2.6,0.1,3.5c1,0.9,2.5,0.9,3.5,0l2-2l2,2c1,1,2.6,0.9,3.5-0.1c0.9-1,0.9-2.5,0-3.5l-2-2l2-2
	c1-1,0.9-2.6-0.1-3.5c-1-0.9-2.5-0.9-3.5,0l-2,2l-2-2c-1-1-2.6-0.9-3.5,0.1c-0.9,1-0.9,2.5,0,3.5L393.4,213.8z M372.1,229.7l3.7,1.8
	c1.5,0.8,3.4,0.8,4.9,0l2.3-1.2c0.1-0.1,0.3-0.1,0.4,0l2.3,1.2c1.5,0.8,3.4,0.8,4.9,0l3.7-1.8c1.3-0.6,1.8-2.1,1.2-3.3
	c-0.6-1.3-2.1-1.8-3.3-1.2c0,0-0.1,0-0.1,0.1l-3.7,1.8c-0.1,0.1-0.3,0.1-0.4,0l-2.3-1.2c-1.5-0.8-3.4-0.8-4.9,0l-2.3,1.2
	c-0.1,0.1-0.3,0.1-0.4,0l-3.7-1.8c-1.2-0.7-2.7-0.2-3.4,1c-0.7,1.2-0.2,2.7,1,3.4C372,229.7,372,229.7,372.1,229.7z"/>
<g>
	<text transform="matrix(1 0 0 1 182.6072 497.8805)" class="st3 st5 st6">NO DATA</text>
</g>
<g>
	<path class="st2" d="M413.2,132c0-0.2-0.3-1.5-1.5-2c-0.8-0.3-1.8-0.4-3-0.4c-4.1,0-6.1,1.8-6.1,4.1c0,0.2,0,0.4,0.1,0.6
		c0.6,1.4,3.3,1.8,4.4,1.8C411.1,136.1,413.2,134.2,413.2,132z"/>
	<ellipse class="st7" cx="408.1" cy="132.8" rx="6.1" ry="4.1"/>
	<path class="st7" d="M415.8,122.3c1.2,1,1,2.8-0.6,4.1c-1.9,1.5-4.8,2.3-7.1,2.3c0-1.9,0.9-4.3,2.7-5.9
		C412.4,121.5,414.6,121.3,415.8,122.3z"/>
	<path class="st7" d="M400.5,122.3c-1.2,1-1,2.8,0.6,4.1c1.9,1.5,4.8,2.3,7.1,2.3c0-1.9-0.9-4.3-2.7-5.9
		C403.8,121.5,401.7,121.3,400.5,122.3z"/>
</g>
<g>
	<g>
		<path class="st8" d="M418.6,140.2c2,1,3.8,1.7,5.5,2.3"/>
		<path class="st9" d="M435.7,143.7c0.2,0,0.5-0.1,0.7-0.1c6.9-1.2,10.1-5.1,15.8-3.7c5.6,1.4,8.4,6.4,8.6,6.8
			c4.1,7.5-0.5,17.4-1.6,19.8c-12,28.1,21.4,94.1,1.3,119.5c-17.9,22.6-58.3-12.4-114.3,6.3c-56.5,18.8-52.4,72.4-100.8,78.7
			c-27.4,3.6-76.4-7-97.8-36c-4.5-6.1-12.5-19.4-28.6-25c-5.5-1.9-10.8-2.5-15.6-2.5"/>
		<path class="st8" d="M97.6,307.8c-2.2,0.2-4.1,0.6-5.9,1"/>
	</g>
</g>
<g>
	<rect x="275.9" y="228.5" class="st3" width="62.6" height="211.8"/>
	<rect x="257.1" y="228.5" class="st2" width="62.6" height="211.8"/>
</g>
</svg>
